<svg width="800" height="291" viewBox="0 0 800 291" fill="none" xmlns="http://www.w3.org/2000/svg">
<g clip-path="url(#clip0_24453_173669)">
<rect width="800" height="291" fill="#F0F0F0"/>
<rect x="413" y="63.5" width="121" height="24" rx="12" fill="white"/>
<path d="M436.924 80.5H434.08V71.932H436.924C437.82 71.932 438.6 72.092 439.264 72.412C439.928 72.724 440.44 73.2 440.8 73.84C441.168 74.472 441.352 75.264 441.352 76.216C441.352 77.168 441.168 77.964 440.8 78.604C440.44 79.236 439.928 79.712 439.264 80.032C438.6 80.344 437.82 80.5 436.924 80.5ZM436.84 79.072C437.736 79.072 438.388 78.848 438.796 78.4C439.212 77.952 439.42 77.224 439.42 76.216C439.42 75.208 439.212 74.48 438.796 74.032C438.388 73.584 437.736 73.36 436.84 73.36H435.916V79.072H436.84ZM446.204 79.48C446.692 79.48 447.096 79.42 447.416 79.3C447.744 79.18 448.036 79.016 448.292 78.808H448.388L448.28 80.056C448.096 80.216 447.808 80.36 447.416 80.488C447.024 80.616 446.548 80.68 445.988 80.68C445.316 80.68 444.732 80.532 444.236 80.236C443.74 79.94 443.356 79.536 443.084 79.024C442.812 78.512 442.676 77.932 442.676 77.284C442.676 76.636 442.804 76.056 443.06 75.544C443.316 75.032 443.672 74.628 444.128 74.332C444.592 74.036 445.128 73.888 445.736 73.888C446.448 73.888 447.008 74.02 447.416 74.284C447.832 74.548 448.124 74.908 448.292 75.364C448.46 75.812 448.544 76.316 448.544 76.876C448.544 76.956 448.54 77.056 448.532 77.176C448.524 77.288 448.516 77.384 448.508 77.464H444.404V77.5C444.436 78.124 444.6 78.612 444.896 78.964C445.192 79.308 445.628 79.48 446.204 79.48ZM445.772 74.992C445.348 74.992 445.028 75.132 444.812 75.412C444.604 75.692 444.476 76.096 444.428 76.624H447.032V76.42C447.032 75.988 446.928 75.644 446.72 75.388C446.52 75.124 446.204 74.992 445.772 74.992ZM451.2 74.056L452.688 78.628H452.772L454.224 74.056H455.748L453.456 80.5H451.68L449.388 74.056H451.2ZM460.063 79.48C460.551 79.48 460.955 79.42 461.275 79.3C461.603 79.18 461.895 79.016 462.151 78.808H462.247L462.139 80.056C461.955 80.216 461.667 80.36 461.275 80.488C460.883 80.616 460.407 80.68 459.847 80.68C459.175 80.68 458.591 80.532 458.095 80.236C457.599 79.94 457.215 79.536 456.943 79.024C456.671 78.512 456.535 77.932 456.535 77.284C456.535 76.636 456.663 76.056 456.919 75.544C457.175 75.032 457.531 74.628 457.987 74.332C458.451 74.036 458.987 73.888 459.595 73.888C460.307 73.888 460.867 74.02 461.275 74.284C461.691 74.548 461.983 74.908 462.151 75.364C462.319 75.812 462.403 76.316 462.403 76.876C462.403 76.956 462.399 77.056 462.391 77.176C462.383 77.288 462.375 77.384 462.367 77.464H458.263V77.5C458.295 78.124 458.459 78.612 458.755 78.964C459.051 79.308 459.487 79.48 460.063 79.48ZM459.631 74.992C459.207 74.992 458.887 75.132 458.671 75.412C458.463 75.692 458.335 76.096 458.287 76.624H460.891V76.42C460.891 75.988 460.787 75.644 460.579 75.388C460.379 75.124 460.063 74.992 459.631 74.992ZM465.572 78.556C465.572 78.892 465.624 79.116 465.728 79.228C465.832 79.332 465.996 79.384 466.22 79.384C466.452 79.384 466.676 79.332 466.892 79.228H466.964L466.796 80.488C466.708 80.544 466.556 80.588 466.34 80.62C466.124 80.66 465.94 80.68 465.788 80.68C465.148 80.68 464.676 80.532 464.372 80.236C464.076 79.94 463.928 79.448 463.928 78.76V71.584H465.572V78.556ZM471.055 73.888C471.719 73.888 472.291 74.036 472.771 74.332C473.251 74.628 473.615 75.032 473.863 75.544C474.119 76.048 474.247 76.628 474.247 77.284C474.247 77.932 474.119 78.512 473.863 79.024C473.615 79.536 473.251 79.94 472.771 80.236C472.291 80.532 471.719 80.68 471.055 80.68C470.383 80.68 469.807 80.532 469.327 80.236C468.847 79.94 468.479 79.536 468.223 79.024C467.975 78.512 467.851 77.932 467.851 77.284C467.851 76.628 467.975 76.048 468.223 75.544C468.479 75.032 468.847 74.628 469.327 74.332C469.807 74.036 470.383 73.888 471.055 73.888ZM471.055 79.396C471.519 79.396 471.879 79.228 472.135 78.892C472.399 78.548 472.531 78.012 472.531 77.284C472.531 76.548 472.399 76.012 472.135 75.676C471.879 75.332 471.519 75.16 471.055 75.16C470.583 75.16 470.219 75.332 469.963 75.676C469.707 76.012 469.579 76.548 469.579 77.284C469.579 78.012 469.707 78.548 469.963 78.892C470.219 79.228 470.583 79.396 471.055 79.396ZM482.132 77.284C482.132 77.988 482.008 78.596 481.76 79.108C481.52 79.612 481.196 80 480.788 80.272C480.38 80.544 479.92 80.68 479.408 80.68C478.944 80.68 478.544 80.588 478.208 80.404C477.88 80.212 477.64 79.968 477.488 79.672H477.428V82.876H475.796V74.056H477.296L477.416 75.112H477.476C477.604 74.728 477.848 74.428 478.208 74.212C478.568 73.996 478.976 73.888 479.432 73.888C479.952 73.888 480.416 74.016 480.824 74.272C481.232 74.52 481.552 74.896 481.784 75.4C482.016 75.896 482.132 76.524 482.132 77.284ZM477.452 76.924V77.632C477.452 78.192 477.588 78.628 477.86 78.94C478.14 79.244 478.504 79.396 478.952 79.396C479.392 79.396 479.744 79.224 480.008 78.88C480.272 78.528 480.404 77.996 480.404 77.284C480.404 76.572 480.272 76.04 480.008 75.688C479.744 75.336 479.392 75.16 478.952 75.16C478.504 75.16 478.14 75.316 477.86 75.628C477.588 75.932 477.452 76.364 477.452 76.924ZM486.591 75.208C486.183 75.208 485.871 75.352 485.655 75.64C485.447 75.92 485.343 76.292 485.343 76.756V80.5H483.687V74.056H485.163L485.271 75.1H485.343C485.511 74.644 485.771 74.328 486.123 74.152C486.483 73.976 486.871 73.888 487.287 73.888C488.247 73.888 488.847 74.292 489.087 75.1H489.159C489.263 74.796 489.423 74.556 489.639 74.38C489.855 74.204 490.099 74.08 490.371 74.008C490.651 73.928 490.927 73.888 491.199 73.888C492.519 73.888 493.179 74.628 493.179 76.108V80.5H491.523V76.528C491.523 76.072 491.447 75.74 491.295 75.532C491.151 75.316 490.887 75.208 490.503 75.208C490.095 75.208 489.787 75.348 489.579 75.628C489.371 75.908 489.267 76.284 489.267 76.756V80.5H487.611V76.528C487.611 76.072 487.535 75.74 487.383 75.532C487.239 75.316 486.975 75.208 486.591 75.208ZM498.215 79.48C498.703 79.48 499.107 79.42 499.427 79.3C499.755 79.18 500.047 79.016 500.303 78.808H500.399L500.291 80.056C500.107 80.216 499.819 80.36 499.427 80.488C499.035 80.616 498.559 80.68 497.999 80.68C497.327 80.68 496.743 80.532 496.247 80.236C495.751 79.94 495.367 79.536 495.095 79.024C494.823 78.512 494.687 77.932 494.687 77.284C494.687 76.636 494.815 76.056 495.071 75.544C495.327 75.032 495.683 74.628 496.139 74.332C496.603 74.036 497.139 73.888 497.747 73.888C498.459 73.888 499.019 74.02 499.427 74.284C499.843 74.548 500.135 74.908 500.303 75.364C500.471 75.812 500.555 76.316 500.555 76.876C500.555 76.956 500.551 77.056 500.543 77.176C500.535 77.288 500.527 77.384 500.519 77.464H496.415V77.5C496.447 78.124 496.611 78.612 496.907 78.964C497.203 79.308 497.639 79.48 498.215 79.48ZM497.783 74.992C497.359 74.992 497.039 75.132 496.823 75.412C496.615 75.692 496.487 76.096 496.439 76.624H499.043V76.42C499.043 75.988 498.939 75.644 498.731 75.388C498.531 75.124 498.215 74.992 497.783 74.992ZM505.069 75.208C504.653 75.208 504.329 75.352 504.097 75.64C503.873 75.928 503.761 76.308 503.761 76.78V80.5H502.105V74.056H503.581L503.689 75.1H503.761C503.873 74.796 504.033 74.556 504.241 74.38C504.457 74.204 504.697 74.08 504.961 74.008C505.233 73.928 505.505 73.888 505.777 73.888C506.441 73.888 506.949 74.072 507.301 74.44C507.653 74.808 507.829 75.36 507.829 76.096V80.5H506.173V76.528C506.173 76.072 506.089 75.74 505.921 75.532C505.753 75.316 505.469 75.208 505.069 75.208ZM511.768 78.52C511.768 78.864 511.844 79.096 511.996 79.216C512.148 79.336 512.344 79.396 512.584 79.396C512.8 79.396 512.972 79.38 513.1 79.348C513.236 79.308 513.36 79.26 513.472 79.204H513.544L513.376 80.44C513.288 80.504 513.124 80.56 512.884 80.608C512.644 80.656 512.396 80.68 512.14 80.68C511.428 80.68 510.912 80.532 510.592 80.236C510.272 79.94 510.112 79.46 510.112 78.796V75.292H508.996L509.152 74.308L510.112 74.068V72.616L511.768 72.424V74.056H513.448L513.268 75.292H511.768V78.52Z" fill="black"/>
<rect x="17" y="76.5" width="101" height="24" rx="12" fill="white"/>
<path d="M39.0004 93.5H36.1564V84.932H39.0004C39.8964 84.932 40.6764 85.092 41.3404 85.412C42.0044 85.724 42.5164 86.2 42.8764 86.84C43.2444 87.472 43.4284 88.264 43.4284 89.216C43.4284 90.168 43.2444 90.964 42.8764 91.604C42.5164 92.236 42.0044 92.712 41.3404 93.032C40.6764 93.344 39.8964 93.5 39.0004 93.5ZM38.9164 92.072C39.8124 92.072 40.4644 91.848 40.8724 91.4C41.2884 90.952 41.4964 90.224 41.4964 89.216C41.4964 88.208 41.2884 87.48 40.8724 87.032C40.4644 86.584 39.8124 86.36 38.9164 86.36H37.9924V92.072H38.9164ZM48.2798 92.48C48.7678 92.48 49.1718 92.42 49.4918 92.3C49.8198 92.18 50.1118 92.016 50.3678 91.808H50.4638L50.3558 93.056C50.1718 93.216 49.8838 93.36 49.4918 93.488C49.0998 93.616 48.6238 93.68 48.0638 93.68C47.3918 93.68 46.8078 93.532 46.3118 93.236C45.8158 92.94 45.4318 92.536 45.1598 92.024C44.8878 91.512 44.7518 90.932 44.7518 90.284C44.7518 89.636 44.8798 89.056 45.1358 88.544C45.3918 88.032 45.7478 87.628 46.2038 87.332C46.6678 87.036 47.2038 86.888 47.8118 86.888C48.5238 86.888 49.0838 87.02 49.4918 87.284C49.9078 87.548 50.1998 87.908 50.3678 88.364C50.5358 88.812 50.6198 89.316 50.6198 89.876C50.6198 89.956 50.6158 90.056 50.6078 90.176C50.5998 90.288 50.5918 90.384 50.5838 90.464H46.4798V90.5C46.5118 91.124 46.6758 91.612 46.9718 91.964C47.2678 92.308 47.7038 92.48 48.2798 92.48ZM47.8478 87.992C47.4238 87.992 47.1038 88.132 46.8878 88.412C46.6798 88.692 46.5518 89.096 46.5038 89.624H49.1078V89.42C49.1078 88.988 49.0038 88.644 48.7958 88.388C48.5958 88.124 48.2798 87.992 47.8478 87.992ZM52.0012 88.904C52.0012 88.464 52.1092 88.096 52.3252 87.8C52.5492 87.496 52.8492 87.268 53.2252 87.116C53.6092 86.964 54.0372 86.888 54.5092 86.888C54.9252 86.888 55.2812 86.928 55.5772 87.008C55.8732 87.088 56.1092 87.18 56.2852 87.284L56.3452 88.544H56.2372C56.0132 88.4 55.7532 88.276 55.4572 88.172C55.1612 88.068 54.8372 88.016 54.4852 88.016C54.2212 88.016 54.0052 88.06 53.8372 88.148C53.6692 88.236 53.5852 88.412 53.5852 88.676C53.5852 88.932 53.6732 89.112 53.8492 89.216C54.0252 89.312 54.3292 89.424 54.7612 89.552C55.1452 89.672 55.4892 89.8 55.7932 89.936C56.1052 90.064 56.3492 90.252 56.5252 90.5C56.7092 90.748 56.8012 91.1 56.8012 91.556C56.8012 92.252 56.5732 92.78 56.1172 93.14C55.6692 93.5 55.0612 93.68 54.2932 93.68C53.8212 93.68 53.4052 93.628 53.0452 93.524C52.6852 93.428 52.3732 93.304 52.1092 93.152L52.0132 91.844H52.1212C52.4252 92.06 52.7492 92.232 53.0932 92.36C53.4372 92.488 53.8052 92.552 54.1972 92.552C54.5492 92.552 54.8052 92.496 54.9652 92.384C55.1332 92.264 55.2172 92.08 55.2172 91.832C55.2172 91.592 55.1132 91.424 54.9052 91.328C54.6972 91.232 54.3612 91.112 53.8972 90.968C53.5052 90.856 53.1692 90.724 52.8892 90.572C52.6092 90.42 52.3892 90.216 52.2292 89.96C52.0772 89.704 52.0012 89.352 52.0012 88.904ZM59.286 86.48C58.998 86.48 58.762 86.4 58.578 86.24C58.394 86.08 58.302 85.86 58.302 85.58C58.302 85.292 58.394 85.068 58.578 84.908C58.762 84.748 58.998 84.668 59.286 84.668C59.582 84.668 59.818 84.748 59.994 84.908C60.17 85.068 60.258 85.292 60.258 85.58C60.258 85.86 60.17 86.08 59.994 86.24C59.818 86.4 59.582 86.48 59.286 86.48ZM60.114 87.056V93.5H58.458V88.292H57.486L57.642 87.056H60.114ZM66.0179 92.396C66.6339 92.396 67.0619 92.528 67.3019 92.792C67.5499 93.048 67.6739 93.424 67.6739 93.92C67.6739 94.536 67.4019 95.028 66.8579 95.396C66.3139 95.764 65.4419 95.948 64.2419 95.948C63.6499 95.948 63.1139 95.9 62.6339 95.804C62.1619 95.708 61.7859 95.584 61.5059 95.432L61.4099 94.244H61.5179C61.6619 94.356 61.8739 94.464 62.1539 94.568C62.4339 94.672 62.7539 94.756 63.1139 94.82C63.4819 94.892 63.8659 94.928 64.2659 94.928C64.9939 94.928 65.5059 94.868 65.8019 94.748C66.1059 94.628 66.2579 94.456 66.2579 94.232C66.2579 93.896 66.0619 93.728 65.6699 93.728H63.3299C62.8339 93.728 62.4339 93.628 62.1299 93.428C61.8259 93.22 61.6739 92.876 61.6739 92.396C61.6739 92.076 61.7699 91.812 61.9619 91.604C62.1619 91.388 62.4099 91.248 62.7059 91.184V91.112C62.3859 90.912 62.1379 90.648 61.9619 90.32C61.7859 89.992 61.6979 89.624 61.6979 89.216C61.6979 88.76 61.8059 88.36 62.0219 88.016C62.2459 87.664 62.5539 87.388 62.9459 87.188C63.3379 86.988 63.7979 86.888 64.3259 86.888C64.7339 86.888 65.0979 86.944 65.4179 87.056C65.7379 87.168 66.0139 87.328 66.2459 87.536H66.3179C66.4059 87.336 66.5739 87.184 66.8219 87.08C67.0779 86.976 67.3419 86.924 67.6139 86.924H68.1539L68.0699 88.208L66.7019 88.04L66.6779 88.088C66.8699 88.424 66.9659 88.8 66.9659 89.216C66.9659 89.672 66.8579 90.076 66.6419 90.428C66.4259 90.772 66.1179 91.044 65.7179 91.244C65.3259 91.444 64.8619 91.544 64.3259 91.544C64.1259 91.544 63.9459 91.536 63.7859 91.52C63.6339 91.504 63.5219 91.496 63.4499 91.496C63.0739 91.496 62.8859 91.64 62.8859 91.928C62.8859 92.24 63.0779 92.396 63.4619 92.396H66.0179ZM64.3259 87.908C63.9739 87.908 63.6979 88.028 63.4979 88.268C63.2979 88.5 63.1979 88.816 63.1979 89.216C63.1979 89.616 63.2979 89.936 63.4979 90.176C63.6979 90.408 63.9739 90.524 64.3259 90.524C64.6859 90.524 64.9659 90.408 65.1659 90.176C65.3659 89.936 65.4659 89.616 65.4659 89.216C65.4659 88.816 65.3659 88.5 65.1659 88.268C64.9659 88.028 64.6859 87.908 64.3259 87.908ZM72.0551 88.208C71.6391 88.208 71.3151 88.352 71.0831 88.64C70.8591 88.928 70.7471 89.308 70.7471 89.78V93.5H69.0911V87.056H70.5671L70.6751 88.1H70.7471C70.8591 87.796 71.0191 87.556 71.2271 87.38C71.4431 87.204 71.6831 87.08 71.9471 87.008C72.2191 86.928 72.4911 86.888 72.7631 86.888C73.4271 86.888 73.9351 87.072 74.2871 87.44C74.6391 87.808 74.8151 88.36 74.8151 89.096V93.5H73.1591V89.528C73.1591 89.072 73.0751 88.74 72.9071 88.532C72.7391 88.316 72.4551 88.208 72.0551 88.208ZM82.0573 86.888C82.7213 86.888 83.2933 87.036 83.7733 87.332C84.2533 87.628 84.6173 88.032 84.8653 88.544C85.1213 89.048 85.2493 89.628 85.2493 90.284C85.2493 90.932 85.1213 91.512 84.8653 92.024C84.6173 92.536 84.2533 92.94 83.7733 93.236C83.2933 93.532 82.7213 93.68 82.0573 93.68C81.3853 93.68 80.8093 93.532 80.3293 93.236C79.8493 92.94 79.4813 92.536 79.2253 92.024C78.9773 91.512 78.8533 90.932 78.8533 90.284C78.8533 89.628 78.9773 89.048 79.2253 88.544C79.4813 88.032 79.8493 87.628 80.3293 87.332C80.8093 87.036 81.3853 86.888 82.0573 86.888ZM82.0573 92.396C82.5213 92.396 82.8813 92.228 83.1373 91.892C83.4013 91.548 83.5333 91.012 83.5333 90.284C83.5333 89.548 83.4013 89.012 83.1373 88.676C82.8813 88.332 82.5213 88.16 82.0573 88.16C81.5853 88.16 81.2213 88.332 80.9653 88.676C80.7093 89.012 80.5813 89.548 80.5813 90.284C80.5813 91.012 80.7093 91.548 80.9653 91.892C81.2213 92.228 81.5853 92.396 82.0573 92.396ZM93.1341 90.284C93.1341 90.988 93.0101 91.596 92.7621 92.108C92.5221 92.612 92.1981 93 91.7901 93.272C91.3821 93.544 90.9221 93.68 90.4101 93.68C89.9461 93.68 89.5461 93.588 89.2101 93.404C88.8821 93.212 88.6421 92.968 88.4901 92.672H88.4301V95.876H86.7981V87.056H88.2981L88.4181 88.112H88.4781C88.6061 87.728 88.8501 87.428 89.2101 87.212C89.5701 86.996 89.9781 86.888 90.4341 86.888C90.9541 86.888 91.4181 87.016 91.8261 87.272C92.2341 87.52 92.5541 87.896 92.7861 88.4C93.0181 88.896 93.1341 89.524 93.1341 90.284ZM88.4541 89.924V90.632C88.4541 91.192 88.5901 91.628 88.8621 91.94C89.1421 92.244 89.5061 92.396 89.9541 92.396C90.3941 92.396 90.7461 92.224 91.0101 91.88C91.2741 91.528 91.4061 90.996 91.4061 90.284C91.4061 89.572 91.2741 89.04 91.0101 88.688C90.7461 88.336 90.3941 88.16 89.9541 88.16C89.5061 88.16 89.1421 88.316 88.8621 88.628C88.5901 88.932 88.4541 89.364 88.4541 89.924ZM94.5208 88.904C94.5208 88.464 94.6288 88.096 94.8448 87.8C95.0688 87.496 95.3688 87.268 95.7448 87.116C96.1288 86.964 96.5568 86.888 97.0288 86.888C97.4448 86.888 97.8008 86.928 98.0968 87.008C98.3928 87.088 98.6288 87.18 98.8048 87.284L98.8648 88.544H98.7568C98.5328 88.4 98.2728 88.276 97.9768 88.172C97.6808 88.068 97.3568 88.016 97.0048 88.016C96.7408 88.016 96.5248 88.06 96.3568 88.148C96.1888 88.236 96.1048 88.412 96.1048 88.676C96.1048 88.932 96.1928 89.112 96.3688 89.216C96.5448 89.312 96.8488 89.424 97.2808 89.552C97.6648 89.672 98.0088 89.8 98.3128 89.936C98.6248 90.064 98.8688 90.252 99.0448 90.5C99.2288 90.748 99.3208 91.1 99.3208 91.556C99.3208 92.252 99.0928 92.78 98.6368 93.14C98.1888 93.5 97.5808 93.68 96.8128 93.68C96.3408 93.68 95.9248 93.628 95.5648 93.524C95.2048 93.428 94.8928 93.304 94.6288 93.152L94.5328 91.844H94.6408C94.9448 92.06 95.2688 92.232 95.6128 92.36C95.9568 92.488 96.3248 92.552 96.7168 92.552C97.0688 92.552 97.3248 92.496 97.4848 92.384C97.6528 92.264 97.7368 92.08 97.7368 91.832C97.7368 91.592 97.6328 91.424 97.4248 91.328C97.2168 91.232 96.8808 91.112 96.4168 90.968C96.0248 90.856 95.6888 90.724 95.4088 90.572C95.1288 90.42 94.9088 90.216 94.7488 89.96C94.5968 89.704 94.5208 89.352 94.5208 88.904Z" fill="black"/>
<path d="M132 158C132 152.617 130.096 148.021 126.287 144.213C122.479 140.404 117.883 138.5 112.5 138.5C107.117 138.5 102.521 140.404 98.7129 144.213C94.9043 148.021 93 152.617 93 158C93 163.383 94.9043 167.979 98.7129 171.787C102.521 175.596 107.117 177.5 112.5 177.5C117.883 177.5 122.479 175.596 126.287 171.787C130.096 167.979 132 163.383 132 158ZM171 149.697V166.607C171 167.217 170.797 167.801 170.391 168.359C169.984 168.918 169.477 169.248 168.867 169.35L154.775 171.482C153.811 174.225 152.82 176.535 151.805 178.414C153.582 180.953 156.299 184.457 159.955 188.926C160.463 189.535 160.717 190.17 160.717 190.83C160.717 191.49 160.488 192.074 160.031 192.582C158.66 194.461 156.146 197.203 152.49 200.809C148.834 204.414 146.447 206.217 145.33 206.217C144.721 206.217 144.061 205.988 143.35 205.531L132.838 197.305C130.604 198.473 128.293 199.438 125.906 200.199C125.094 207.105 124.357 211.828 123.697 214.367C123.342 215.789 122.428 216.5 120.955 216.5H104.045C103.334 216.5 102.712 216.284 102.179 215.853C101.646 215.421 101.354 214.875 101.303 214.215L99.1699 200.199C96.6816 199.387 94.3965 198.447 92.3145 197.381L81.5742 205.531C81.0664 205.988 80.4316 206.217 79.6699 206.217C78.959 206.217 78.3242 205.938 77.7656 205.379C71.3672 199.59 67.1777 195.324 65.1973 192.582C64.8418 192.074 64.6641 191.49 64.6641 190.83C64.6641 190.221 64.8672 189.637 65.2734 189.078C66.0352 188.012 67.3301 186.323 69.1582 184.013C70.9863 181.702 72.3574 179.912 73.2715 178.643C71.9004 176.104 70.8594 173.59 70.1484 171.102L56.209 169.045C55.5488 168.943 55.0156 168.626 54.6094 168.093C54.2031 167.56 54 166.963 54 166.303L54 149.393C54 148.783 54.2031 148.199 54.6094 147.641C55.0156 147.082 55.498 146.752 56.0566 146.65L70.2246 144.518C70.9355 142.182 71.9258 139.846 73.1953 137.51C71.1641 134.615 68.4473 131.111 65.0449 126.998C64.5371 126.389 64.2832 125.779 64.2832 125.17C64.2832 124.662 64.5117 124.078 64.9688 123.418C66.2891 121.59 68.79 118.86 72.4717 115.229C76.1533 111.599 78.5527 109.783 79.6699 109.783C80.3301 109.783 80.9902 110.037 81.6504 110.545L92.1621 118.695C94.3965 117.527 96.707 116.563 99.0938 115.801C99.9063 108.895 100.643 104.172 101.303 101.633C101.658 100.211 102.572 99.5 104.045 99.5H120.955C121.666 99.5 122.288 99.7158 122.821 100.147C123.354 100.579 123.646 101.125 123.697 101.785L125.83 115.801C128.318 116.613 130.604 117.553 132.686 118.619L143.502 110.469C143.959 110.012 144.568 109.783 145.33 109.783C145.99 109.783 146.625 110.037 147.234 110.545C153.785 116.588 157.975 120.904 159.803 123.494C160.158 123.9 160.336 124.459 160.336 125.17C160.336 125.779 160.133 126.363 159.727 126.922C158.965 127.988 157.67 129.677 155.842 131.987C154.014 134.298 152.643 136.088 151.729 137.357C153.049 139.896 154.09 142.385 154.852 144.822L168.791 146.955C169.451 147.057 169.984 147.374 170.391 147.907C170.797 148.44 171 149.037 171 149.697Z" fill="#00B97F"/>
<rect x="81" y="126.5" width="63" height="63" rx="31.5" fill="white"/>
<g clip-path="url(#clip1_24453_173669)">
<g opacity="0.01">
<rect width="1.20833" height="1.20833" transform="translate(105.25 153.167)" fill="#1434CB"/>
</g>
<path fill-rule="evenodd" clip-rule="evenodd" d="M123.29 152.552L125.067 150.775C126.335 152.962 127 155.44 127 158.001C127 166 120.499 172.501 112.5 172.501C104.501 172.501 98 166 98 158.001C98 150.002 104.501 143.501 112.5 143.501C115.195 143.501 117.805 144.25 120.076 145.652L118.24 147.404C116.488 146.45 114.53 145.918 112.5 145.918C105.842 145.918 100.417 151.343 100.417 158.001C100.417 164.659 105.842 170.085 112.5 170.085C119.158 170.085 124.583 164.659 124.583 158.001C124.583 156.08 124.136 154.231 123.29 152.552ZM119.266 158.001C119.266 157.554 119.218 157.119 119.133 156.696L121.079 154.751C121.477 155.79 121.683 156.877 121.683 158.001C121.683 159.379 121.381 160.696 120.801 161.928C119.29 165.118 116.028 167.184 112.499 167.184C107.437 167.184 103.316 163.064 103.316 158.001C103.316 152.938 107.437 148.818 112.499 148.818C113.708 148.818 114.904 149.059 116.016 149.519L114.022 151.416C113.527 151.307 113.019 151.234 112.499 151.234C108.766 151.234 105.733 154.267 105.733 158.001C105.733 161.735 108.766 164.768 112.499 164.768C115.097 164.768 117.502 163.245 118.614 160.889C119.049 159.983 119.266 159.016 119.266 158.001Z" fill="#1434CB"/>
<path d="M127.001 148.335V145.918H124.584V143.501H122.167V146.631L112.501 156.297V154.376H110.084V160.418L116.126 160.418V158.001H114.204L123.871 148.335H127.001Z" fill="#1434CB"/>
</g>
<rect x="140" y="58.5" width="118" height="24" rx="12" fill="white"/>
<path d="M156.371 71.216C156.371 72.144 156.591 72.876 157.031 73.412C157.479 73.94 158.107 74.204 158.915 74.204C159.475 74.204 159.931 74.116 160.283 73.94C160.635 73.756 160.963 73.52 161.267 73.232H161.363L161.171 74.936C160.931 75.152 160.591 75.332 160.151 75.476C159.711 75.612 159.215 75.68 158.663 75.68C157.999 75.68 157.407 75.568 156.887 75.344C156.367 75.112 155.923 74.792 155.555 74.384C155.195 73.976 154.919 73.504 154.727 72.968C154.535 72.424 154.439 71.84 154.439 71.216C154.439 70.384 154.607 69.632 154.943 68.96C155.279 68.28 155.759 67.744 156.383 67.352C157.015 66.952 157.771 66.752 158.651 66.752C159.203 66.752 159.675 66.808 160.067 66.92C160.467 67.032 160.803 67.2 161.075 67.424L161.267 69.176H161.159C160.895 68.872 160.563 68.64 160.163 68.48C159.771 68.312 159.351 68.228 158.903 68.228C158.103 68.228 157.479 68.496 157.031 69.032C156.591 69.56 156.371 70.288 156.371 71.216ZM165.801 68.888C166.465 68.888 167.037 69.036 167.517 69.332C167.997 69.628 168.361 70.032 168.609 70.544C168.865 71.048 168.993 71.628 168.993 72.284C168.993 72.932 168.865 73.512 168.609 74.024C168.361 74.536 167.997 74.94 167.517 75.236C167.037 75.532 166.465 75.68 165.801 75.68C165.129 75.68 164.553 75.532 164.073 75.236C163.593 74.94 163.225 74.536 162.969 74.024C162.721 73.512 162.597 72.932 162.597 72.284C162.597 71.628 162.721 71.048 162.969 70.544C163.225 70.032 163.593 69.628 164.073 69.332C164.553 69.036 165.129 68.888 165.801 68.888ZM165.801 74.396C166.265 74.396 166.625 74.228 166.881 73.892C167.145 73.548 167.277 73.012 167.277 72.284C167.277 71.548 167.145 71.012 166.881 70.676C166.625 70.332 166.265 70.16 165.801 70.16C165.329 70.16 164.965 70.332 164.709 70.676C164.453 71.012 164.325 71.548 164.325 72.284C164.325 73.012 164.453 73.548 164.709 73.892C164.965 74.228 165.329 74.396 165.801 74.396ZM173.506 70.208C173.09 70.208 172.766 70.352 172.534 70.64C172.31 70.928 172.198 71.308 172.198 71.78V75.5H170.542V69.056H172.018L172.126 70.1H172.198C172.31 69.796 172.47 69.556 172.678 69.38C172.894 69.204 173.134 69.08 173.398 69.008C173.67 68.928 173.942 68.888 174.214 68.888C174.878 68.888 175.386 69.072 175.738 69.44C176.09 69.808 176.266 70.36 176.266 71.096V75.5H174.61V71.528C174.61 71.072 174.526 70.74 174.358 70.532C174.19 70.316 173.906 70.208 173.506 70.208ZM180.205 73.52C180.205 73.864 180.281 74.096 180.433 74.216C180.585 74.336 180.781 74.396 181.021 74.396C181.237 74.396 181.409 74.38 181.537 74.348C181.673 74.308 181.797 74.26 181.909 74.204H181.981L181.813 75.44C181.725 75.504 181.561 75.56 181.321 75.608C181.081 75.656 180.833 75.68 180.577 75.68C179.865 75.68 179.349 75.532 179.029 75.236C178.709 74.94 178.549 74.46 178.549 73.796V70.292H177.433L177.589 69.308L178.549 69.068V67.616L180.205 67.424V69.056H181.885L181.705 70.292H180.205V73.52ZM186.551 74.48C187.039 74.48 187.443 74.42 187.763 74.3C188.091 74.18 188.383 74.016 188.639 73.808H188.735L188.627 75.056C188.443 75.216 188.155 75.36 187.763 75.488C187.371 75.616 186.895 75.68 186.335 75.68C185.663 75.68 185.079 75.532 184.583 75.236C184.087 74.94 183.703 74.536 183.431 74.024C183.159 73.512 183.023 72.932 183.023 72.284C183.023 71.636 183.151 71.056 183.407 70.544C183.663 70.032 184.019 69.628 184.475 69.332C184.939 69.036 185.475 68.888 186.083 68.888C186.795 68.888 187.355 69.02 187.763 69.284C188.179 69.548 188.471 69.908 188.639 70.364C188.807 70.812 188.891 71.316 188.891 71.876C188.891 71.956 188.887 72.056 188.879 72.176C188.871 72.288 188.863 72.384 188.855 72.464H184.751V72.5C184.783 73.124 184.947 73.612 185.243 73.964C185.539 74.308 185.975 74.48 186.551 74.48ZM186.119 69.992C185.695 69.992 185.375 70.132 185.159 70.412C184.951 70.692 184.823 71.096 184.775 71.624H187.379V71.42C187.379 70.988 187.275 70.644 187.067 70.388C186.867 70.124 186.551 69.992 186.119 69.992ZM193.405 70.208C192.989 70.208 192.665 70.352 192.433 70.64C192.209 70.928 192.097 71.308 192.097 71.78V75.5H190.441V69.056H191.917L192.025 70.1H192.097C192.209 69.796 192.369 69.556 192.577 69.38C192.793 69.204 193.033 69.08 193.297 69.008C193.569 68.928 193.841 68.888 194.113 68.888C194.777 68.888 195.285 69.072 195.637 69.44C195.989 69.808 196.165 70.36 196.165 71.096V75.5H194.509V71.528C194.509 71.072 194.425 70.74 194.257 70.532C194.089 70.316 193.805 70.208 193.405 70.208ZM200.104 73.52C200.104 73.864 200.18 74.096 200.332 74.216C200.484 74.336 200.68 74.396 200.92 74.396C201.136 74.396 201.308 74.38 201.436 74.348C201.572 74.308 201.696 74.26 201.808 74.204H201.88L201.712 75.44C201.624 75.504 201.46 75.56 201.22 75.608C200.98 75.656 200.732 75.68 200.476 75.68C199.764 75.68 199.248 75.532 198.928 75.236C198.608 74.94 198.448 74.46 198.448 73.796V70.292H197.332L197.488 69.308L198.448 69.068V67.616L200.104 67.424V69.056H201.784L201.604 70.292H200.104V73.52ZM205.421 72.284C205.421 71.58 205.549 70.976 205.805 70.472C206.061 69.96 206.401 69.568 206.825 69.296C207.257 69.024 207.733 68.888 208.253 68.888C208.709 68.888 209.097 68.984 209.417 69.176C209.745 69.36 209.965 69.6 210.077 69.896H210.149V66.584H211.757V75.5H210.185L210.161 74.432H210.089C209.961 74.816 209.733 75.12 209.405 75.344C209.077 75.568 208.681 75.68 208.217 75.68C207.697 75.68 207.225 75.556 206.801 75.308C206.377 75.06 206.041 74.684 205.793 74.18C205.545 73.676 205.421 73.044 205.421 72.284ZM210.101 71.9C210.101 71.356 209.969 70.932 209.705 70.628C209.441 70.316 209.085 70.16 208.637 70.16C208.181 70.16 207.817 70.34 207.545 70.7C207.273 71.052 207.137 71.58 207.137 72.284C207.137 72.988 207.273 73.516 207.545 73.868C207.817 74.22 208.181 74.396 208.637 74.396C209.077 74.396 209.429 74.24 209.693 73.928C209.965 73.616 210.101 73.192 210.101 72.656V71.9ZM216.829 74.48C217.317 74.48 217.721 74.42 218.041 74.3C218.369 74.18 218.661 74.016 218.917 73.808H219.013L218.905 75.056C218.721 75.216 218.433 75.36 218.041 75.488C217.649 75.616 217.173 75.68 216.613 75.68C215.941 75.68 215.357 75.532 214.861 75.236C214.365 74.94 213.981 74.536 213.709 74.024C213.437 73.512 213.301 72.932 213.301 72.284C213.301 71.636 213.429 71.056 213.685 70.544C213.941 70.032 214.297 69.628 214.753 69.332C215.217 69.036 215.753 68.888 216.361 68.888C217.073 68.888 217.633 69.02 218.041 69.284C218.457 69.548 218.749 69.908 218.917 70.364C219.085 70.812 219.169 71.316 219.169 71.876C219.169 71.956 219.165 72.056 219.157 72.176C219.149 72.288 219.141 72.384 219.133 72.464H215.029V72.5C215.061 73.124 215.225 73.612 215.521 73.964C215.817 74.308 216.253 74.48 216.829 74.48ZM216.397 69.992C215.973 69.992 215.653 70.132 215.437 70.412C215.229 70.692 215.101 71.096 215.053 71.624H217.657V71.42C217.657 70.988 217.553 70.644 217.345 70.388C217.145 70.124 216.829 69.992 216.397 69.992ZM220.55 70.904C220.55 70.464 220.658 70.096 220.874 69.8C221.098 69.496 221.398 69.268 221.774 69.116C222.158 68.964 222.586 68.888 223.058 68.888C223.474 68.888 223.83 68.928 224.126 69.008C224.422 69.088 224.658 69.18 224.834 69.284L224.894 70.544H224.786C224.562 70.4 224.302 70.276 224.006 70.172C223.71 70.068 223.386 70.016 223.034 70.016C222.77 70.016 222.554 70.06 222.386 70.148C222.218 70.236 222.134 70.412 222.134 70.676C222.134 70.932 222.222 71.112 222.398 71.216C222.574 71.312 222.878 71.424 223.31 71.552C223.694 71.672 224.038 71.8 224.342 71.936C224.654 72.064 224.898 72.252 225.074 72.5C225.258 72.748 225.35 73.1 225.35 73.556C225.35 74.252 225.122 74.78 224.666 75.14C224.218 75.5 223.61 75.68 222.842 75.68C222.37 75.68 221.954 75.628 221.594 75.524C221.234 75.428 220.922 75.304 220.658 75.152L220.562 73.844H220.67C220.974 74.06 221.298 74.232 221.642 74.36C221.986 74.488 222.354 74.552 222.746 74.552C223.098 74.552 223.354 74.496 223.514 74.384C223.682 74.264 223.766 74.08 223.766 73.832C223.766 73.592 223.662 73.424 223.454 73.328C223.246 73.232 222.91 73.112 222.446 72.968C222.054 72.856 221.718 72.724 221.438 72.572C221.158 72.42 220.938 72.216 220.778 71.96C220.626 71.704 220.55 71.352 220.55 70.904ZM227.835 68.48C227.547 68.48 227.311 68.4 227.127 68.24C226.943 68.08 226.851 67.86 226.851 67.58C226.851 67.292 226.943 67.068 227.127 66.908C227.311 66.748 227.547 66.668 227.835 66.668C228.131 66.668 228.367 66.748 228.543 66.908C228.719 67.068 228.807 67.292 228.807 67.58C228.807 67.86 228.719 68.08 228.543 68.24C228.367 68.4 228.131 68.48 227.835 68.48ZM228.663 69.056V75.5H227.007V70.292H226.035L226.191 69.056H228.663ZM234.567 74.396C235.183 74.396 235.611 74.528 235.851 74.792C236.099 75.048 236.223 75.424 236.223 75.92C236.223 76.536 235.951 77.028 235.407 77.396C234.863 77.764 233.991 77.948 232.791 77.948C232.199 77.948 231.663 77.9 231.183 77.804C230.711 77.708 230.335 77.584 230.055 77.432L229.959 76.244H230.067C230.211 76.356 230.423 76.464 230.703 76.568C230.983 76.672 231.303 76.756 231.663 76.82C232.031 76.892 232.415 76.928 232.815 76.928C233.543 76.928 234.055 76.868 234.351 76.748C234.655 76.628 234.807 76.456 234.807 76.232C234.807 75.896 234.611 75.728 234.219 75.728H231.879C231.383 75.728 230.983 75.628 230.679 75.428C230.375 75.22 230.223 74.876 230.223 74.396C230.223 74.076 230.319 73.812 230.511 73.604C230.711 73.388 230.959 73.248 231.255 73.184V73.112C230.935 72.912 230.687 72.648 230.511 72.32C230.335 71.992 230.247 71.624 230.247 71.216C230.247 70.76 230.355 70.36 230.571 70.016C230.795 69.664 231.103 69.388 231.495 69.188C231.887 68.988 232.347 68.888 232.875 68.888C233.283 68.888 233.647 68.944 233.967 69.056C234.287 69.168 234.563 69.328 234.795 69.536H234.867C234.955 69.336 235.123 69.184 235.371 69.08C235.627 68.976 235.891 68.924 236.163 68.924H236.703L236.619 70.208L235.251 70.04L235.227 70.088C235.419 70.424 235.515 70.8 235.515 71.216C235.515 71.672 235.407 72.076 235.191 72.428C234.975 72.772 234.667 73.044 234.267 73.244C233.875 73.444 233.411 73.544 232.875 73.544C232.675 73.544 232.495 73.536 232.335 73.52C232.183 73.504 232.071 73.496 231.999 73.496C231.623 73.496 231.435 73.64 231.435 73.928C231.435 74.24 231.627 74.396 232.011 74.396H234.567ZM232.875 69.908C232.523 69.908 232.247 70.028 232.047 70.268C231.847 70.5 231.747 70.816 231.747 71.216C231.747 71.616 231.847 71.936 232.047 72.176C232.247 72.408 232.523 72.524 232.875 72.524C233.235 72.524 233.515 72.408 233.715 72.176C233.915 71.936 234.015 71.616 234.015 71.216C234.015 70.816 233.915 70.5 233.715 70.268C233.515 70.028 233.235 69.908 232.875 69.908ZM240.604 70.208C240.188 70.208 239.864 70.352 239.632 70.64C239.408 70.928 239.296 71.308 239.296 71.78V75.5H237.64V69.056H239.116L239.224 70.1H239.296C239.408 69.796 239.568 69.556 239.776 69.38C239.992 69.204 240.232 69.08 240.496 69.008C240.768 68.928 241.04 68.888 241.312 68.888C241.976 68.888 242.484 69.072 242.836 69.44C243.188 69.808 243.364 70.36 243.364 71.096V75.5H241.708V71.528C241.708 71.072 241.624 70.74 241.456 70.532C241.288 70.316 241.004 70.208 240.604 70.208Z" fill="black"/>
<rect x="284" y="191.5" width="81" height="24" rx="12" fill="white"/>
<path d="M308.096 208.5H305.252V199.932H308.096C308.992 199.932 309.772 200.092 310.436 200.412C311.1 200.724 311.612 201.2 311.972 201.84C312.34 202.472 312.524 203.264 312.524 204.216C312.524 205.168 312.34 205.964 311.972 206.604C311.612 207.236 311.1 207.712 310.436 208.032C309.772 208.344 308.992 208.5 308.096 208.5ZM308.012 207.072C308.908 207.072 309.56 206.848 309.968 206.4C310.384 205.952 310.592 205.224 310.592 204.216C310.592 203.208 310.384 202.48 309.968 202.032C309.56 201.584 308.908 201.36 308.012 201.36H307.088V207.072H308.012ZM317.375 207.48C317.863 207.48 318.267 207.42 318.587 207.3C318.915 207.18 319.207 207.016 319.463 206.808H319.559L319.451 208.056C319.267 208.216 318.979 208.36 318.587 208.488C318.195 208.616 317.719 208.68 317.159 208.68C316.487 208.68 315.903 208.532 315.407 208.236C314.911 207.94 314.527 207.536 314.255 207.024C313.983 206.512 313.847 205.932 313.847 205.284C313.847 204.636 313.975 204.056 314.231 203.544C314.487 203.032 314.843 202.628 315.299 202.332C315.763 202.036 316.299 201.888 316.907 201.888C317.619 201.888 318.179 202.02 318.587 202.284C319.003 202.548 319.295 202.908 319.463 203.364C319.631 203.812 319.715 204.316 319.715 204.876C319.715 204.956 319.711 205.056 319.703 205.176C319.695 205.288 319.687 205.384 319.679 205.464H315.575V205.5C315.607 206.124 315.771 206.612 316.067 206.964C316.363 207.308 316.799 207.48 317.375 207.48ZM316.943 202.992C316.519 202.992 316.199 203.132 315.983 203.412C315.775 203.692 315.647 204.096 315.599 204.624H318.203V204.42C318.203 203.988 318.099 203.644 317.891 203.388C317.691 203.124 317.375 202.992 316.943 202.992ZM321.097 203.904C321.097 203.464 321.205 203.096 321.421 202.8C321.645 202.496 321.945 202.268 322.321 202.116C322.705 201.964 323.133 201.888 323.605 201.888C324.021 201.888 324.377 201.928 324.673 202.008C324.969 202.088 325.205 202.18 325.381 202.284L325.441 203.544H325.333C325.109 203.4 324.849 203.276 324.553 203.172C324.257 203.068 323.933 203.016 323.581 203.016C323.317 203.016 323.101 203.06 322.933 203.148C322.765 203.236 322.681 203.412 322.681 203.676C322.681 203.932 322.769 204.112 322.945 204.216C323.121 204.312 323.425 204.424 323.857 204.552C324.241 204.672 324.585 204.8 324.889 204.936C325.201 205.064 325.445 205.252 325.621 205.5C325.805 205.748 325.897 206.1 325.897 206.556C325.897 207.252 325.669 207.78 325.213 208.14C324.765 208.5 324.157 208.68 323.389 208.68C322.917 208.68 322.501 208.628 322.141 208.524C321.781 208.428 321.469 208.304 321.205 208.152L321.109 206.844H321.217C321.521 207.06 321.845 207.232 322.189 207.36C322.533 207.488 322.901 207.552 323.293 207.552C323.645 207.552 323.901 207.496 324.061 207.384C324.229 207.264 324.313 207.08 324.313 206.832C324.313 206.592 324.209 206.424 324.001 206.328C323.793 206.232 323.457 206.112 322.993 205.968C322.601 205.856 322.265 205.724 321.985 205.572C321.705 205.42 321.485 205.216 321.325 204.96C321.173 204.704 321.097 204.352 321.097 203.904ZM328.382 201.48C328.094 201.48 327.858 201.4 327.674 201.24C327.49 201.08 327.398 200.86 327.398 200.58C327.398 200.292 327.49 200.068 327.674 199.908C327.858 199.748 328.094 199.668 328.382 199.668C328.678 199.668 328.914 199.748 329.09 199.908C329.266 200.068 329.354 200.292 329.354 200.58C329.354 200.86 329.266 201.08 329.09 201.24C328.914 201.4 328.678 201.48 328.382 201.48ZM329.21 202.056V208.5H327.554V203.292H326.582L326.738 202.056H329.21ZM335.114 207.396C335.73 207.396 336.158 207.528 336.398 207.792C336.646 208.048 336.77 208.424 336.77 208.92C336.77 209.536 336.498 210.028 335.954 210.396C335.41 210.764 334.538 210.948 333.338 210.948C332.746 210.948 332.21 210.9 331.73 210.804C331.258 210.708 330.882 210.584 330.602 210.432L330.506 209.244H330.614C330.758 209.356 330.97 209.464 331.25 209.568C331.53 209.672 331.85 209.756 332.21 209.82C332.578 209.892 332.962 209.928 333.362 209.928C334.09 209.928 334.602 209.868 334.898 209.748C335.202 209.628 335.354 209.456 335.354 209.232C335.354 208.896 335.158 208.728 334.766 208.728H332.426C331.93 208.728 331.53 208.628 331.226 208.428C330.922 208.22 330.77 207.876 330.77 207.396C330.77 207.076 330.866 206.812 331.058 206.604C331.258 206.388 331.506 206.248 331.802 206.184V206.112C331.482 205.912 331.234 205.648 331.058 205.32C330.882 204.992 330.794 204.624 330.794 204.216C330.794 203.76 330.902 203.36 331.118 203.016C331.342 202.664 331.65 202.388 332.042 202.188C332.434 201.988 332.894 201.888 333.422 201.888C333.83 201.888 334.194 201.944 334.514 202.056C334.834 202.168 335.11 202.328 335.342 202.536H335.414C335.502 202.336 335.67 202.184 335.918 202.08C336.174 201.976 336.438 201.924 336.71 201.924H337.25L337.166 203.208L335.798 203.04L335.774 203.088C335.966 203.424 336.062 203.8 336.062 204.216C336.062 204.672 335.954 205.076 335.738 205.428C335.522 205.772 335.214 206.044 334.814 206.244C334.422 206.444 333.958 206.544 333.422 206.544C333.222 206.544 333.042 206.536 332.882 206.52C332.73 206.504 332.618 206.496 332.546 206.496C332.17 206.496 331.982 206.64 331.982 206.928C331.982 207.24 332.174 207.396 332.558 207.396H335.114ZM333.422 202.908C333.07 202.908 332.794 203.028 332.594 203.268C332.394 203.5 332.294 203.816 332.294 204.216C332.294 204.616 332.394 204.936 332.594 205.176C332.794 205.408 333.07 205.524 333.422 205.524C333.782 205.524 334.062 205.408 334.262 205.176C334.462 204.936 334.562 204.616 334.562 204.216C334.562 203.816 334.462 203.5 334.262 203.268C334.062 203.028 333.782 202.908 333.422 202.908ZM341.151 203.208C340.735 203.208 340.411 203.352 340.179 203.64C339.955 203.928 339.843 204.308 339.843 204.78V208.5H338.187V202.056H339.663L339.771 203.1H339.843C339.955 202.796 340.115 202.556 340.323 202.38C340.539 202.204 340.779 202.08 341.043 202.008C341.315 201.928 341.587 201.888 341.859 201.888C342.523 201.888 343.031 202.072 343.383 202.44C343.735 202.808 343.911 203.36 343.911 204.096V208.5H342.255V204.528C342.255 204.072 342.171 203.74 342.003 203.532C341.835 203.316 341.551 203.208 341.151 203.208Z" fill="black"/>
<rect x="667" y="115.5" width="116" height="24" rx="12" fill="white"/>
<path d="M688.961 132.5H687.269L690.245 123.932H692.249L695.129 132.5H693.173L692.513 130.352H689.633L688.961 132.5ZM689.981 129.176H692.177L691.133 125.744H691.049L689.981 129.176ZM696.023 129.284C696.023 128.636 696.147 128.056 696.395 127.544C696.651 127.032 697.015 126.628 697.487 126.332C697.967 126.036 698.543 125.888 699.215 125.888C699.711 125.888 700.127 125.94 700.463 126.044C700.807 126.148 701.067 126.272 701.243 126.416L701.351 127.856H701.243C701.003 127.632 700.743 127.46 700.463 127.34C700.183 127.22 699.843 127.16 699.443 127.16C698.947 127.16 698.539 127.34 698.219 127.7C697.907 128.06 697.751 128.588 697.751 129.284C697.751 129.996 697.919 130.528 698.255 130.88C698.599 131.224 699.019 131.396 699.515 131.396C699.939 131.396 700.287 131.34 700.559 131.228C700.831 131.108 701.075 130.948 701.291 130.748H701.399L701.303 132.008C701.127 132.176 700.863 132.332 700.511 132.476C700.167 132.612 699.731 132.68 699.203 132.68C698.531 132.68 697.955 132.532 697.475 132.236C697.003 131.94 696.643 131.536 696.395 131.024C696.147 130.512 696.023 129.932 696.023 129.284ZM702.472 129.284C702.472 128.636 702.596 128.056 702.844 127.544C703.1 127.032 703.464 126.628 703.936 126.332C704.416 126.036 704.992 125.888 705.664 125.888C706.16 125.888 706.576 125.94 706.912 126.044C707.256 126.148 707.516 126.272 707.692 126.416L707.8 127.856H707.692C707.452 127.632 707.192 127.46 706.912 127.34C706.632 127.22 706.292 127.16 705.892 127.16C705.396 127.16 704.988 127.34 704.668 127.7C704.356 128.06 704.2 128.588 704.2 129.284C704.2 129.996 704.368 130.528 704.704 130.88C705.048 131.224 705.468 131.396 705.964 131.396C706.388 131.396 706.736 131.34 707.008 131.228C707.28 131.108 707.524 130.948 707.74 130.748H707.848L707.752 132.008C707.576 132.176 707.312 132.332 706.96 132.476C706.616 132.612 706.18 132.68 705.652 132.68C704.98 132.68 704.404 132.532 703.924 132.236C703.452 131.94 703.092 131.536 702.844 131.024C702.596 130.512 702.472 129.932 702.472 129.284ZM712.45 131.48C712.938 131.48 713.342 131.42 713.662 131.3C713.99 131.18 714.282 131.016 714.538 130.808H714.634L714.526 132.056C714.342 132.216 714.054 132.36 713.662 132.488C713.27 132.616 712.794 132.68 712.234 132.68C711.562 132.68 710.978 132.532 710.482 132.236C709.986 131.94 709.602 131.536 709.33 131.024C709.058 130.512 708.922 129.932 708.922 129.284C708.922 128.636 709.05 128.056 709.306 127.544C709.562 127.032 709.918 126.628 710.374 126.332C710.838 126.036 711.374 125.888 711.982 125.888C712.694 125.888 713.254 126.02 713.662 126.284C714.078 126.548 714.37 126.908 714.538 127.364C714.706 127.812 714.79 128.316 714.79 128.876C714.79 128.956 714.786 129.056 714.778 129.176C714.77 129.288 714.762 129.384 714.754 129.464H710.65V129.5C710.682 130.124 710.846 130.612 711.142 130.964C711.438 131.308 711.874 131.48 712.45 131.48ZM712.018 126.992C711.594 126.992 711.274 127.132 711.058 127.412C710.85 127.692 710.722 128.096 710.674 128.624H713.278V128.42C713.278 127.988 713.174 127.644 712.966 127.388C712.766 127.124 712.45 126.992 712.018 126.992ZM716.171 127.904C716.171 127.464 716.279 127.096 716.495 126.8C716.719 126.496 717.019 126.268 717.395 126.116C717.779 125.964 718.207 125.888 718.679 125.888C719.095 125.888 719.451 125.928 719.747 126.008C720.043 126.088 720.279 126.18 720.455 126.284L720.515 127.544H720.407C720.183 127.4 719.923 127.276 719.627 127.172C719.331 127.068 719.007 127.016 718.655 127.016C718.391 127.016 718.175 127.06 718.007 127.148C717.839 127.236 717.755 127.412 717.755 127.676C717.755 127.932 717.843 128.112 718.019 128.216C718.195 128.312 718.499 128.424 718.931 128.552C719.315 128.672 719.659 128.8 719.963 128.936C720.275 129.064 720.519 129.252 720.695 129.5C720.879 129.748 720.971 130.1 720.971 130.556C720.971 131.252 720.743 131.78 720.287 132.14C719.839 132.5 719.231 132.68 718.463 132.68C717.991 132.68 717.575 132.628 717.215 132.524C716.855 132.428 716.543 132.304 716.279 132.152L716.183 130.844H716.291C716.595 131.06 716.919 131.232 717.263 131.36C717.607 131.488 717.975 131.552 718.367 131.552C718.719 131.552 718.975 131.496 719.135 131.384C719.303 131.264 719.387 131.08 719.387 130.832C719.387 130.592 719.283 130.424 719.075 130.328C718.867 130.232 718.531 130.112 718.067 129.968C717.675 129.856 717.339 129.724 717.059 129.572C716.779 129.42 716.559 129.216 716.399 128.96C716.247 128.704 716.171 128.352 716.171 127.904ZM722.304 127.904C722.304 127.464 722.412 127.096 722.628 126.8C722.852 126.496 723.152 126.268 723.528 126.116C723.912 125.964 724.34 125.888 724.812 125.888C725.228 125.888 725.584 125.928 725.88 126.008C726.176 126.088 726.412 126.18 726.588 126.284L726.648 127.544H726.54C726.316 127.4 726.056 127.276 725.76 127.172C725.464 127.068 725.14 127.016 724.788 127.016C724.524 127.016 724.308 127.06 724.14 127.148C723.972 127.236 723.888 127.412 723.888 127.676C723.888 127.932 723.976 128.112 724.152 128.216C724.328 128.312 724.632 128.424 725.064 128.552C725.448 128.672 725.792 128.8 726.096 128.936C726.408 129.064 726.652 129.252 726.828 129.5C727.012 129.748 727.104 130.1 727.104 130.556C727.104 131.252 726.876 131.78 726.42 132.14C725.972 132.5 725.364 132.68 724.596 132.68C724.124 132.68 723.708 132.628 723.348 132.524C722.988 132.428 722.676 132.304 722.412 132.152L722.316 130.844H722.424C722.728 131.06 723.052 131.232 723.396 131.36C723.74 131.488 724.108 131.552 724.5 131.552C724.852 131.552 725.108 131.496 725.268 131.384C725.436 131.264 725.52 131.08 725.52 130.832C725.52 130.592 725.416 130.424 725.208 130.328C725 130.232 724.664 130.112 724.2 129.968C723.808 129.856 723.472 129.724 723.192 129.572C722.912 129.42 722.692 129.216 722.532 128.96C722.38 128.704 722.304 128.352 722.304 127.904ZM729.589 125.48C729.301 125.48 729.065 125.4 728.881 125.24C728.697 125.08 728.605 124.86 728.605 124.58C728.605 124.292 728.697 124.068 728.881 123.908C729.065 123.748 729.301 123.668 729.589 123.668C729.885 123.668 730.121 123.748 730.297 123.908C730.473 124.068 730.561 124.292 730.561 124.58C730.561 124.86 730.473 125.08 730.297 125.24C730.121 125.4 729.885 125.48 729.589 125.48ZM730.417 126.056V132.5H728.761V127.292H727.789L727.945 126.056H730.417ZM735.253 132.68C734.861 132.68 734.473 132.628 734.089 132.524C733.705 132.42 733.353 132.292 733.033 132.14C732.721 131.98 732.469 131.824 732.277 131.672V123.584H733.897V127.04H733.957C734.101 126.664 734.357 126.38 734.725 126.188C735.093 125.988 735.501 125.888 735.949 125.888C736.805 125.888 737.449 126.192 737.881 126.8C738.321 127.4 738.541 128.224 738.541 129.272C738.541 130 738.393 130.62 738.097 131.132C737.801 131.636 737.405 132.02 736.909 132.284C736.413 132.548 735.861 132.68 735.253 132.68ZM735.265 131.396C735.745 131.396 736.121 131.232 736.393 130.904C736.673 130.576 736.813 130.032 736.813 129.272C736.813 128.568 736.693 128.048 736.453 127.712C736.221 127.368 735.869 127.196 735.397 127.196C735.005 127.196 734.661 127.332 734.365 127.604C734.077 127.876 733.933 128.32 733.933 128.936V130.952C734.093 131.112 734.285 131.228 734.509 131.3C734.733 131.364 734.985 131.396 735.265 131.396ZM741.069 125.48C740.781 125.48 740.545 125.4 740.361 125.24C740.177 125.08 740.085 124.86 740.085 124.58C740.085 124.292 740.177 124.068 740.361 123.908C740.545 123.748 740.781 123.668 741.069 123.668C741.365 123.668 741.601 123.748 741.777 123.908C741.953 124.068 742.041 124.292 742.041 124.58C742.041 124.86 741.953 125.08 741.777 125.24C741.601 125.4 741.365 125.48 741.069 125.48ZM741.897 126.056V132.5H740.241V127.292H739.269L739.425 126.056H741.897ZM745.377 130.556C745.377 130.892 745.429 131.116 745.533 131.228C745.637 131.332 745.801 131.384 746.025 131.384C746.257 131.384 746.481 131.332 746.697 131.228H746.769L746.601 132.488C746.513 132.544 746.361 132.588 746.145 132.62C745.929 132.66 745.745 132.68 745.593 132.68C744.953 132.68 744.481 132.532 744.177 132.236C743.881 131.94 743.733 131.448 743.733 130.76V123.584H745.377V130.556ZM748.952 125.48C748.664 125.48 748.428 125.4 748.244 125.24C748.06 125.08 747.968 124.86 747.968 124.58C747.968 124.292 748.06 124.068 748.244 123.908C748.428 123.748 748.664 123.668 748.952 123.668C749.248 123.668 749.484 123.748 749.66 123.908C749.836 124.068 749.924 124.292 749.924 124.58C749.924 124.86 749.836 125.08 749.66 125.24C749.484 125.4 749.248 125.48 748.952 125.48ZM749.78 126.056V132.5H748.124V127.292H747.152L747.308 126.056H749.78ZM753.764 130.52C753.764 130.864 753.84 131.096 753.992 131.216C754.144 131.336 754.34 131.396 754.58 131.396C754.796 131.396 754.968 131.38 755.096 131.348C755.232 131.308 755.356 131.26 755.468 131.204H755.54L755.372 132.44C755.284 132.504 755.12 132.56 754.88 132.608C754.64 132.656 754.392 132.68 754.136 132.68C753.424 132.68 752.908 132.532 752.588 132.236C752.268 131.94 752.108 131.46 752.108 130.796V127.292H750.992L751.148 126.308L752.108 126.068V124.616L753.764 124.424V126.056H755.444L755.264 127.292H753.764V130.52ZM758.202 126.056L759.678 130.64H759.714L761.166 126.056H762.678L760.302 132.728C760.126 133.224 759.93 133.636 759.714 133.964C759.506 134.292 759.246 134.536 758.934 134.696C758.63 134.864 758.246 134.948 757.782 134.948C757.59 134.948 757.378 134.928 757.146 134.888C756.922 134.856 756.742 134.804 756.606 134.732L756.45 133.448H756.534C756.678 133.528 756.834 133.6 757.002 133.664C757.178 133.728 757.374 133.76 757.59 133.76C757.91 133.76 758.15 133.672 758.31 133.496C758.478 133.328 758.626 133.064 758.754 132.704L756.342 126.056H758.202Z" fill="black"/>
<rect x="590" y="184.5" width="95" height="24" rx="12" fill="white"/>
<path d="M611.287 201.5V192.932H614.899C615.443 192.932 615.915 193.044 616.315 193.268C616.723 193.492 617.039 193.804 617.263 194.204C617.487 194.596 617.599 195.052 617.599 195.572C617.599 196.156 617.455 196.664 617.167 197.096C616.887 197.528 616.507 197.828 616.027 197.996L618.019 201.5H615.919L614.191 198.224H613.123V201.5H611.287ZM614.395 194.288H613.123V196.952H614.395C614.819 196.952 615.139 196.852 615.355 196.652C615.571 196.444 615.679 196.1 615.679 195.62C615.679 195.164 615.571 194.828 615.355 194.612C615.139 194.396 614.819 194.288 614.395 194.288ZM622.708 200.48C623.196 200.48 623.6 200.42 623.92 200.3C624.248 200.18 624.54 200.016 624.796 199.808H624.892L624.784 201.056C624.6 201.216 624.312 201.36 623.92 201.488C623.528 201.616 623.052 201.68 622.492 201.68C621.82 201.68 621.236 201.532 620.74 201.236C620.244 200.94 619.86 200.536 619.588 200.024C619.316 199.512 619.18 198.932 619.18 198.284C619.18 197.636 619.308 197.056 619.564 196.544C619.82 196.032 620.176 195.628 620.632 195.332C621.096 195.036 621.632 194.888 622.24 194.888C622.952 194.888 623.512 195.02 623.92 195.284C624.336 195.548 624.628 195.908 624.796 196.364C624.964 196.812 625.048 197.316 625.048 197.876C625.048 197.956 625.044 198.056 625.036 198.176C625.028 198.288 625.02 198.384 625.012 198.464H620.908V198.5C620.94 199.124 621.104 199.612 621.4 199.964C621.696 200.308 622.132 200.48 622.708 200.48ZM622.276 195.992C621.852 195.992 621.532 196.132 621.316 196.412C621.108 196.692 620.98 197.096 620.932 197.624H623.536V197.42C623.536 196.988 623.432 196.644 623.224 196.388C623.024 196.124 622.708 195.992 622.276 195.992ZM626.429 196.904C626.429 196.464 626.537 196.096 626.753 195.8C626.977 195.496 627.277 195.268 627.653 195.116C628.037 194.964 628.465 194.888 628.937 194.888C629.353 194.888 629.709 194.928 630.005 195.008C630.301 195.088 630.537 195.18 630.713 195.284L630.773 196.544H630.665C630.441 196.4 630.181 196.276 629.885 196.172C629.589 196.068 629.265 196.016 628.913 196.016C628.649 196.016 628.433 196.06 628.265 196.148C628.097 196.236 628.013 196.412 628.013 196.676C628.013 196.932 628.101 197.112 628.277 197.216C628.453 197.312 628.757 197.424 629.189 197.552C629.573 197.672 629.917 197.8 630.221 197.936C630.533 198.064 630.777 198.252 630.953 198.5C631.137 198.748 631.229 199.1 631.229 199.556C631.229 200.252 631.001 200.78 630.545 201.14C630.097 201.5 629.489 201.68 628.721 201.68C628.249 201.68 627.833 201.628 627.473 201.524C627.113 201.428 626.801 201.304 626.537 201.152L626.441 199.844H626.549C626.853 200.06 627.177 200.232 627.521 200.36C627.865 200.488 628.233 200.552 628.625 200.552C628.977 200.552 629.233 200.496 629.393 200.384C629.561 200.264 629.645 200.08 629.645 199.832C629.645 199.592 629.541 199.424 629.333 199.328C629.125 199.232 628.789 199.112 628.325 198.968C627.933 198.856 627.597 198.724 627.317 198.572C627.037 198.42 626.817 198.216 626.657 197.96C626.505 197.704 626.429 197.352 626.429 196.904ZM635.946 200.48C636.434 200.48 636.838 200.42 637.158 200.3C637.486 200.18 637.778 200.016 638.034 199.808H638.13L638.022 201.056C637.838 201.216 637.55 201.36 637.158 201.488C636.766 201.616 636.29 201.68 635.73 201.68C635.058 201.68 634.474 201.532 633.978 201.236C633.482 200.94 633.098 200.536 632.826 200.024C632.554 199.512 632.418 198.932 632.418 198.284C632.418 197.636 632.546 197.056 632.802 196.544C633.058 196.032 633.414 195.628 633.87 195.332C634.334 195.036 634.87 194.888 635.478 194.888C636.19 194.888 636.75 195.02 637.158 195.284C637.574 195.548 637.866 195.908 638.034 196.364C638.202 196.812 638.286 197.316 638.286 197.876C638.286 197.956 638.282 198.056 638.274 198.176C638.266 198.288 638.258 198.384 638.25 198.464H634.146V198.5C634.178 199.124 634.342 199.612 634.638 199.964C634.934 200.308 635.37 200.48 635.946 200.48ZM635.514 195.992C635.09 195.992 634.77 196.132 634.554 196.412C634.346 196.692 634.218 197.096 634.17 197.624H636.774V197.42C636.774 196.988 636.67 196.644 636.462 196.388C636.262 196.124 635.946 195.992 635.514 195.992ZM639.895 196.82L640.075 195.464C640.299 195.296 640.615 195.16 641.023 195.056C641.439 194.944 641.847 194.888 642.247 194.888C643.103 194.888 643.739 195.044 644.155 195.356C644.579 195.66 644.791 196.2 644.791 196.976V201.5H643.339L643.219 200.504H643.147C643.003 200.888 642.787 201.18 642.499 201.38C642.211 201.58 641.827 201.68 641.347 201.68C641.003 201.68 640.691 201.62 640.411 201.5C640.131 201.372 639.907 201.18 639.739 200.924C639.571 200.66 639.487 200.32 639.487 199.904C639.487 199.488 639.575 199.152 639.751 198.896C639.927 198.632 640.167 198.428 640.471 198.284C640.783 198.132 641.143 198.02 641.551 197.948C642.079 197.852 642.451 197.772 642.667 197.708C642.891 197.644 643.047 197.572 643.135 197.492V197.108C643.135 196.756 643.051 196.5 642.883 196.34C642.715 196.172 642.391 196.088 641.911 196.088C641.519 196.088 641.159 196.156 640.831 196.292C640.503 196.42 640.219 196.596 639.979 196.82H639.895ZM643.135 199.4V198.344C642.983 198.472 642.603 198.6 641.995 198.728C641.739 198.784 641.527 198.88 641.359 199.016C641.191 199.152 641.107 199.38 641.107 199.7C641.107 200.004 641.187 200.22 641.347 200.348C641.507 200.468 641.711 200.528 641.959 200.528C642.359 200.528 642.655 200.416 642.847 200.192C643.039 199.96 643.135 199.696 643.135 199.4ZM649.517 196.496C649.101 196.496 648.785 196.632 648.569 196.904C648.361 197.176 648.257 197.6 648.257 198.176V201.5H646.601V195.056H648.005L648.125 196.244H648.197C648.277 195.876 648.405 195.596 648.581 195.404C648.757 195.204 648.961 195.068 649.193 194.996C649.425 194.924 649.669 194.888 649.925 194.888C650.045 194.888 650.157 194.896 650.261 194.912C650.365 194.928 650.445 194.944 650.501 194.96L650.285 196.664H650.177C650.105 196.624 650.017 196.588 649.913 196.556C649.809 196.516 649.677 196.496 649.517 196.496ZM651.273 198.284C651.273 197.636 651.397 197.056 651.645 196.544C651.901 196.032 652.265 195.628 652.737 195.332C653.217 195.036 653.793 194.888 654.465 194.888C654.961 194.888 655.377 194.94 655.713 195.044C656.057 195.148 656.317 195.272 656.493 195.416L656.601 196.856H656.493C656.253 196.632 655.993 196.46 655.713 196.34C655.433 196.22 655.093 196.16 654.693 196.16C654.197 196.16 653.789 196.34 653.469 196.7C653.157 197.06 653.001 197.588 653.001 198.284C653.001 198.996 653.169 199.528 653.505 199.88C653.849 200.224 654.269 200.396 654.765 200.396C655.189 200.396 655.537 200.34 655.809 200.228C656.081 200.108 656.325 199.948 656.541 199.748H656.649L656.553 201.008C656.377 201.176 656.113 201.332 655.761 201.476C655.417 201.612 654.981 201.68 654.453 201.68C653.781 201.68 653.205 201.532 652.725 201.236C652.253 200.94 651.893 200.536 651.645 200.024C651.397 199.512 651.273 198.932 651.273 198.284ZM661.116 196.208C660.7 196.208 660.376 196.352 660.144 196.64C659.92 196.928 659.808 197.308 659.808 197.78V201.5H658.152V192.584H659.808V196.004H659.88C659.984 195.7 660.136 195.468 660.336 195.308C660.544 195.148 660.776 195.04 661.032 194.984C661.288 194.92 661.552 194.888 661.824 194.888C662.488 194.888 662.996 195.072 663.348 195.44C663.7 195.808 663.876 196.36 663.876 197.096V201.5H662.22V197.528C662.22 197.072 662.136 196.74 661.968 196.532C661.8 196.316 661.516 196.208 661.116 196.208Z" fill="black"/>
<path d="M322.299 104.723C323.604 99.5397 322.882 94.6527 320.134 90.0625C317.386 85.4723 313.418 82.5253 308.228 81.2215C303.039 79.9176 298.147 80.6383 293.552 83.3834C288.957 86.1286 286.007 90.093 284.701 95.2767C283.396 100.46 284.118 105.347 286.866 109.937C289.614 114.528 293.582 117.475 298.772 118.779C303.961 120.082 308.853 119.362 313.448 116.617C318.043 113.871 320.993 109.907 322.299 104.723ZM361.909 106.174L357.809 122.459C357.661 123.046 357.323 123.559 356.796 123.998C356.269 124.438 355.7 124.633 355.088 124.583L340.986 123.224C339.39 125.631 337.876 127.616 336.441 129.179C337.539 132.055 339.308 136.087 341.749 141.276C342.091 141.986 342.182 142.659 342.022 143.295C341.862 143.93 341.5 144.437 340.936 144.816C339.159 146.293 336.071 148.325 331.672 150.911C327.273 153.498 324.535 154.656 323.458 154.385C322.87 154.237 322.289 153.857 321.715 153.245L313.576 142.777C311.138 143.36 308.677 143.73 306.192 143.885C303.734 150.339 301.879 154.709 300.627 156.994C299.939 158.277 298.886 158.74 297.466 158.384L281.164 154.288C280.479 154.115 279.931 153.757 279.522 153.212C279.112 152.667 278.963 152.071 279.074 151.423L280.417 137.409C278.215 136.024 276.24 134.566 274.491 133.034L262.161 138.282C261.561 138.599 260.894 138.665 260.159 138.481C259.474 138.308 258.93 137.886 258.527 137.213C253.762 130.088 250.758 124.965 249.513 121.845C249.294 121.27 249.264 120.664 249.424 120.029C249.572 119.442 249.909 118.929 250.436 118.489C251.429 117.647 253.087 116.334 255.41 114.552C257.732 112.77 259.488 111.378 260.677 110.377C259.971 107.6 259.577 104.927 259.495 102.358L246.556 97.0014C245.944 96.7437 245.507 96.3089 245.244 95.697C244.982 95.0851 244.931 94.4613 245.091 93.8256L249.191 77.5411C249.339 76.9542 249.677 76.441 250.204 76.0015C250.731 75.562 251.276 75.361 251.839 75.3985L266.014 76.7764C267.266 74.6991 268.787 72.6894 270.578 70.7474C269.321 67.468 267.552 63.4356 265.269 58.6504C264.927 57.9406 264.83 57.2922 264.978 56.7054C265.101 56.2164 265.463 55.7094 266.064 55.1843C267.78 53.7437 270.853 51.7209 275.283 49.1162C279.712 46.5114 282.465 45.3444 283.542 45.615C284.179 45.7749 284.754 46.1793 285.267 46.8282L293.424 57.2232C295.861 56.6397 298.323 56.2702 300.808 56.1148C303.266 49.6609 305.121 45.2913 306.373 43.0061C307.061 41.7229 308.114 41.2597 309.534 41.6164L325.836 45.7124C326.521 45.8846 327.069 46.2431 327.478 46.7879C327.887 47.3328 328.037 47.9292 327.925 48.5772L326.583 62.5909C328.785 63.9761 330.76 65.4343 332.509 66.9655L344.912 61.7367C345.464 61.4073 346.106 61.3348 346.841 61.5193C347.477 61.6792 348.028 62.0775 348.492 62.7141C353.342 70.1202 356.334 75.2917 357.468 78.2285C357.712 78.7059 357.748 79.2868 357.576 79.9715C357.428 80.5583 357.091 81.0715 356.564 81.511C355.571 82.3535 353.913 83.6658 351.59 85.4481C349.268 87.2303 347.512 88.622 346.323 89.6232C346.98 92.3881 347.38 95.0365 347.524 97.5683L360.444 102.999C361.056 103.256 361.493 103.691 361.756 104.303C362.018 104.915 362.069 105.539 361.909 106.174Z" fill="#FCA3D9"/>
<rect x="271" y="67.5" width="64" height="64" rx="32" fill="white"/>
<g clip-path="url(#clip2_24453_173669)">
<g opacity="0.01">
<rect width="1.20833" height="1.20833" transform="translate(289.708 106.75)" fill="#1434CB"/>
</g>
<path fill-rule="evenodd" clip-rule="evenodd" d="M310.604 85.3539C311.076 84.882 311.841 84.882 312.313 85.3539L317.146 90.1872C317.618 90.6591 317.618 91.4242 317.146 91.8961L295.042 114H288.5V107.458L310.604 85.3539ZM290.917 108.459V111.583H294.041L290.917 108.459ZM292.625 106.75L295.75 109.875L310.354 95.2709L307.229 92.1464L292.625 106.75ZM314.583 91.0417L312.062 93.562L308.938 90.4376L311.458 87.9172L314.583 91.0417Z" fill="#1434CB"/>
</g>
<path d="M249.894 193.966C249.332 188.613 246.959 184.241 242.774 180.85C238.589 177.46 233.82 176.045 228.466 176.607C223.113 177.168 218.741 179.541 215.35 183.726C211.96 187.911 210.545 192.681 211.107 198.034C211.668 203.388 214.041 207.76 218.226 211.15C222.411 214.541 227.181 215.955 232.534 215.394C237.888 214.832 242.26 212.459 245.65 208.274C249.041 204.089 250.455 199.32 249.894 193.966ZM287.815 181.641L289.579 198.459C289.643 199.065 289.501 199.667 289.156 200.265C288.81 200.863 288.339 201.244 287.744 201.409L273.951 205C273.278 207.827 272.534 210.229 271.72 212.203C273.752 214.543 276.82 217.745 280.922 221.808C281.491 222.361 281.809 222.965 281.878 223.622C281.947 224.279 281.781 224.883 281.379 225.436C280.212 227.448 277.998 230.437 274.737 234.404C271.477 238.371 269.292 240.413 268.18 240.53C267.574 240.593 266.894 240.435 266.139 240.054L254.827 232.969C252.726 234.364 250.529 235.564 248.235 236.571C248.147 243.524 247.907 248.298 247.516 250.892C247.31 252.343 246.476 253.146 245.011 253.299L228.193 255.063C227.486 255.137 226.845 254.987 226.269 254.614C225.694 254.24 225.347 253.728 225.227 253.076L221.644 239.36C219.085 238.811 216.714 238.115 214.532 237.272L204.701 246.498C204.243 247.005 203.636 247.299 202.878 247.378C202.171 247.452 201.511 247.241 200.897 246.744C193.93 241.653 189.318 237.848 187.063 235.327C186.656 234.859 186.418 234.297 186.35 233.641C186.286 233.035 186.427 232.433 186.773 231.835C187.419 230.695 188.531 228.88 190.108 226.392C191.685 223.903 192.862 221.98 193.639 220.622C192.01 218.24 190.713 215.848 189.746 213.448L175.668 212.856C175.001 212.824 174.438 212.564 173.978 212.076C173.518 211.588 173.254 211.016 173.185 210.359L171.422 193.541C171.358 192.935 171.499 192.333 171.845 191.735C172.191 191.138 172.636 190.759 173.181 190.6L187.049 187.001C187.513 184.603 188.254 182.177 189.273 179.721C186.951 177.054 183.883 173.853 180.07 170.117C179.502 169.564 179.186 168.984 179.122 168.378C179.069 167.873 179.236 167.269 179.621 166.564C180.744 164.609 182.946 161.633 186.229 157.638C189.512 153.643 191.709 151.587 192.82 151.471C193.477 151.402 194.16 151.585 194.869 152.022L206.174 159.031C208.274 157.637 210.471 156.436 212.766 155.429C212.853 148.476 213.093 143.702 213.485 141.108C213.69 139.657 214.525 138.855 215.99 138.701L232.807 136.937C233.515 136.863 234.156 137.013 234.731 137.387C235.306 137.76 235.654 138.273 235.773 138.924L239.356 152.641C241.916 153.189 244.286 153.885 246.468 154.729L256.375 145.495C256.782 144.992 257.365 144.702 258.122 144.622C258.779 144.553 259.436 144.74 260.095 145.181C267.241 150.508 271.858 154.364 273.946 156.749C274.342 157.116 274.577 157.653 274.651 158.36C274.715 158.966 274.573 159.568 274.228 160.166C273.581 161.306 272.47 163.12 270.892 165.609C269.315 168.097 268.138 170.021 267.362 171.379C268.94 173.766 270.235 176.132 271.246 178.477L285.332 179.144C285.999 179.176 286.563 179.436 287.022 179.924C287.482 180.412 287.746 180.984 287.815 181.641Z" fill="#1F1F1F"/>
<rect x="199" y="164.5" width="63" height="63" rx="31.5" fill="white"/>
<g clip-path="url(#clip3_24453_173669)">
<g opacity="0.01">
<rect width="1.20834" height="1.20833" transform="translate(236.542 185.125)" fill="#1434CB"/>
</g>
<path fill-rule="evenodd" clip-rule="evenodd" d="M225.667 209.676V210.5H239.202C242.404 210.5 245 207.904 245 204.702C245 200.04 239.775 197.285 235.928 199.918L235.341 200.32L236.706 202.314L237.293 201.912C239.536 200.377 242.583 201.983 242.583 204.702C242.583 206.57 241.069 208.083 239.202 208.083H226.463C226.262 208.65 225.994 209.184 225.667 209.676Z" fill="#1434CB"/>
<path fill-rule="evenodd" clip-rule="evenodd" d="M240.27 184.216C240.826 183.66 241.728 183.66 242.284 184.216C242.84 184.772 242.84 185.674 242.284 186.23L226.771 201.742C226.215 202.299 225.314 202.299 224.757 201.742C224.201 201.186 224.201 200.284 224.757 199.728L240.27 184.216ZM243.993 182.507C242.493 181.007 240.061 181.007 238.561 182.507L223.049 198.019C222.242 198.826 221.869 199.902 221.93 200.958C221.578 200.877 221.211 200.833 220.833 200.833C218.164 200.833 216 202.997 216 205.667L216 210.5H220.833C223.503 210.5 225.667 208.336 225.667 205.667C225.667 205.289 225.623 204.922 225.542 204.57C226.597 204.631 227.674 204.258 228.48 203.451L243.993 187.939C245.493 186.439 245.493 184.007 243.993 182.507ZM223.25 205.667C223.25 207.001 222.168 208.083 220.833 208.083H218.417L218.417 205.667C218.417 204.332 219.499 203.25 220.833 203.25C222.168 203.25 223.25 204.332 223.25 205.667Z" fill="#1434CB"/>
</g>
<path d="M554.382 172.687C552.086 167.746 548.377 164.34 543.255 162.468C538.134 160.596 533.101 160.808 528.159 163.103C523.216 165.398 519.808 169.106 517.936 174.226C516.063 179.346 516.275 184.377 518.571 189.318C520.867 194.259 524.576 197.665 529.698 199.537C534.819 201.409 539.852 201.197 544.794 198.902C549.737 196.607 553.145 192.899 555.017 187.779C556.89 182.659 556.678 177.628 554.382 172.687ZM586.652 148.436L593.865 163.958C594.125 164.518 594.187 165.14 594.052 165.826C593.918 166.512 593.592 167.032 593.076 167.385L581.046 175.352C581.33 178.28 581.406 180.823 581.275 182.981C583.99 184.554 587.979 186.612 593.243 189.155C593.969 189.498 594.473 189.972 594.755 190.578C595.036 191.184 595.075 191.817 594.872 192.478C594.415 194.788 593.276 198.377 591.457 203.245C589.638 208.114 588.215 210.787 587.189 211.263C586.63 211.523 585.926 211.595 585.078 211.478L571.917 208.409C570.364 210.434 568.653 212.305 566.787 214.022C568.987 220.708 570.325 225.357 570.802 227.969C571.082 229.426 570.546 230.468 569.194 231.096L553.666 238.307C553.013 238.61 552.35 238.677 551.676 238.508C551.003 238.339 550.502 237.963 550.174 237.378L542.237 225.423C539.605 225.738 537.106 225.85 534.74 225.759L528.354 237.82C528.083 238.456 527.597 238.937 526.898 239.261C526.245 239.565 525.543 239.579 524.792 239.304C516.447 236.719 510.781 234.59 507.793 232.917C507.25 232.602 506.837 232.142 506.556 231.536C506.296 230.977 506.233 230.354 506.368 229.668C506.613 228.364 507.081 226.262 507.774 223.362C508.468 220.461 508.963 218.234 509.261 216.679C506.919 214.933 504.891 213.069 503.176 211.088L489.5 215.144C488.85 215.333 488.225 215.269 487.625 214.952C487.024 214.636 486.583 214.175 486.301 213.569L479.088 198.047C478.828 197.487 478.766 196.865 478.901 196.179C479.035 195.493 479.338 194.984 479.807 194.653L491.907 186.653C491.563 184.206 491.476 181.64 491.645 178.954C488.546 177.163 484.556 175.105 479.678 172.78C478.951 172.438 478.458 171.987 478.198 171.427C477.982 170.961 477.943 170.328 478.081 169.527C478.513 167.286 479.645 163.714 481.477 158.811C483.309 153.908 484.738 151.218 485.764 150.742C486.37 150.461 487.084 150.412 487.907 150.597L501.036 153.596C502.589 151.571 504.3 149.7 506.166 147.983C503.966 141.297 502.628 136.648 502.151 134.036C501.871 132.579 502.407 131.537 503.759 130.909L519.287 123.698C519.94 123.395 520.603 123.328 521.277 123.497C521.95 123.666 522.451 124.042 522.779 124.627L530.716 136.582C533.348 136.267 535.847 136.155 538.213 136.246L544.669 124.153C544.894 123.538 545.356 123.068 546.055 122.744C546.661 122.462 547.352 122.425 548.129 122.631C556.721 125.385 562.409 127.56 565.193 129.158C565.692 129.379 566.094 129.816 566.397 130.469C566.657 131.028 566.72 131.651 566.585 132.337C566.34 133.641 565.872 135.743 565.179 138.643C564.485 141.544 563.99 143.771 563.692 145.326C565.988 147.094 568.005 148.934 569.744 150.847L583.453 146.861C584.103 146.672 584.728 146.736 585.328 147.053C585.929 147.369 586.37 147.83 586.652 148.436Z" fill="#00B97F"/>
<rect x="505" y="149.5" width="63" height="63" rx="31.5" fill="white"/>
<g clip-path="url(#clip4_24453_173669)">
<g opacity="0.01">
<rect width="1.17477" height="1.20833" transform="translate(542.374 187.042)" fill="#1434CB"/>
</g>
<path fill-rule="evenodd" clip-rule="evenodd" d="M532.976 174.958V172.542C535.567 172.542 537.675 174.71 537.675 177.375H535.325C535.325 176.042 534.271 174.958 532.976 174.958ZM541.808 184.625L550.597 193.666L548.814 195.5L540.024 186.459C540.676 185.91 541.274 185.296 541.808 184.625Z" fill="#1434CB"/>
<path d="M532.976 167.708C527.794 167.708 523.578 172.045 523.578 177.375C523.578 182.705 527.794 187.042 532.976 187.042C538.158 187.042 542.374 182.705 542.374 177.375C542.374 172.045 538.158 167.708 532.976 167.708ZM532.976 184.625C529.089 184.625 525.927 181.373 525.927 177.375C525.927 173.377 529.089 170.125 532.976 170.125C536.863 170.125 540.024 173.377 540.024 177.375C540.024 181.373 536.863 184.625 532.976 184.625Z" fill="#1434CB"/>
</g>
<path d="M644.785 84.2413C642.644 79.1921 639.03 75.6392 633.943 73.5823C628.857 71.5255 623.79 71.5682 618.742 73.7103C613.695 75.8525 610.143 79.4677 608.087 84.5558C606.031 89.644 606.073 94.7127 608.215 99.7618C610.356 104.811 613.97 108.364 619.057 110.421C624.143 112.478 629.21 112.435 634.258 110.293C639.305 108.151 642.857 104.535 644.913 99.4473C646.969 94.3591 646.927 89.2904 644.785 84.2413ZM678.053 60.9327L684.78 76.7946C685.023 77.3662 685.065 77.9948 684.906 78.6805C684.747 79.3661 684.402 79.8778 683.871 80.2156L671.506 87.8242C671.692 90.7804 671.683 93.3418 671.478 95.5084C674.154 97.1827 678.096 99.3883 683.302 102.125C684.021 102.494 684.512 102.989 684.774 103.608C685.037 104.227 685.055 104.866 684.828 105.524C684.29 107.832 683.024 111.405 681.03 116.242C679.036 121.079 677.515 123.72 676.467 124.164C675.896 124.407 675.186 124.455 674.337 124.309L661.208 120.776C659.577 122.761 657.794 124.585 655.859 126.25C657.845 133.051 659.033 137.774 659.425 140.419C659.657 141.894 659.083 142.924 657.702 143.51L641.845 150.24C641.178 150.523 640.509 150.568 639.837 150.375C639.166 150.183 638.675 149.787 638.364 149.188L630.789 136.89C628.132 137.118 625.615 137.146 623.239 136.974L616.41 148.894C616.116 149.524 615.612 149.991 614.897 150.295C614.231 150.578 613.524 150.568 612.778 150.266C604.475 147.383 598.85 145.049 595.902 143.265C595.366 142.93 594.967 142.453 594.705 141.833C594.462 141.262 594.42 140.633 594.579 139.948C594.869 138.644 595.412 136.545 596.207 133.65C597.002 130.755 597.575 128.531 597.927 126.976C595.632 125.14 593.655 123.196 591.999 121.145L578.11 124.764C577.45 124.931 576.824 124.845 576.231 124.507C575.638 124.168 575.21 123.69 574.947 123.07L568.22 107.208C567.977 106.637 567.935 106.008 568.094 105.323C568.253 104.637 568.574 104.135 569.057 103.818L581.494 96.1789C581.232 93.7048 581.231 91.1196 581.492 88.4233C578.436 86.5165 574.494 84.311 569.667 81.8067C568.949 81.4372 568.468 80.9666 568.226 80.395C568.024 79.9187 568.006 79.28 568.172 78.4789C568.682 76.2386 569.942 72.683 571.95 67.8121C573.957 62.9411 575.485 60.2834 576.533 59.8388C577.152 59.5761 577.872 59.5515 578.693 59.7651L591.792 63.227C593.423 61.2422 595.206 59.4177 597.141 57.7534C595.155 50.9519 593.967 46.229 593.575 43.5846C593.343 42.1094 593.917 41.0787 595.298 40.4927L611.155 33.7631C611.822 33.4801 612.491 33.435 613.163 33.6277C613.834 33.8204 614.325 34.2163 614.636 34.8153L622.211 47.1133C624.868 46.8852 627.385 46.857 629.761 47.0288L636.661 35.0791C636.908 34.4685 637.388 34.0116 638.103 33.7085C638.722 33.4458 639.418 33.4313 640.191 33.6652C648.738 36.7266 654.384 39.1082 657.129 40.8099C657.624 41.0496 658.012 41.5028 658.295 42.1697C658.538 42.7413 658.58 43.3699 658.421 44.0555C658.131 45.359 657.588 47.4581 656.793 50.3529C655.998 53.2478 655.425 55.4725 655.073 57.0271C657.321 58.8833 659.287 60.8031 660.971 62.7864L674.89 59.2396C675.55 59.0721 676.176 59.1576 676.769 59.4961C677.362 59.8346 677.79 60.3135 678.053 60.9327Z" fill="#1434CB"/>
<rect x="595" y="60.5" width="63" height="63" rx="31.5" fill="white"/>
<g clip-path="url(#clip5_24453_173669)">
<g opacity="0.01">
<rect width="1.20833" height="1.20833" transform="translate(626.5 77.5)" fill="#1434CB"/>
</g>
<path d="M616.247 81.6463C621.91 76.1179 631.09 76.1179 636.753 81.6463C642.329 87.0898 642.414 95.8632 637.01 101.409L636.753 101.667L635.044 99.9983C639.763 95.3913 639.763 87.9218 635.044 83.3147C630.325 78.7077 622.675 78.7077 617.956 83.3147C613.317 87.8437 613.238 95.1389 617.72 99.7616L617.956 99.9983L616.247 101.667C610.584 96.1382 610.584 87.1748 616.247 81.6463Z" fill="#1434CB"/>
<path d="M626.5 82.3334C629.17 82.3334 631.333 84.5364 631.333 87.254C631.333 87.6787 631.281 88.0908 631.181 88.4839L632.542 88.4842C634.544 88.4842 636.167 90.1365 636.167 92.1747C636.167 94.2129 634.544 95.8652 632.542 95.8652H630.913L630.682 96.2724L632.658 99.7553C633.659 101.52 633.065 103.778 631.331 104.797C629.663 105.777 627.547 105.254 626.498 103.641C625.489 105.192 623.494 105.735 621.859 104.903L621.665 104.797C619.995 103.815 619.382 101.686 620.233 99.9534L620.338 99.7553L622.312 96.2736L622.08 95.8652H620.458C618.456 95.8652 616.833 94.2129 616.833 92.1747C616.833 90.1365 618.456 88.4842 620.458 88.4842L621.819 88.4839C621.72 88.0908 621.667 87.6787 621.667 87.254C621.667 84.5364 623.831 82.3334 626.5 82.3334ZM623.304 90.9457L620.458 90.9445C619.791 90.9445 619.25 91.4953 619.25 92.1747C619.25 92.8056 619.717 93.3255 620.318 93.3966L620.458 93.4049H623.474L625.103 96.2726L622.466 100.921L622.395 101.054C622.133 101.587 622.29 102.232 622.702 102.556L622.81 102.63L622.94 102.703C623.437 102.956 624.038 102.824 624.393 102.404L624.483 102.283L626.498 99.1846L628.513 102.283C628.863 102.821 629.569 102.991 630.123 102.666C630.659 102.351 630.869 101.679 630.629 101.114L630.565 100.986L627.892 96.2729L629.517 93.4049H632.542C633.209 93.4049 633.75 92.8541 633.75 92.1747C633.75 91.5438 633.284 91.0239 632.683 90.9528L632.542 90.9445L629.696 90.9457C628.844 91.7106 627.725 92.1747 626.5 92.1747C625.275 92.1747 624.156 91.7106 623.304 90.9457ZM626.5 84.7937C625.165 84.7937 624.083 85.8952 624.083 87.254C624.083 88.6128 625.165 89.7144 626.5 89.7144C627.835 89.7144 628.917 88.6128 628.917 87.254C628.917 85.8952 627.835 84.7937 626.5 84.7937Z" fill="#1434CB"/>
</g>
<path d="M437.327 141.448C437.175 136.111 435.159 131.609 431.276 127.941C427.394 124.273 422.786 122.515 417.451 122.667C412.116 122.82 407.614 124.838 403.947 128.721C400.279 132.605 398.521 137.216 398.673 142.552C398.825 147.889 400.842 152.391 404.724 156.06C408.606 159.728 413.214 161.486 418.549 161.333C423.884 161.181 428.386 159.163 432.053 155.279C435.721 151.395 437.479 146.785 437.327 141.448ZM475.747 132.112L476.224 148.878C476.241 149.482 476.056 150.067 475.669 150.632C475.282 151.197 474.788 151.539 474.187 151.657L460.28 154.17C459.401 156.916 458.485 159.235 457.531 161.127C459.364 163.594 462.156 166.991 465.905 171.318C466.426 171.907 466.695 172.53 466.714 173.184C466.733 173.839 466.523 174.424 466.084 174.94C464.778 176.842 462.364 179.632 458.841 183.31C455.319 186.988 453.004 188.843 451.897 188.875C451.293 188.892 450.633 188.684 449.915 188.251L439.265 180.393C437.083 181.614 434.82 182.636 432.476 183.459C431.865 190.329 431.269 195.032 430.686 197.568C430.374 198.988 429.488 199.718 428.028 199.76L411.268 200.239C410.563 200.259 409.941 200.063 409.4 199.65C408.859 199.237 408.555 198.704 408.486 198.051L405.977 184.216C403.488 183.48 401.197 182.614 399.103 181.615L388.688 190C388.197 190.468 387.574 190.712 386.82 190.734C386.115 190.754 385.478 190.495 384.909 189.957C378.404 184.399 374.131 180.288 372.091 177.625C371.725 177.132 371.532 176.558 371.513 175.904C371.496 175.299 371.681 174.715 372.068 174.149C372.793 173.071 374.029 171.36 375.776 169.017C377.522 166.675 378.831 164.861 379.701 163.577C378.271 161.098 377.168 158.636 376.393 156.189L362.52 154.544C361.862 154.462 361.325 154.163 360.907 153.646C360.49 153.128 360.271 152.543 360.253 151.888L359.776 135.123C359.759 134.519 359.944 133.934 360.331 133.369C360.718 132.803 361.187 132.462 361.738 132.346L375.72 129.83C376.359 127.494 377.274 125.15 378.467 122.798C376.372 119.986 373.581 116.589 370.093 112.607C369.572 112.017 369.303 111.421 369.286 110.816C369.272 110.313 369.482 109.727 369.916 109.06C371.173 107.21 373.575 104.433 377.122 100.729C380.669 97.0252 382.996 95.1574 384.103 95.1257C384.757 95.107 385.419 95.3401 386.087 95.8249L396.735 103.608C398.917 102.387 401.18 101.365 403.524 100.542C404.135 93.6717 404.731 88.9686 405.314 86.4326C405.626 85.0129 406.512 84.2821 407.972 84.2404L424.732 83.7617C425.437 83.7415 426.059 83.9379 426.6 84.3507C427.141 84.7636 427.445 85.2965 427.514 85.9496L430.023 99.7849C432.512 100.52 434.803 101.387 436.897 102.385L447.388 93.9981C447.828 93.5321 448.426 93.2883 449.181 93.2667C449.835 93.248 450.471 93.4818 451.089 93.968C457.752 99.7737 462.026 103.935 463.911 106.45C464.275 106.843 464.467 107.392 464.487 108.097C464.504 108.701 464.319 109.286 463.932 109.851C463.207 110.93 461.971 112.641 460.225 114.983C458.478 117.326 457.169 119.139 456.299 120.424C457.679 122.904 458.781 125.341 459.605 127.736L473.481 129.456C474.138 129.538 474.675 129.838 475.093 130.355C475.51 130.872 475.729 131.458 475.747 132.112Z" fill="#FCC015"/>
<rect x="386.5" y="110.5" width="63" height="63" rx="31.5" fill="white"/>
<g clip-path="url(#clip6_24453_173669)">
<g opacity="0.01">
<rect width="1.17477" height="1.20833" transform="translate(414.476 134.749)" fill="#1434CB"/>
</g>
<path fill-rule="evenodd" clip-rule="evenodd" d="M422.604 154.559L426.128 146.101L423.969 145.149L420.444 153.607L422.604 154.559ZM416.136 150.458L418.83 147.688L417.169 145.979L413.644 149.604C413.186 150.076 413.186 150.841 413.644 151.313L417.169 154.938L418.83 153.229L416.136 150.458ZM429.261 150.458L426.567 147.688L428.228 145.979L431.753 149.604C432.211 150.076 432.211 150.841 431.753 151.313L428.228 154.938L426.567 153.229L429.261 150.458Z" fill="#1434CB"/>
<path fill-rule="evenodd" clip-rule="evenodd" d="M414.476 133.542C414.476 134.876 413.424 135.958 412.126 135.958C410.829 135.958 409.777 134.876 409.777 133.542C409.777 132.207 410.829 131.125 412.126 131.125C413.424 131.125 414.476 132.207 414.476 133.542ZM416.825 133.542C416.825 136.211 414.721 138.375 412.126 138.375C409.531 138.375 407.427 136.211 407.427 133.542C407.427 130.872 409.531 128.708 412.126 128.708C414.721 128.708 416.825 130.872 416.825 133.542ZM412.126 142C408.882 142 406.252 144.705 406.252 148.042V152.875H403.903V148.042C403.903 143.37 407.585 139.583 412.126 139.583C414.945 139.583 417.432 141.042 418.914 143.265C418.106 143.395 417.346 143.744 416.719 144.276C415.643 142.889 413.986 142 412.126 142Z" fill="#1434CB"/>
</g>
</g>
<defs>
<clipPath id="clip0_24453_173669">
<rect width="800" height="291" fill="white"/>
</clipPath>
<clipPath id="clip1_24453_173669">
<rect width="29" height="29" fill="white" transform="translate(98 143.5)"/>
</clipPath>
<clipPath id="clip2_24453_173669">
<rect width="29" height="29" fill="white" transform="translate(288.5 85)"/>
</clipPath>
<clipPath id="clip3_24453_173669">
<rect width="29" height="29" fill="white" transform="translate(216 181.5)"/>
</clipPath>
<clipPath id="clip4_24453_173669">
<rect width="28.1944" height="29" fill="white" transform="translate(522.403 166.5)"/>
</clipPath>
<clipPath id="clip5_24453_173669">
<rect width="29" height="29" fill="white" transform="translate(612 77.5)"/>
</clipPath>
<clipPath id="clip6_24453_173669">
<rect width="28.1944" height="29" fill="white" transform="translate(403.903 127.5)"/>
</clipPath>
</defs>
</svg>
