<svg width="800" height="342" viewBox="0 0 800 342" fill="none" xmlns="http://www.w3.org/2000/svg">
<rect width="800" height="342" fill="#F0F0F0"/>
<mask id="path-1-inside-1_24453_173713" fill="white">
<path d="M30.5 48C30.5 39.1634 37.6634 32 46.5 32H753.5C762.337 32 769.5 39.1634 769.5 48V200C769.5 208.837 762.337 216 753.5 216H46.5C37.6634 216 30.5 208.837 30.5 200V48Z"/>
</mask>
<path d="M30.5 48C30.5 39.1634 37.6634 32 46.5 32H753.5C762.337 32 769.5 39.1634 769.5 48V200C769.5 208.837 762.337 216 753.5 216H46.5C37.6634 216 30.5 208.837 30.5 200V48Z" fill="white"/>
<path d="M30.5 32H769.5H30.5ZM769.5 200C769.5 210.493 760.993 219 750.5 219H49.5C39.0066 219 30.5 210.493 30.5 200C30.5 207.18 37.6634 213 46.5 213H753.5C762.337 213 769.5 207.18 769.5 200ZM30.5 216V32V216ZM769.5 32V216V32Z" fill="#1F1F1F" mask="url(#path-1-inside-1_24453_173713)"/>
<g clip-path="url(#clip0_24453_173713)">
<rect x="63.5" y="56" width="125" height="110" rx="12" fill="#FCA3D9"/>
<path d="M106.644 96.3591C106.644 90.5281 111.371 85.8011 117.202 85.8011H134.798C140.629 85.8011 145.356 90.5281 145.356 96.3591V96.3591C145.356 102.19 140.629 106.917 134.798 106.917H117.202C111.371 106.917 106.644 102.19 106.644 96.3591V96.3591Z" fill="#1434CB"/>
<path d="M134.798 103.838C130.668 103.838 127.319 100.489 127.319 96.3592C127.319 92.2288 130.668 88.8805 134.798 88.8805C138.928 88.8805 142.277 92.2288 142.277 96.3592C142.277 100.489 138.928 103.838 134.798 103.838Z" fill="white"/>
<path d="M134.798 103.838C130.668 103.838 127.319 100.489 127.319 96.3592C127.319 92.2288 130.668 88.8805 134.798 88.8805C138.928 88.8805 142.277 92.2288 142.277 96.3592C142.277 100.489 138.928 103.838 134.798 103.838Z" stroke="white" stroke-width="0.879838"/>
<path d="M117.202 115.523H134.798C140.386 115.523 144.917 120.053 144.917 125.641C144.917 131.229 140.386 135.759 134.798 135.759H117.202C111.614 135.759 107.083 131.229 107.083 125.641C107.083 120.053 111.614 115.523 117.202 115.523Z" fill="white"/>
<path d="M117.202 115.523H134.798C140.386 115.523 144.917 120.053 144.917 125.641C144.917 131.229 140.386 135.759 134.798 135.759H117.202C111.614 135.759 107.083 131.229 107.083 125.641C107.083 120.053 111.614 115.523 117.202 115.523Z" stroke="#F0F0F0" stroke-width="0.879838"/>
<path d="M117.201 133.12C113.071 133.12 109.723 129.771 109.723 125.641C109.723 121.511 113.071 118.162 117.201 118.162C121.332 118.162 124.68 121.511 124.68 125.641C124.68 129.771 121.332 133.12 117.201 133.12Z" fill="#1F1F1F"/>
<path d="M117.201 133.12C113.071 133.12 109.723 129.771 109.723 125.641C109.723 121.511 113.071 118.162 117.201 118.162C121.332 118.162 124.68 121.511 124.68 125.641C124.68 129.771 121.332 133.12 117.201 133.12Z" stroke="#1F1F1F" stroke-width="0.879838"/>
<path d="M89.996 184.716C89.996 185.644 90.216 186.376 90.656 186.912C91.104 187.44 91.732 187.704 92.54 187.704C93.1 187.704 93.556 187.616 93.908 187.44C94.26 187.256 94.588 187.02 94.892 186.732H94.988L94.796 188.436C94.556 188.652 94.216 188.832 93.776 188.976C93.336 189.112 92.84 189.18 92.288 189.18C91.624 189.18 91.032 189.068 90.512 188.844C89.992 188.612 89.548 188.292 89.18 187.884C88.82 187.476 88.544 187.004 88.352 186.468C88.16 185.924 88.064 185.34 88.064 184.716C88.064 183.884 88.232 183.132 88.568 182.46C88.904 181.78 89.384 181.244 90.008 180.852C90.64 180.452 91.396 180.252 92.276 180.252C92.828 180.252 93.3 180.308 93.692 180.42C94.092 180.532 94.428 180.7 94.7 180.924L94.892 182.676H94.784C94.52 182.372 94.188 182.14 93.788 181.98C93.396 181.812 92.976 181.728 92.528 181.728C91.728 181.728 91.104 181.996 90.656 182.532C90.216 183.06 89.996 183.788 89.996 184.716ZM99.4265 182.388C100.09 182.388 100.662 182.536 101.142 182.832C101.622 183.128 101.986 183.532 102.234 184.044C102.49 184.548 102.618 185.128 102.618 185.784C102.618 186.432 102.49 187.012 102.234 187.524C101.986 188.036 101.622 188.44 101.142 188.736C100.662 189.032 100.09 189.18 99.4265 189.18C98.7545 189.18 98.1785 189.032 97.6985 188.736C97.2185 188.44 96.8505 188.036 96.5945 187.524C96.3465 187.012 96.2225 186.432 96.2225 185.784C96.2225 185.128 96.3465 184.548 96.5945 184.044C96.8505 183.532 97.2185 183.128 97.6985 182.832C98.1785 182.536 98.7545 182.388 99.4265 182.388ZM99.4265 187.896C99.8905 187.896 100.25 187.728 100.506 187.392C100.77 187.048 100.902 186.512 100.902 185.784C100.902 185.048 100.77 184.512 100.506 184.176C100.25 183.832 99.8905 183.66 99.4265 183.66C98.9545 183.66 98.5905 183.832 98.3345 184.176C98.0785 184.512 97.9505 185.048 97.9505 185.784C97.9505 186.512 98.0785 187.048 98.3345 187.392C98.5905 187.728 98.9545 187.896 99.4265 187.896ZM107.071 183.708C106.663 183.708 106.351 183.852 106.135 184.14C105.927 184.42 105.823 184.792 105.823 185.256V189H104.167V182.556H105.643L105.751 183.6H105.823C105.991 183.144 106.251 182.828 106.603 182.652C106.963 182.476 107.351 182.388 107.767 182.388C108.727 182.388 109.327 182.792 109.567 183.6H109.639C109.743 183.296 109.903 183.056 110.119 182.88C110.335 182.704 110.579 182.58 110.851 182.508C111.131 182.428 111.407 182.388 111.679 182.388C112.999 182.388 113.659 183.128 113.659 184.608V189H112.003V185.028C112.003 184.572 111.927 184.24 111.775 184.032C111.631 183.816 111.367 183.708 110.983 183.708C110.575 183.708 110.267 183.848 110.059 184.128C109.851 184.408 109.747 184.784 109.747 185.256V189H108.091V185.028C108.091 184.572 108.015 184.24 107.863 184.032C107.719 183.816 107.455 183.708 107.071 183.708ZM121.816 185.784C121.816 186.488 121.692 187.096 121.444 187.608C121.204 188.112 120.88 188.5 120.472 188.772C120.064 189.044 119.604 189.18 119.092 189.18C118.628 189.18 118.228 189.088 117.892 188.904C117.564 188.712 117.324 188.468 117.172 188.172H117.112V191.376H115.48V182.556H116.98L117.1 183.612H117.16C117.288 183.228 117.532 182.928 117.892 182.712C118.252 182.496 118.66 182.388 119.116 182.388C119.636 182.388 120.1 182.516 120.508 182.772C120.916 183.02 121.236 183.396 121.468 183.9C121.7 184.396 121.816 185.024 121.816 185.784ZM117.136 185.424V186.132C117.136 186.692 117.272 187.128 117.544 187.44C117.824 187.744 118.188 187.896 118.636 187.896C119.076 187.896 119.428 187.724 119.692 187.38C119.956 187.028 120.088 186.496 120.088 185.784C120.088 185.072 119.956 184.54 119.692 184.188C119.428 183.836 119.076 183.66 118.636 183.66C118.188 183.66 117.824 183.816 117.544 184.128C117.272 184.432 117.136 184.864 117.136 185.424ZM126.262 182.388C126.926 182.388 127.498 182.536 127.978 182.832C128.458 183.128 128.822 183.532 129.07 184.044C129.326 184.548 129.454 185.128 129.454 185.784C129.454 186.432 129.326 187.012 129.07 187.524C128.822 188.036 128.458 188.44 127.978 188.736C127.498 189.032 126.926 189.18 126.262 189.18C125.59 189.18 125.014 189.032 124.534 188.736C124.054 188.44 123.686 188.036 123.43 187.524C123.182 187.012 123.058 186.432 123.058 185.784C123.058 185.128 123.182 184.548 123.43 184.044C123.686 183.532 124.054 183.128 124.534 182.832C125.014 182.536 125.59 182.388 126.262 182.388ZM126.262 187.896C126.726 187.896 127.086 187.728 127.342 187.392C127.606 187.048 127.738 186.512 127.738 185.784C127.738 185.048 127.606 184.512 127.342 184.176C127.086 183.832 126.726 183.66 126.262 183.66C125.79 183.66 125.426 183.832 125.17 184.176C124.914 184.512 124.786 185.048 124.786 185.784C124.786 186.512 124.914 187.048 125.17 187.392C125.426 187.728 125.79 187.896 126.262 187.896ZM133.967 183.708C133.551 183.708 133.227 183.852 132.995 184.14C132.771 184.428 132.659 184.808 132.659 185.28V189H131.003V182.556H132.479L132.587 183.6H132.659C132.771 183.296 132.931 183.056 133.139 182.88C133.355 182.704 133.595 182.58 133.859 182.508C134.131 182.428 134.403 182.388 134.675 182.388C135.339 182.388 135.847 182.572 136.199 182.94C136.551 183.308 136.727 183.86 136.727 184.596V189H135.071V185.028C135.071 184.572 134.987 184.24 134.819 184.032C134.651 183.816 134.367 183.708 133.967 183.708ZM141.758 187.98C142.246 187.98 142.65 187.92 142.97 187.8C143.298 187.68 143.59 187.516 143.846 187.308H143.942L143.834 188.556C143.65 188.716 143.362 188.86 142.97 188.988C142.578 189.116 142.102 189.18 141.542 189.18C140.87 189.18 140.286 189.032 139.79 188.736C139.294 188.44 138.91 188.036 138.638 187.524C138.366 187.012 138.23 186.432 138.23 185.784C138.23 185.136 138.358 184.556 138.614 184.044C138.87 183.532 139.226 183.128 139.682 182.832C140.146 182.536 140.682 182.388 141.29 182.388C142.002 182.388 142.562 182.52 142.97 182.784C143.386 183.048 143.678 183.408 143.846 183.864C144.014 184.312 144.098 184.816 144.098 185.376C144.098 185.456 144.094 185.556 144.086 185.676C144.078 185.788 144.07 185.884 144.062 185.964H139.958V186C139.99 186.624 140.154 187.112 140.45 187.464C140.746 187.808 141.182 187.98 141.758 187.98ZM141.326 183.492C140.902 183.492 140.582 183.632 140.366 183.912C140.158 184.192 140.03 184.596 139.982 185.124H142.586V184.92C142.586 184.488 142.482 184.144 142.274 183.888C142.074 183.624 141.758 183.492 141.326 183.492ZM148.612 183.708C148.196 183.708 147.872 183.852 147.64 184.14C147.416 184.428 147.304 184.808 147.304 185.28V189H145.648V182.556H147.124L147.232 183.6H147.304C147.416 183.296 147.576 183.056 147.784 182.88C148 182.704 148.24 182.58 148.504 182.508C148.776 182.428 149.048 182.388 149.32 182.388C149.984 182.388 150.492 182.572 150.844 182.94C151.196 183.308 151.372 183.86 151.372 184.596V189H149.716V185.028C149.716 184.572 149.632 184.24 149.464 184.032C149.296 183.816 149.012 183.708 148.612 183.708ZM155.311 187.02C155.311 187.364 155.387 187.596 155.539 187.716C155.691 187.836 155.887 187.896 156.127 187.896C156.343 187.896 156.515 187.88 156.643 187.848C156.779 187.808 156.903 187.76 157.015 187.704H157.087L156.919 188.94C156.831 189.004 156.667 189.06 156.427 189.108C156.187 189.156 155.939 189.18 155.683 189.18C154.971 189.18 154.455 189.032 154.135 188.736C153.815 188.44 153.655 187.96 153.655 187.296V183.792H152.539L152.695 182.808L153.655 182.568V181.116L155.311 180.924V182.556H156.991L156.811 183.792H155.311V187.02ZM158.273 184.404C158.273 183.964 158.381 183.596 158.597 183.3C158.821 182.996 159.121 182.768 159.497 182.616C159.881 182.464 160.309 182.388 160.781 182.388C161.197 182.388 161.553 182.428 161.849 182.508C162.145 182.588 162.381 182.68 162.557 182.784L162.617 184.044H162.509C162.285 183.9 162.025 183.776 161.729 183.672C161.433 183.568 161.109 183.516 160.757 183.516C160.493 183.516 160.277 183.56 160.109 183.648C159.941 183.736 159.857 183.912 159.857 184.176C159.857 184.432 159.945 184.612 160.121 184.716C160.297 184.812 160.601 184.924 161.033 185.052C161.417 185.172 161.761 185.3 162.065 185.436C162.377 185.564 162.621 185.752 162.797 186C162.981 186.248 163.073 186.6 163.073 187.056C163.073 187.752 162.845 188.28 162.389 188.64C161.941 189 161.333 189.18 160.565 189.18C160.093 189.18 159.677 189.128 159.317 189.024C158.957 188.928 158.645 188.804 158.381 188.652L158.285 187.344H158.393C158.697 187.56 159.021 187.732 159.365 187.86C159.709 187.988 160.077 188.052 160.469 188.052C160.821 188.052 161.077 187.996 161.237 187.884C161.405 187.764 161.489 187.58 161.489 187.332C161.489 187.092 161.385 186.924 161.177 186.828C160.969 186.732 160.633 186.612 160.169 186.468C159.777 186.356 159.441 186.224 159.161 186.072C158.881 185.92 158.661 185.716 158.501 185.46C158.349 185.204 158.273 184.852 158.273 184.404Z" fill="#1F1F1F"/>
</g>
<g clip-path="url(#clip1_24453_173713)">
<rect x="200.5" y="56" width="125" height="110" rx="12" fill="#FCC015"/>
<path d="M262.999 120.66L287.149 133.08L262.999 145.5L238.85 133.08L262.999 120.66Z" fill="#1434CB"/>
<path d="M262.999 109.62L287.149 122.04L262.999 134.46L238.85 122.04L262.999 109.62Z" fill="white"/>
<path d="M239.604 122.04L262.999 110.008L286.395 122.04L262.999 134.072L239.604 122.04Z" stroke="black" stroke-opacity="0.1" stroke-width="0.689996"/>
<path d="M262.999 98.5798L287.149 111L262.999 123.42L238.85 111L262.999 98.5798Z" fill="white"/>
<path d="M239.604 111L262.999 98.9677L286.395 111L262.999 123.032L239.604 111Z" stroke="black" stroke-opacity="0.1" stroke-width="0.689996"/>
<path d="M262.999 87.5399L287.149 99.9598L262.999 112.38L238.85 99.9598L262.999 87.5399Z" fill="#1F1F1F"/>
<path d="M262.999 76.5001L287.149 88.92L262.999 101.34L238.85 88.92L262.999 76.5001Z" fill="white"/>
<path d="M239.604 88.92L262.999 76.8881L286.395 88.92L262.999 100.952L239.604 88.92Z" stroke="black" stroke-opacity="0.1" stroke-width="0.689996"/>
<path d="M220.424 189V180.432H224.264C225.064 180.432 225.664 180.62 226.064 180.996C226.472 181.364 226.676 181.888 226.676 182.568C226.676 183.064 226.508 183.472 226.172 183.792C225.844 184.104 225.448 184.3 224.984 184.38V184.44C225.608 184.528 226.096 184.752 226.448 185.112C226.808 185.472 226.988 185.972 226.988 186.612C226.988 187.316 226.772 187.892 226.34 188.34C225.908 188.78 225.256 189 224.384 189H220.424ZM223.688 181.668H222.26V183.972H223.688C224.424 183.972 224.792 183.584 224.792 182.808C224.792 182.048 224.424 181.668 223.688 181.668ZM223.832 187.764C224.28 187.764 224.604 187.66 224.804 187.452C225.004 187.236 225.104 186.9 225.104 186.444C225.104 185.98 225.004 185.648 224.804 185.448C224.604 185.24 224.28 185.136 223.832 185.136H222.26V187.764H223.832ZM228.782 184.32L228.962 182.964C229.186 182.796 229.502 182.66 229.91 182.556C230.326 182.444 230.734 182.388 231.134 182.388C231.99 182.388 232.626 182.544 233.042 182.856C233.466 183.16 233.678 183.7 233.678 184.476V189H232.226L232.106 188.004H232.034C231.89 188.388 231.674 188.68 231.386 188.88C231.098 189.08 230.714 189.18 230.234 189.18C229.89 189.18 229.578 189.12 229.298 189C229.018 188.872 228.794 188.68 228.626 188.424C228.458 188.16 228.374 187.82 228.374 187.404C228.374 186.988 228.462 186.652 228.638 186.396C228.814 186.132 229.054 185.928 229.358 185.784C229.67 185.632 230.03 185.52 230.438 185.448C230.966 185.352 231.338 185.272 231.554 185.208C231.778 185.144 231.934 185.072 232.022 184.992V184.608C232.022 184.256 231.938 184 231.77 183.84C231.602 183.672 231.278 183.588 230.798 183.588C230.406 183.588 230.046 183.656 229.718 183.792C229.39 183.92 229.106 184.096 228.866 184.32H228.782ZM232.022 186.9V185.844C231.87 185.972 231.49 186.1 230.882 186.228C230.626 186.284 230.414 186.38 230.246 186.516C230.078 186.652 229.994 186.88 229.994 187.2C229.994 187.504 230.074 187.72 230.234 187.848C230.394 187.968 230.598 188.028 230.846 188.028C231.246 188.028 231.542 187.916 231.734 187.692C231.926 187.46 232.022 187.196 232.022 186.9ZM235.32 184.404C235.32 183.964 235.428 183.596 235.644 183.3C235.868 182.996 236.168 182.768 236.544 182.616C236.928 182.464 237.356 182.388 237.828 182.388C238.244 182.388 238.6 182.428 238.896 182.508C239.192 182.588 239.428 182.68 239.604 182.784L239.664 184.044H239.556C239.332 183.9 239.072 183.776 238.776 183.672C238.48 183.568 238.156 183.516 237.804 183.516C237.54 183.516 237.324 183.56 237.156 183.648C236.988 183.736 236.904 183.912 236.904 184.176C236.904 184.432 236.992 184.612 237.168 184.716C237.344 184.812 237.648 184.924 238.08 185.052C238.464 185.172 238.808 185.3 239.112 185.436C239.424 185.564 239.668 185.752 239.844 186C240.028 186.248 240.12 186.6 240.12 187.056C240.12 187.752 239.892 188.28 239.436 188.64C238.988 189 238.38 189.18 237.612 189.18C237.14 189.18 236.724 189.128 236.364 189.024C236.004 188.928 235.692 188.804 235.428 188.652L235.332 187.344H235.44C235.744 187.56 236.068 187.732 236.412 187.86C236.756 187.988 237.124 188.052 237.516 188.052C237.868 188.052 238.124 187.996 238.284 187.884C238.452 187.764 238.536 187.58 238.536 187.332C238.536 187.092 238.432 186.924 238.224 186.828C238.016 186.732 237.68 186.612 237.216 186.468C236.824 186.356 236.488 186.224 236.208 186.072C235.928 185.92 235.708 185.716 235.548 185.46C235.396 185.204 235.32 184.852 235.32 184.404ZM244.836 187.98C245.324 187.98 245.728 187.92 246.048 187.8C246.376 187.68 246.668 187.516 246.924 187.308H247.02L246.912 188.556C246.728 188.716 246.44 188.86 246.048 188.988C245.656 189.116 245.18 189.18 244.62 189.18C243.948 189.18 243.364 189.032 242.868 188.736C242.372 188.44 241.988 188.036 241.716 187.524C241.444 187.012 241.308 186.432 241.308 185.784C241.308 185.136 241.436 184.556 241.692 184.044C241.948 183.532 242.304 183.128 242.76 182.832C243.224 182.536 243.76 182.388 244.368 182.388C245.08 182.388 245.64 182.52 246.048 182.784C246.464 183.048 246.756 183.408 246.924 183.864C247.092 184.312 247.176 184.816 247.176 185.376C247.176 185.456 247.172 185.556 247.164 185.676C247.156 185.788 247.148 185.884 247.14 185.964H243.036V186C243.068 186.624 243.232 187.112 243.528 187.464C243.824 187.808 244.26 187.98 244.836 187.98ZM244.404 183.492C243.98 183.492 243.66 183.632 243.444 183.912C243.236 184.192 243.108 184.596 243.06 185.124H245.664V184.92C245.664 184.488 245.56 184.144 245.352 183.888C245.152 183.624 244.836 183.492 244.404 183.492ZM254.477 187.98C254.965 187.98 255.369 187.92 255.689 187.8C256.017 187.68 256.309 187.516 256.565 187.308H256.661L256.553 188.556C256.369 188.716 256.081 188.86 255.689 188.988C255.297 189.116 254.821 189.18 254.261 189.18C253.589 189.18 253.005 189.032 252.509 188.736C252.013 188.44 251.629 188.036 251.357 187.524C251.085 187.012 250.949 186.432 250.949 185.784C250.949 185.136 251.077 184.556 251.333 184.044C251.589 183.532 251.945 183.128 252.401 182.832C252.865 182.536 253.401 182.388 254.009 182.388C254.721 182.388 255.281 182.52 255.689 182.784C256.105 183.048 256.397 183.408 256.565 183.864C256.733 184.312 256.817 184.816 256.817 185.376C256.817 185.456 256.813 185.556 256.805 185.676C256.797 185.788 256.789 185.884 256.781 185.964H252.677V186C252.709 186.624 252.873 187.112 253.169 187.464C253.465 187.808 253.901 187.98 254.477 187.98ZM254.045 183.492C253.621 183.492 253.301 183.632 253.085 183.912C252.877 184.192 252.749 184.596 252.701 185.124H255.305V184.92C255.305 184.488 255.201 184.144 254.993 183.888C254.793 183.624 254.477 183.492 254.045 183.492ZM259.987 187.056C259.987 187.392 260.039 187.616 260.143 187.728C260.247 187.832 260.411 187.884 260.635 187.884C260.867 187.884 261.091 187.832 261.307 187.728H261.379L261.211 188.988C261.123 189.044 260.971 189.088 260.755 189.12C260.539 189.16 260.355 189.18 260.203 189.18C259.563 189.18 259.091 189.032 258.787 188.736C258.491 188.44 258.343 187.948 258.343 187.26V180.084H259.987V187.056ZM265.793 187.98C266.281 187.98 266.685 187.92 267.005 187.8C267.333 187.68 267.625 187.516 267.881 187.308H267.977L267.869 188.556C267.685 188.716 267.397 188.86 267.005 188.988C266.613 189.116 266.137 189.18 265.577 189.18C264.905 189.18 264.321 189.032 263.825 188.736C263.329 188.44 262.945 188.036 262.673 187.524C262.401 187.012 262.265 186.432 262.265 185.784C262.265 185.136 262.393 184.556 262.649 184.044C262.905 183.532 263.261 183.128 263.717 182.832C264.181 182.536 264.717 182.388 265.325 182.388C266.037 182.388 266.597 182.52 267.005 182.784C267.421 183.048 267.713 183.408 267.881 183.864C268.049 184.312 268.133 184.816 268.133 185.376C268.133 185.456 268.129 185.556 268.121 185.676C268.113 185.788 268.105 185.884 268.097 185.964H263.993V186C264.025 186.624 264.189 187.112 264.485 187.464C264.781 187.808 265.217 187.98 265.793 187.98ZM265.361 183.492C264.937 183.492 264.617 183.632 264.401 183.912C264.193 184.192 264.065 184.596 264.017 185.124H266.621V184.92C266.621 184.488 266.517 184.144 266.309 183.888C266.109 183.624 265.793 183.492 265.361 183.492ZM272.587 183.708C272.179 183.708 271.867 183.852 271.651 184.14C271.443 184.42 271.339 184.792 271.339 185.256V189H269.683V182.556H271.159L271.267 183.6H271.339C271.507 183.144 271.767 182.828 272.119 182.652C272.479 182.476 272.867 182.388 273.283 182.388C274.243 182.388 274.843 182.792 275.083 183.6H275.155C275.259 183.296 275.419 183.056 275.635 182.88C275.851 182.704 276.095 182.58 276.367 182.508C276.647 182.428 276.923 182.388 277.195 182.388C278.515 182.388 279.175 183.128 279.175 184.608V189H277.519V185.028C277.519 184.572 277.443 184.24 277.291 184.032C277.147 183.816 276.883 183.708 276.499 183.708C276.091 183.708 275.783 183.848 275.575 184.128C275.367 184.408 275.263 184.784 275.263 185.256V189H273.607V185.028C273.607 184.572 273.531 184.24 273.379 184.032C273.235 183.816 272.971 183.708 272.587 183.708ZM284.211 187.98C284.699 187.98 285.103 187.92 285.423 187.8C285.751 187.68 286.043 187.516 286.299 187.308H286.395L286.287 188.556C286.103 188.716 285.815 188.86 285.423 188.988C285.031 189.116 284.555 189.18 283.995 189.18C283.323 189.18 282.739 189.032 282.243 188.736C281.747 188.44 281.363 188.036 281.091 187.524C280.819 187.012 280.683 186.432 280.683 185.784C280.683 185.136 280.811 184.556 281.067 184.044C281.323 183.532 281.679 183.128 282.135 182.832C282.599 182.536 283.135 182.388 283.743 182.388C284.455 182.388 285.015 182.52 285.423 182.784C285.839 183.048 286.131 183.408 286.299 183.864C286.467 184.312 286.551 184.816 286.551 185.376C286.551 185.456 286.547 185.556 286.539 185.676C286.531 185.788 286.523 185.884 286.515 185.964H282.411V186C282.443 186.624 282.607 187.112 282.903 187.464C283.199 187.808 283.635 187.98 284.211 187.98ZM283.779 183.492C283.355 183.492 283.035 183.632 282.819 183.912C282.611 184.192 282.483 184.596 282.435 185.124H285.039V184.92C285.039 184.488 284.935 184.144 284.727 183.888C284.527 183.624 284.211 183.492 283.779 183.492ZM291.065 183.708C290.649 183.708 290.325 183.852 290.093 184.14C289.869 184.428 289.757 184.808 289.757 185.28V189H288.101V182.556H289.577L289.685 183.6H289.757C289.869 183.296 290.029 183.056 290.237 182.88C290.453 182.704 290.693 182.58 290.957 182.508C291.229 182.428 291.501 182.388 291.773 182.388C292.437 182.388 292.945 182.572 293.297 182.94C293.649 183.308 293.825 183.86 293.825 184.596V189H292.169V185.028C292.169 184.572 292.085 184.24 291.917 184.032C291.749 183.816 291.465 183.708 291.065 183.708ZM297.764 187.02C297.764 187.364 297.84 187.596 297.992 187.716C298.144 187.836 298.34 187.896 298.58 187.896C298.796 187.896 298.968 187.88 299.096 187.848C299.232 187.808 299.356 187.76 299.468 187.704H299.54L299.372 188.94C299.284 189.004 299.12 189.06 298.88 189.108C298.64 189.156 298.392 189.18 298.136 189.18C297.424 189.18 296.908 189.032 296.588 188.736C296.268 188.44 296.108 187.96 296.108 187.296V183.792H294.992L295.148 182.808L296.108 182.568V181.116L297.764 180.924V182.556H299.444L299.264 183.792H297.764V187.02ZM300.726 184.404C300.726 183.964 300.834 183.596 301.05 183.3C301.274 182.996 301.574 182.768 301.95 182.616C302.334 182.464 302.762 182.388 303.234 182.388C303.65 182.388 304.006 182.428 304.302 182.508C304.598 182.588 304.834 182.68 305.01 182.784L305.07 184.044H304.962C304.738 183.9 304.478 183.776 304.182 183.672C303.886 183.568 303.562 183.516 303.21 183.516C302.946 183.516 302.73 183.56 302.562 183.648C302.394 183.736 302.31 183.912 302.31 184.176C302.31 184.432 302.398 184.612 302.574 184.716C302.75 184.812 303.054 184.924 303.486 185.052C303.87 185.172 304.214 185.3 304.518 185.436C304.83 185.564 305.074 185.752 305.25 186C305.434 186.248 305.526 186.6 305.526 187.056C305.526 187.752 305.298 188.28 304.842 188.64C304.394 189 303.786 189.18 303.018 189.18C302.546 189.18 302.13 189.128 301.77 189.024C301.41 188.928 301.098 188.804 300.834 188.652L300.738 187.344H300.846C301.15 187.56 301.474 187.732 301.818 187.86C302.162 187.988 302.53 188.052 302.922 188.052C303.274 188.052 303.53 187.996 303.69 187.884C303.858 187.764 303.942 187.58 303.942 187.332C303.942 187.092 303.838 186.924 303.63 186.828C303.422 186.732 303.086 186.612 302.622 186.468C302.23 186.356 301.894 186.224 301.614 186.072C301.334 185.92 301.114 185.716 300.954 185.46C300.802 185.204 300.726 184.852 300.726 184.404Z" fill="#1F1F1F"/>
</g>
<g clip-path="url(#clip2_24453_173713)">
<rect x="337.5" y="56" width="125" height="110" rx="12" fill="#00B97F"/>
<g clip-path="url(#clip3_24453_173713)">
<g filter="url(#filter0_dd_24453_173713)">
<path d="M371.42 132.539C371.42 131.354 372.381 130.393 373.566 130.393H426.434C427.619 130.393 428.58 131.354 428.58 132.539V145.599C428.58 146.784 427.619 147.745 426.434 147.745H373.566C372.381 147.745 371.42 146.784 371.42 145.599V132.539Z" fill="#1434CB"/>
</g>
<path d="M399.459 130.935C399.758 131.234 400.242 131.234 400.541 130.935L405.413 126.063C405.712 125.764 405.712 125.279 405.413 124.98C405.114 124.681 404.629 124.681 404.33 124.98L400 129.311L395.67 124.98C395.371 124.681 394.886 124.681 394.587 124.98C394.288 125.279 394.288 125.764 394.587 126.063L399.459 130.935ZM399.234 119.676L399.234 130.393L400.766 130.393L400.766 119.676L399.234 119.676Z" fill="#1F1F1F"/>
<g filter="url(#filter1_dd_24453_173713)">
<path d="M371.42 104.47C371.42 103.285 372.381 102.324 373.566 102.324H426.434C427.619 102.324 428.58 103.285 428.58 104.47V117.53C428.58 118.715 427.619 119.676 426.434 119.676H373.566C372.381 119.676 371.42 118.715 371.42 117.53V104.47Z" fill="#F0F0F0"/>
</g>
<path d="M399.459 102.865C399.758 103.164 400.242 103.164 400.541 102.865L405.413 97.9936C405.712 97.6946 405.712 97.2099 405.413 96.911C405.114 96.612 404.629 96.612 404.33 96.911L400 101.241L395.67 96.911C395.371 96.612 394.886 96.612 394.587 96.911C394.288 97.2099 394.288 97.6946 394.587 97.9936L399.459 102.865ZM399.234 91.6067L399.234 102.324L400.766 102.324L400.766 91.6067L399.234 91.6067Z" fill="#1F1F1F"/>
<g filter="url(#filter2_dd_24453_173713)">
<path d="M371.42 76.4007C371.42 75.2155 372.381 74.2548 373.566 74.2548H426.434C427.619 74.2548 428.58 75.2155 428.58 76.4007V89.4607C428.58 90.6459 427.619 91.6067 426.434 91.6067H373.566C372.381 91.6067 371.42 90.6459 371.42 89.4607V76.4007Z" fill="white"/>
</g>
</g>
<path d="M375.424 189V180.432H378.664C379.256 180.432 379.776 180.528 380.224 180.72C380.68 180.904 381.036 181.2 381.292 181.608C381.548 182.008 381.676 182.532 381.676 183.18C381.676 183.828 381.548 184.352 381.292 184.752C381.036 185.152 380.68 185.448 380.224 185.64C379.776 185.824 379.256 185.916 378.664 185.916H377.26V189H375.424ZM378.412 181.788H377.26V184.62H378.412C378.836 184.62 379.164 184.52 379.396 184.32C379.636 184.12 379.756 183.748 379.756 183.204C379.756 182.66 379.636 182.288 379.396 182.088C379.164 181.888 378.836 181.788 378.412 181.788ZM382.973 184.32L383.153 182.964C383.377 182.796 383.693 182.66 384.101 182.556C384.517 182.444 384.925 182.388 385.325 182.388C386.181 182.388 386.817 182.544 387.233 182.856C387.657 183.16 387.869 183.7 387.869 184.476V189H386.417L386.297 188.004H386.225C386.081 188.388 385.865 188.68 385.577 188.88C385.289 189.08 384.905 189.18 384.425 189.18C384.081 189.18 383.769 189.12 383.489 189C383.209 188.872 382.985 188.68 382.817 188.424C382.649 188.16 382.565 187.82 382.565 187.404C382.565 186.988 382.653 186.652 382.829 186.396C383.005 186.132 383.245 185.928 383.549 185.784C383.861 185.632 384.221 185.52 384.629 185.448C385.157 185.352 385.529 185.272 385.745 185.208C385.969 185.144 386.125 185.072 386.213 184.992V184.608C386.213 184.256 386.129 184 385.961 183.84C385.793 183.672 385.469 183.588 384.989 183.588C384.597 183.588 384.237 183.656 383.909 183.792C383.581 183.92 383.297 184.096 383.057 184.32H382.973ZM386.213 186.9V185.844C386.061 185.972 385.681 186.1 385.073 186.228C384.817 186.284 384.605 186.38 384.437 186.516C384.269 186.652 384.185 186.88 384.185 187.2C384.185 187.504 384.265 187.72 384.425 187.848C384.585 187.968 384.789 188.028 385.037 188.028C385.437 188.028 385.733 187.916 385.925 187.692C386.117 187.46 386.213 187.196 386.213 186.9ZM391.803 187.02C391.803 187.364 391.879 187.596 392.031 187.716C392.183 187.836 392.379 187.896 392.619 187.896C392.835 187.896 393.007 187.88 393.135 187.848C393.271 187.808 393.395 187.76 393.507 187.704H393.579L393.411 188.94C393.323 189.004 393.159 189.06 392.919 189.108C392.679 189.156 392.431 189.18 392.175 189.18C391.463 189.18 390.947 189.032 390.627 188.736C390.307 188.44 390.147 187.96 390.147 187.296V183.792H389.031L389.187 182.808L390.147 182.568V181.116L391.803 180.924V182.556H393.483L393.303 183.792H391.803V187.02ZM397.057 187.02C397.057 187.364 397.133 187.596 397.285 187.716C397.437 187.836 397.633 187.896 397.873 187.896C398.089 187.896 398.261 187.88 398.389 187.848C398.525 187.808 398.649 187.76 398.761 187.704H398.833L398.665 188.94C398.577 189.004 398.413 189.06 398.173 189.108C397.933 189.156 397.685 189.18 397.429 189.18C396.717 189.18 396.201 189.032 395.881 188.736C395.561 188.44 395.401 187.96 395.401 187.296V183.792H394.285L394.441 182.808L395.401 182.568V181.116L397.057 180.924V182.556H398.737L398.557 183.792H397.057V187.02ZM403.403 187.98C403.891 187.98 404.295 187.92 404.615 187.8C404.943 187.68 405.235 187.516 405.491 187.308H405.587L405.479 188.556C405.295 188.716 405.007 188.86 404.615 188.988C404.223 189.116 403.747 189.18 403.187 189.18C402.515 189.18 401.931 189.032 401.435 188.736C400.939 188.44 400.555 188.036 400.283 187.524C400.011 187.012 399.875 186.432 399.875 185.784C399.875 185.136 400.003 184.556 400.259 184.044C400.515 183.532 400.871 183.128 401.327 182.832C401.791 182.536 402.327 182.388 402.935 182.388C403.647 182.388 404.207 182.52 404.615 182.784C405.031 183.048 405.323 183.408 405.491 183.864C405.659 184.312 405.743 184.816 405.743 185.376C405.743 185.456 405.739 185.556 405.731 185.676C405.723 185.788 405.715 185.884 405.707 185.964H401.603V186C401.635 186.624 401.799 187.112 402.095 187.464C402.391 187.808 402.827 187.98 403.403 187.98ZM402.971 183.492C402.547 183.492 402.227 183.632 402.011 183.912C401.803 184.192 401.675 184.596 401.627 185.124H404.231V184.92C404.231 184.488 404.127 184.144 403.919 183.888C403.719 183.624 403.403 183.492 402.971 183.492ZM410.208 183.996C409.792 183.996 409.476 184.132 409.26 184.404C409.052 184.676 408.948 185.1 408.948 185.676V189H407.292V182.556H408.696L408.816 183.744H408.888C408.968 183.376 409.096 183.096 409.272 182.904C409.448 182.704 409.652 182.568 409.884 182.496C410.116 182.424 410.36 182.388 410.616 182.388C410.736 182.388 410.848 182.396 410.952 182.412C411.056 182.428 411.136 182.444 411.192 182.46L410.976 184.164H410.868C410.796 184.124 410.708 184.088 410.604 184.056C410.5 184.016 410.368 183.996 410.208 183.996ZM415.358 183.708C414.942 183.708 414.618 183.852 414.386 184.14C414.162 184.428 414.05 184.808 414.05 185.28V189H412.394V182.556H413.87L413.978 183.6H414.05C414.162 183.296 414.322 183.056 414.53 182.88C414.746 182.704 414.986 182.58 415.25 182.508C415.522 182.428 415.794 182.388 416.066 182.388C416.73 182.388 417.238 182.572 417.59 182.94C417.942 183.308 418.118 183.86 418.118 184.596V189H416.462V185.028C416.462 184.572 416.378 184.24 416.21 184.032C416.042 183.816 415.758 183.708 415.358 183.708ZM419.765 184.404C419.765 183.964 419.873 183.596 420.089 183.3C420.313 182.996 420.613 182.768 420.989 182.616C421.373 182.464 421.801 182.388 422.273 182.388C422.689 182.388 423.045 182.428 423.341 182.508C423.637 182.588 423.873 182.68 424.049 182.784L424.109 184.044H424.001C423.777 183.9 423.517 183.776 423.221 183.672C422.925 183.568 422.601 183.516 422.249 183.516C421.985 183.516 421.769 183.56 421.601 183.648C421.433 183.736 421.349 183.912 421.349 184.176C421.349 184.432 421.437 184.612 421.613 184.716C421.789 184.812 422.093 184.924 422.525 185.052C422.909 185.172 423.253 185.3 423.557 185.436C423.869 185.564 424.113 185.752 424.289 186C424.473 186.248 424.565 186.6 424.565 187.056C424.565 187.752 424.337 188.28 423.881 188.64C423.433 189 422.825 189.18 422.057 189.18C421.585 189.18 421.169 189.128 420.809 189.024C420.449 188.928 420.137 188.804 419.873 188.652L419.777 187.344H419.885C420.189 187.56 420.513 187.732 420.857 187.86C421.201 187.988 421.569 188.052 421.961 188.052C422.313 188.052 422.569 187.996 422.729 187.884C422.897 187.764 422.981 187.58 422.981 187.332C422.981 187.092 422.877 186.924 422.669 186.828C422.461 186.732 422.125 186.612 421.661 186.468C421.269 186.356 420.933 186.224 420.653 186.072C420.373 185.92 420.153 185.716 419.993 185.46C419.841 185.204 419.765 184.852 419.765 184.404Z" fill="#1F1F1F"/>
</g>
<g clip-path="url(#clip4_24453_173713)">
<rect x="474.5" y="56" width="125" height="110" rx="12" fill="#FCA3D9"/>
<g clip-path="url(#clip5_24453_173713)">
<g filter="url(#filter3_dd_24453_173713)">
<path d="M508.42 132.539C508.42 131.354 509.381 130.393 510.566 130.393H563.434C564.619 130.393 565.58 131.354 565.58 132.539V145.599C565.58 146.784 564.619 147.745 563.434 147.745H510.566C509.381 147.745 508.42 146.784 508.42 145.599V132.539Z" fill="#1434CB"/>
</g>
<path d="M536.459 130.935C536.758 131.234 537.242 131.234 537.541 130.935L542.413 126.063C542.712 125.764 542.712 125.279 542.413 124.98C542.114 124.681 541.629 124.681 541.33 124.98L537 129.311L532.67 124.98C532.371 124.681 531.886 124.681 531.587 124.98C531.288 125.279 531.288 125.764 531.587 126.063L536.459 130.935ZM536.234 119.676L536.234 130.393L537.766 130.393L537.766 119.676L536.234 119.676Z" fill="#1F1F1F"/>
<g filter="url(#filter4_dd_24453_173713)">
<path d="M508.42 104.47C508.42 103.285 509.381 102.324 510.566 102.324H563.434C564.619 102.324 565.58 103.285 565.58 104.47V117.53C565.58 118.715 564.619 119.676 563.434 119.676H510.566C509.381 119.676 508.42 118.715 508.42 117.53V104.47Z" fill="#F0F0F0"/>
</g>
<path d="M536.459 102.865C536.758 103.164 537.242 103.164 537.541 102.865L542.413 97.9936C542.712 97.6946 542.712 97.2099 542.413 96.911C542.114 96.612 541.629 96.612 541.33 96.911L537 101.241L532.67 96.911C532.371 96.612 531.886 96.612 531.587 96.911C531.288 97.2099 531.288 97.6946 531.587 97.9936L536.459 102.865ZM536.234 91.6067L536.234 102.324L537.766 102.324L537.766 91.6067L536.234 91.6067Z" fill="#1F1F1F"/>
<g filter="url(#filter5_dd_24453_173713)">
<path d="M508.42 76.4007C508.42 75.2155 509.381 74.2548 510.566 74.2548H563.434C564.619 74.2548 565.58 75.2155 565.58 76.4007V89.4607C565.58 90.6459 564.619 91.6067 563.434 91.6067H510.566C509.381 91.6067 508.42 90.6459 508.42 89.4607V76.4007Z" fill="white"/>
</g>
</g>
<path d="M514.996 184.716C514.996 185.644 515.216 186.376 515.656 186.912C516.104 187.44 516.732 187.704 517.54 187.704C518.1 187.704 518.556 187.616 518.908 187.44C519.26 187.256 519.588 187.02 519.892 186.732H519.988L519.796 188.436C519.556 188.652 519.216 188.832 518.776 188.976C518.336 189.112 517.84 189.18 517.288 189.18C516.624 189.18 516.032 189.068 515.512 188.844C514.992 188.612 514.548 188.292 514.18 187.884C513.82 187.476 513.544 187.004 513.352 186.468C513.16 185.924 513.064 185.34 513.064 184.716C513.064 183.884 513.232 183.132 513.568 182.46C513.904 181.78 514.384 181.244 515.008 180.852C515.64 180.452 516.396 180.252 517.276 180.252C517.828 180.252 518.3 180.308 518.692 180.42C519.092 180.532 519.428 180.7 519.7 180.924L519.892 182.676H519.784C519.52 182.372 519.188 182.14 518.788 181.98C518.396 181.812 517.976 181.728 517.528 181.728C516.728 181.728 516.104 181.996 515.656 182.532C515.216 183.06 514.996 183.788 514.996 184.716ZM524.426 182.388C525.09 182.388 525.662 182.536 526.142 182.832C526.622 183.128 526.986 183.532 527.234 184.044C527.49 184.548 527.618 185.128 527.618 185.784C527.618 186.432 527.49 187.012 527.234 187.524C526.986 188.036 526.622 188.44 526.142 188.736C525.662 189.032 525.09 189.18 524.426 189.18C523.754 189.18 523.178 189.032 522.698 188.736C522.218 188.44 521.85 188.036 521.594 187.524C521.346 187.012 521.222 186.432 521.222 185.784C521.222 185.128 521.346 184.548 521.594 184.044C521.85 183.532 522.218 183.128 522.698 182.832C523.178 182.536 523.754 182.388 524.426 182.388ZM524.426 187.896C524.89 187.896 525.25 187.728 525.506 187.392C525.77 187.048 525.902 186.512 525.902 185.784C525.902 185.048 525.77 184.512 525.506 184.176C525.25 183.832 524.89 183.66 524.426 183.66C523.954 183.66 523.59 183.832 523.334 184.176C523.078 184.512 522.95 185.048 522.95 185.784C522.95 186.512 523.078 187.048 523.334 187.392C523.59 187.728 523.954 187.896 524.426 187.896ZM532.131 183.708C531.715 183.708 531.391 183.852 531.159 184.14C530.935 184.428 530.823 184.808 530.823 185.28V189H529.167V182.556H530.643L530.751 183.6H530.823C530.935 183.296 531.095 183.056 531.303 182.88C531.519 182.704 531.759 182.58 532.023 182.508C532.295 182.428 532.567 182.388 532.839 182.388C533.503 182.388 534.011 182.572 534.363 182.94C534.715 183.308 534.891 183.86 534.891 184.596V189H533.235V185.028C533.235 184.572 533.151 184.24 532.983 184.032C532.815 183.816 532.531 183.708 532.131 183.708ZM538.83 187.02C538.83 187.364 538.906 187.596 539.058 187.716C539.21 187.836 539.406 187.896 539.646 187.896C539.862 187.896 540.034 187.88 540.162 187.848C540.298 187.808 540.422 187.76 540.534 187.704H540.606L540.438 188.94C540.35 189.004 540.186 189.06 539.946 189.108C539.706 189.156 539.458 189.18 539.202 189.18C538.49 189.18 537.974 189.032 537.654 188.736C537.334 188.44 537.174 187.96 537.174 187.296V183.792H536.058L536.214 182.808L537.174 182.568V181.116L538.83 180.924V182.556H540.51L540.33 183.792H538.83V187.02ZM545.176 187.98C545.664 187.98 546.068 187.92 546.388 187.8C546.716 187.68 547.008 187.516 547.264 187.308H547.36L547.252 188.556C547.068 188.716 546.78 188.86 546.388 188.988C545.996 189.116 545.52 189.18 544.96 189.18C544.288 189.18 543.704 189.032 543.208 188.736C542.712 188.44 542.328 188.036 542.056 187.524C541.784 187.012 541.648 186.432 541.648 185.784C541.648 185.136 541.776 184.556 542.032 184.044C542.288 183.532 542.644 183.128 543.1 182.832C543.564 182.536 544.1 182.388 544.708 182.388C545.42 182.388 545.98 182.52 546.388 182.784C546.804 183.048 547.096 183.408 547.264 183.864C547.432 184.312 547.516 184.816 547.516 185.376C547.516 185.456 547.512 185.556 547.504 185.676C547.496 185.788 547.488 185.884 547.48 185.964H543.376V186C543.408 186.624 543.572 187.112 543.868 187.464C544.164 187.808 544.6 187.98 545.176 187.98ZM544.744 183.492C544.32 183.492 544 183.632 543.784 183.912C543.576 184.192 543.448 184.596 543.4 185.124H546.004V184.92C546.004 184.488 545.9 184.144 545.692 183.888C545.492 183.624 545.176 183.492 544.744 183.492ZM552.03 183.708C551.614 183.708 551.29 183.852 551.058 184.14C550.834 184.428 550.722 184.808 550.722 185.28V189H549.066V182.556H550.542L550.65 183.6H550.722C550.834 183.296 550.994 183.056 551.202 182.88C551.418 182.704 551.658 182.58 551.922 182.508C552.194 182.428 552.466 182.388 552.738 182.388C553.402 182.388 553.91 182.572 554.262 182.94C554.614 183.308 554.79 183.86 554.79 184.596V189H553.134V185.028C553.134 184.572 553.05 184.24 552.882 184.032C552.714 183.816 552.43 183.708 552.03 183.708ZM558.729 187.02C558.729 187.364 558.805 187.596 558.957 187.716C559.109 187.836 559.305 187.896 559.545 187.896C559.761 187.896 559.933 187.88 560.061 187.848C560.197 187.808 560.321 187.76 560.433 187.704H560.505L560.337 188.94C560.249 189.004 560.085 189.06 559.845 189.108C559.605 189.156 559.357 189.18 559.101 189.18C558.389 189.18 557.873 189.032 557.553 188.736C557.233 188.44 557.073 187.96 557.073 187.296V183.792H555.957L556.113 182.808L557.073 182.568V181.116L558.729 180.924V182.556H560.409L560.229 183.792H558.729V187.02Z" fill="#1F1F1F"/>
</g>
<g clip-path="url(#clip6_24453_173713)">
<rect x="611.5" y="56" width="125" height="110" rx="12" fill="#FCC015"/>
<path d="M643.888 79.0588V142.352" stroke="#1F1F1F" stroke-width="2.06074"/>
<path d="M644.094 99.6657C646.37 99.6657 648.215 97.8206 648.215 95.5443C648.215 93.2681 646.37 91.4229 644.094 91.4229C641.817 91.4229 639.972 93.2681 639.972 95.5443C639.972 97.8206 641.817 99.6657 644.094 99.6657Z" fill="white" stroke="white" stroke-width="0.791175"/>
<path d="M644.094 117.499C646.37 117.499 648.215 115.654 648.215 113.378C648.215 111.101 646.37 109.256 644.094 109.256C641.817 109.256 639.972 111.101 639.972 113.378C639.972 115.654 641.817 117.499 644.094 117.499Z" fill="white" stroke="white" stroke-width="0.791175"/>
<path d="M644.094 91.4224C646.37 91.4224 648.215 89.5771 648.215 87.3009C648.215 85.0247 646.37 83.1795 644.094 83.1795C641.817 83.1795 639.972 85.0247 639.972 87.3009C639.972 89.5771 641.817 91.4224 644.094 91.4224Z" fill="white" stroke="white" stroke-width="0.791175"/>
<path d="M647.819 133.49C647.819 135.547 646.151 137.216 644.094 137.216C642.036 137.216 640.368 135.547 640.368 133.49C640.368 131.432 642.036 129.764 644.094 129.764C646.151 129.764 647.819 131.432 647.819 133.49Z" fill="#1434CB" stroke="#1434CB" stroke-width="0.791175"/>
<path d="M703.479 79.0588V142.352" stroke="#1F1F1F" stroke-width="2.06074"/>
<path d="M703.854 139.043C706.131 139.043 707.976 137.198 707.976 134.921C707.976 132.645 706.131 130.8 703.854 130.8C701.579 130.8 699.733 132.645 699.733 134.921C699.733 137.198 701.579 139.043 703.854 139.043Z" fill="white" stroke="white" stroke-width="0.791175"/>
<path d="M703.854 127.963C706.131 127.963 707.976 126.117 707.976 123.841C707.976 121.565 706.131 119.72 703.854 119.72C701.579 119.72 699.733 121.565 699.733 123.841C699.733 126.117 701.579 127.963 703.854 127.963Z" fill="white" stroke="white" stroke-width="0.791175"/>
<path d="M703.854 114.574C706.131 114.574 707.976 112.729 707.976 110.453C707.976 108.176 706.131 106.331 703.854 106.331C701.579 106.331 699.733 108.176 699.733 110.453C699.733 112.729 701.579 114.574 703.854 114.574Z" fill="white" stroke="white" stroke-width="0.791175"/>
<path d="M703.855 89.362C706.132 89.362 707.977 87.5168 707.977 85.2406C707.977 82.9644 706.132 81.1191 703.855 81.1191C701.58 81.1191 699.734 82.9644 699.734 85.2406C699.734 87.5168 701.58 89.362 703.855 89.362Z" fill="#1434CB" stroke="#1434CB" stroke-width="0.791175"/>
<path opacity="0.8" d="M644.093 95.6972C666.028 95.6972 676.256 131.493 691.003 134.318C693.933 134.879 697.435 135.215 701.793 135.215" stroke="white" stroke-width="2.06074" stroke-dasharray="1.58 1.58"/>
<path opacity="0.8" d="M644.093 112.337C671.567 112.337 676.379 126.896 703.854 126.896" stroke="white" stroke-width="2.06074" stroke-dasharray="1.58 1.58"/>
<path opacity="0.8" d="M646.154 87.3781C671.563 87.3781 676.384 110.257 701.793 110.257" stroke="white" stroke-width="2.06074" stroke-dasharray="1.58 1.58"/>
<path d="M644.093 134.698C670.443 134.698 675.443 85.241 701.793 85.241" stroke="#1434CB" stroke-width="2.06074"/>
<path d="M624.268 189H621.424V180.432H624.268C625.164 180.432 625.944 180.592 626.608 180.912C627.272 181.224 627.784 181.7 628.144 182.34C628.512 182.972 628.696 183.764 628.696 184.716C628.696 185.668 628.512 186.464 628.144 187.104C627.784 187.736 627.272 188.212 626.608 188.532C625.944 188.844 625.164 189 624.268 189ZM624.184 187.572C625.08 187.572 625.732 187.348 626.14 186.9C626.556 186.452 626.764 185.724 626.764 184.716C626.764 183.708 626.556 182.98 626.14 182.532C625.732 182.084 625.08 181.86 624.184 181.86H623.26V187.572H624.184ZM630.391 184.32L630.571 182.964C630.795 182.796 631.111 182.66 631.519 182.556C631.935 182.444 632.343 182.388 632.743 182.388C633.599 182.388 634.235 182.544 634.651 182.856C635.075 183.16 635.287 183.7 635.287 184.476V189H633.835L633.715 188.004H633.643C633.499 188.388 633.283 188.68 632.995 188.88C632.707 189.08 632.323 189.18 631.843 189.18C631.499 189.18 631.187 189.12 630.907 189C630.627 188.872 630.403 188.68 630.235 188.424C630.067 188.16 629.983 187.82 629.983 187.404C629.983 186.988 630.071 186.652 630.247 186.396C630.423 186.132 630.663 185.928 630.967 185.784C631.279 185.632 631.639 185.52 632.047 185.448C632.575 185.352 632.947 185.272 633.163 185.208C633.387 185.144 633.543 185.072 633.631 184.992V184.608C633.631 184.256 633.547 184 633.379 183.84C633.211 183.672 632.887 183.588 632.407 183.588C632.015 183.588 631.655 183.656 631.327 183.792C630.999 183.92 630.715 184.096 630.475 184.32H630.391ZM633.631 186.9V185.844C633.479 185.972 633.099 186.1 632.491 186.228C632.235 186.284 632.023 186.38 631.855 186.516C631.687 186.652 631.603 186.88 631.603 187.2C631.603 187.504 631.683 187.72 631.843 187.848C632.003 187.968 632.207 188.028 632.455 188.028C632.855 188.028 633.151 187.916 633.343 187.692C633.535 187.46 633.631 187.196 633.631 186.9ZM639.221 187.02C639.221 187.364 639.297 187.596 639.449 187.716C639.601 187.836 639.797 187.896 640.037 187.896C640.253 187.896 640.425 187.88 640.553 187.848C640.689 187.808 640.813 187.76 640.925 187.704H640.997L640.829 188.94C640.741 189.004 640.577 189.06 640.337 189.108C640.097 189.156 639.849 189.18 639.593 189.18C638.881 189.18 638.365 189.032 638.045 188.736C637.725 188.44 637.565 187.96 637.565 187.296V183.792H636.449L636.605 182.808L637.565 182.568V181.116L639.221 180.924V182.556H640.901L640.721 183.792H639.221V187.02ZM642.411 184.32L642.591 182.964C642.815 182.796 643.131 182.66 643.539 182.556C643.955 182.444 644.363 182.388 644.763 182.388C645.619 182.388 646.255 182.544 646.671 182.856C647.095 183.16 647.307 183.7 647.307 184.476V189H645.855L645.735 188.004H645.663C645.519 188.388 645.303 188.68 645.015 188.88C644.727 189.08 644.343 189.18 643.863 189.18C643.519 189.18 643.207 189.12 642.927 189C642.647 188.872 642.423 188.68 642.255 188.424C642.087 188.16 642.003 187.82 642.003 187.404C642.003 186.988 642.091 186.652 642.267 186.396C642.443 186.132 642.683 185.928 642.987 185.784C643.299 185.632 643.659 185.52 644.067 185.448C644.595 185.352 644.967 185.272 645.183 185.208C645.407 185.144 645.563 185.072 645.651 184.992V184.608C645.651 184.256 645.567 184 645.399 183.84C645.231 183.672 644.907 183.588 644.427 183.588C644.035 183.588 643.675 183.656 643.347 183.792C643.019 183.92 642.735 184.096 642.495 184.32H642.411ZM645.651 186.9V185.844C645.499 185.972 645.119 186.1 644.511 186.228C644.255 186.284 644.043 186.38 643.875 186.516C643.707 186.652 643.623 186.88 643.623 187.2C643.623 187.504 643.703 187.72 643.863 187.848C644.023 187.968 644.227 188.028 644.475 188.028C644.875 188.028 645.171 187.916 645.363 187.692C645.555 187.46 645.651 187.196 645.651 186.9ZM652.876 182.556L654.364 187.128H654.448L655.9 182.556H657.424L655.132 189H653.356L651.064 182.556H652.876ZM659.683 181.98C659.395 181.98 659.159 181.9 658.975 181.74C658.791 181.58 658.699 181.36 658.699 181.08C658.699 180.792 658.791 180.568 658.975 180.408C659.159 180.248 659.395 180.168 659.683 180.168C659.979 180.168 660.215 180.248 660.391 180.408C660.567 180.568 660.655 180.792 660.655 181.08C660.655 181.36 660.567 181.58 660.391 181.74C660.215 181.9 659.979 181.98 659.683 181.98ZM660.511 182.556V189H658.855V183.792H657.883L658.039 182.556H660.511ZM662.202 184.404C662.202 183.964 662.31 183.596 662.526 183.3C662.75 182.996 663.05 182.768 663.426 182.616C663.81 182.464 664.238 182.388 664.71 182.388C665.126 182.388 665.482 182.428 665.778 182.508C666.074 182.588 666.31 182.68 666.486 182.784L666.546 184.044H666.438C666.214 183.9 665.954 183.776 665.658 183.672C665.362 183.568 665.038 183.516 664.686 183.516C664.422 183.516 664.206 183.56 664.038 183.648C663.87 183.736 663.786 183.912 663.786 184.176C663.786 184.432 663.874 184.612 664.05 184.716C664.226 184.812 664.53 184.924 664.962 185.052C665.346 185.172 665.69 185.3 665.994 185.436C666.306 185.564 666.55 185.752 666.726 186C666.91 186.248 667.002 186.6 667.002 187.056C667.002 187.752 666.774 188.28 666.318 188.64C665.87 189 665.262 189.18 664.494 189.18C664.022 189.18 663.606 189.128 663.246 189.024C662.886 188.928 662.574 188.804 662.31 188.652L662.214 187.344H662.322C662.626 187.56 662.95 187.732 663.294 187.86C663.638 187.988 664.006 188.052 664.398 188.052C664.75 188.052 665.006 187.996 665.166 187.884C665.334 187.764 665.418 187.58 665.418 187.332C665.418 187.092 665.314 186.924 665.106 186.828C664.898 186.732 664.562 186.612 664.098 186.468C663.706 186.356 663.37 186.224 663.09 186.072C662.81 185.92 662.59 185.716 662.43 185.46C662.278 185.204 662.202 184.852 662.202 184.404ZM671.251 187.848C671.659 187.848 671.975 187.708 672.199 187.428C672.423 187.148 672.535 186.768 672.535 186.288V182.556H674.191V189H672.763L672.643 187.956H672.571C672.411 188.404 672.147 188.72 671.779 188.904C671.411 189.088 671.015 189.18 670.591 189.18C669.927 189.18 669.407 188.996 669.031 188.628C668.663 188.252 668.479 187.692 668.479 186.948V182.556H670.123V186.552C670.123 187.008 670.207 187.34 670.375 187.548C670.551 187.748 670.843 187.848 671.251 187.848ZM676.102 184.32L676.282 182.964C676.506 182.796 676.822 182.66 677.23 182.556C677.646 182.444 678.054 182.388 678.454 182.388C679.31 182.388 679.946 182.544 680.362 182.856C680.786 183.16 680.998 183.7 680.998 184.476V189H679.546L679.426 188.004H679.354C679.21 188.388 678.994 188.68 678.706 188.88C678.418 189.08 678.034 189.18 677.554 189.18C677.21 189.18 676.898 189.12 676.618 189C676.338 188.872 676.114 188.68 675.946 188.424C675.778 188.16 675.694 187.82 675.694 187.404C675.694 186.988 675.782 186.652 675.958 186.396C676.134 186.132 676.374 185.928 676.678 185.784C676.99 185.632 677.35 185.52 677.758 185.448C678.286 185.352 678.658 185.272 678.874 185.208C679.098 185.144 679.254 185.072 679.342 184.992V184.608C679.342 184.256 679.258 184 679.09 183.84C678.922 183.672 678.598 183.588 678.118 183.588C677.726 183.588 677.366 183.656 677.038 183.792C676.71 183.92 676.426 184.096 676.186 184.32H676.102ZM679.342 186.9V185.844C679.19 185.972 678.81 186.1 678.202 186.228C677.946 186.284 677.734 186.38 677.566 186.516C677.398 186.652 677.314 186.88 677.314 187.2C677.314 187.504 677.394 187.72 677.554 187.848C677.714 187.968 677.918 188.028 678.166 188.028C678.566 188.028 678.862 187.916 679.054 187.692C679.246 187.46 679.342 187.196 679.342 186.9ZM684.428 187.056C684.428 187.392 684.48 187.616 684.584 187.728C684.688 187.832 684.852 187.884 685.076 187.884C685.308 187.884 685.532 187.832 685.748 187.728H685.82L685.652 188.988C685.564 189.044 685.412 189.088 685.196 189.12C684.98 189.16 684.796 189.18 684.644 189.18C684.004 189.18 683.532 189.032 683.228 188.736C682.932 188.44 682.784 187.948 682.784 187.26V180.084H684.428V187.056ZM688.003 181.98C687.715 181.98 687.479 181.9 687.295 181.74C687.111 181.58 687.019 181.36 687.019 181.08C687.019 180.792 687.111 180.568 687.295 180.408C687.479 180.248 687.715 180.168 688.003 180.168C688.299 180.168 688.535 180.248 688.711 180.408C688.887 180.568 688.975 180.792 688.975 181.08C688.975 181.36 688.887 181.58 688.711 181.74C688.535 181.9 688.299 181.98 688.003 181.98ZM688.831 182.556V189H687.175V183.792H686.203L686.359 182.556H688.831ZM690.415 187.812L693.703 183.768H690.583V182.556H695.767V183.744L692.467 187.788H695.767V189H690.415V187.812ZM697.341 184.32L697.521 182.964C697.745 182.796 698.061 182.66 698.469 182.556C698.885 182.444 699.293 182.388 699.693 182.388C700.549 182.388 701.185 182.544 701.601 182.856C702.025 183.16 702.237 183.7 702.237 184.476V189H700.785L700.665 188.004H700.593C700.449 188.388 700.233 188.68 699.945 188.88C699.657 189.08 699.273 189.18 698.793 189.18C698.449 189.18 698.137 189.12 697.857 189C697.577 188.872 697.353 188.68 697.185 188.424C697.017 188.16 696.933 187.82 696.933 187.404C696.933 186.988 697.021 186.652 697.197 186.396C697.373 186.132 697.613 185.928 697.917 185.784C698.229 185.632 698.589 185.52 698.997 185.448C699.525 185.352 699.897 185.272 700.113 185.208C700.337 185.144 700.493 185.072 700.581 184.992V184.608C700.581 184.256 700.497 184 700.329 183.84C700.161 183.672 699.837 183.588 699.357 183.588C698.965 183.588 698.605 183.656 698.277 183.792C697.949 183.92 697.665 184.096 697.425 184.32H697.341ZM700.581 186.9V185.844C700.429 185.972 700.049 186.1 699.441 186.228C699.185 186.284 698.973 186.38 698.805 186.516C698.637 186.652 698.553 186.88 698.553 187.2C698.553 187.504 698.633 187.72 698.793 187.848C698.953 187.968 699.157 188.028 699.405 188.028C699.805 188.028 700.101 187.916 700.293 187.692C700.485 187.46 700.581 187.196 700.581 186.9ZM706.17 187.02C706.17 187.364 706.246 187.596 706.398 187.716C706.55 187.836 706.746 187.896 706.986 187.896C707.202 187.896 707.374 187.88 707.502 187.848C707.638 187.808 707.762 187.76 707.874 187.704H707.946L707.778 188.94C707.69 189.004 707.526 189.06 707.286 189.108C707.046 189.156 706.798 189.18 706.542 189.18C705.83 189.18 705.314 189.032 704.994 188.736C704.674 188.44 704.514 187.96 704.514 187.296V183.792H703.398L703.554 182.808L704.514 182.568V181.116L706.17 180.924V182.556H707.85L707.67 183.792H706.17V187.02ZM710.284 181.98C709.996 181.98 709.76 181.9 709.576 181.74C709.392 181.58 709.3 181.36 709.3 181.08C709.3 180.792 709.392 180.568 709.576 180.408C709.76 180.248 709.996 180.168 710.284 180.168C710.58 180.168 710.816 180.248 710.992 180.408C711.168 180.568 711.256 180.792 711.256 181.08C711.256 181.36 711.168 181.58 710.992 181.74C710.816 181.9 710.58 181.98 710.284 181.98ZM711.112 182.556V189H709.456V183.792H708.484L708.64 182.556H711.112ZM715.864 182.388C716.528 182.388 717.1 182.536 717.58 182.832C718.06 183.128 718.424 183.532 718.672 184.044C718.928 184.548 719.056 185.128 719.056 185.784C719.056 186.432 718.928 187.012 718.672 187.524C718.424 188.036 718.06 188.44 717.58 188.736C717.1 189.032 716.528 189.18 715.864 189.18C715.192 189.18 714.616 189.032 714.136 188.736C713.656 188.44 713.288 188.036 713.032 187.524C712.784 187.012 712.66 186.432 712.66 185.784C712.66 185.128 712.784 184.548 713.032 184.044C713.288 183.532 713.656 183.128 714.136 182.832C714.616 182.536 715.192 182.388 715.864 182.388ZM715.864 187.896C716.328 187.896 716.688 187.728 716.944 187.392C717.208 187.048 717.34 186.512 717.34 185.784C717.34 185.048 717.208 184.512 716.944 184.176C716.688 183.832 716.328 183.66 715.864 183.66C715.392 183.66 715.028 183.832 714.772 184.176C714.516 184.512 714.388 185.048 714.388 185.784C714.388 186.512 714.516 187.048 714.772 187.392C715.028 187.728 715.392 187.896 715.864 187.896ZM723.569 183.708C723.153 183.708 722.829 183.852 722.597 184.14C722.373 184.428 722.261 184.808 722.261 185.28V189H720.605V182.556H722.081L722.189 183.6H722.261C722.373 183.296 722.533 183.056 722.741 182.88C722.957 182.704 723.197 182.58 723.461 182.508C723.733 182.428 724.005 182.388 724.277 182.388C724.941 182.388 725.449 182.572 725.801 182.94C726.153 183.308 726.329 183.86 726.329 184.596V189H724.673V185.028C724.673 184.572 724.589 184.24 724.421 184.032C724.253 183.816 723.969 183.708 723.569 183.708Z" fill="#1F1F1F"/>
</g>
<path d="M398.939 250.061C399.525 250.646 400.475 250.646 401.061 250.061L410.607 240.515C411.192 239.929 411.192 238.979 410.607 238.393C410.021 237.808 409.071 237.808 408.485 238.393L400 246.879L391.515 238.393C390.929 237.808 389.979 237.808 389.393 238.393C388.808 238.979 388.808 239.929 389.393 240.515L398.939 250.061ZM398.5 216L398.5 249L401.5 249L401.5 216L398.5 216Z" fill="#1F1F1F"/>
<rect x="129" y="254" width="542" height="56" rx="12" fill="white"/>
<path d="M162.667 279C163.315 278.585 163.812 277.971 164.082 277.25C164.352 276.529 164.381 275.74 164.165 275.001C163.95 274.262 163.5 273.613 162.884 273.151C162.269 272.689 161.52 272.438 160.75 272.438H154C153.23 272.438 152.481 272.689 151.866 273.151C151.25 273.613 150.8 274.262 150.585 275.001C150.369 275.74 150.398 276.529 150.668 277.25C150.938 277.971 151.435 278.585 152.083 279C151.568 279.33 151.147 279.786 150.859 280.325C150.572 280.865 150.428 281.469 150.442 282.08C150.456 282.691 150.626 283.288 150.937 283.814C151.249 284.34 151.69 284.777 152.219 285.083C151.648 285.457 151.184 285.972 150.873 286.579C150.561 287.185 150.412 287.863 150.441 288.544C150.47 289.225 150.675 289.887 151.037 290.466C151.398 291.044 151.904 291.518 152.504 291.842C153.104 292.167 153.778 292.329 154.459 292.315C155.141 292.3 155.808 292.109 156.393 291.759C156.979 291.409 157.464 290.914 157.8 290.321C158.136 289.727 158.313 289.057 158.312 288.375V284.595C158.673 284.938 159.101 285.202 159.57 285.369C160.038 285.537 160.537 285.604 161.033 285.567C161.529 285.53 162.012 285.389 162.451 285.154C162.89 284.919 163.274 284.595 163.58 284.202C163.885 283.81 164.105 283.357 164.225 282.874C164.346 282.392 164.363 281.889 164.277 281.399C164.191 280.909 164.004 280.442 163.726 280.029C163.449 279.616 163.088 279.265 162.667 279ZM163.188 276C163.188 276.646 162.931 277.266 162.474 277.724C162.016 278.181 161.396 278.437 160.75 278.437H158.312V273.562H160.75C161.396 273.562 162.016 273.819 162.474 274.276C162.931 274.734 163.188 275.354 163.188 276ZM151.562 276C151.562 275.354 151.819 274.734 152.276 274.276C152.734 273.819 153.354 273.562 154 273.562H157.187V278.437H154C153.354 278.437 152.734 278.181 152.276 277.724C151.819 277.266 151.562 276.646 151.562 276ZM154 284.437C153.354 284.437 152.734 284.181 152.276 283.724C151.819 283.266 151.562 282.646 151.562 282C151.562 281.354 151.819 280.734 152.276 280.276C152.734 279.819 153.354 279.562 154 279.562H157.187V284.437H154ZM157.187 288.375C157.187 288.931 157.023 289.475 156.714 289.938C156.404 290.4 155.965 290.761 155.451 290.973C154.937 291.186 154.372 291.242 153.826 291.133C153.281 291.025 152.78 290.757 152.386 290.364C151.993 289.97 151.725 289.469 151.617 288.924C151.508 288.378 151.564 287.813 151.777 287.299C151.989 286.785 152.35 286.346 152.812 286.036C153.275 285.727 153.819 285.562 154.375 285.562H157.187V288.375ZM160.75 284.437C160.268 284.437 159.797 284.295 159.396 284.027C158.995 283.759 158.683 283.378 158.498 282.933C158.314 282.487 158.265 281.997 158.359 281.524C158.453 281.052 158.686 280.617 159.026 280.276C159.367 279.936 159.802 279.703 160.274 279.609C160.747 279.515 161.237 279.564 161.683 279.748C162.128 279.933 162.509 280.245 162.777 280.646C163.045 281.047 163.188 281.518 163.188 282C163.188 282.646 162.931 283.266 162.474 283.724C162.016 284.181 161.396 284.437 160.75 284.437Z" fill="#1F1F1F"/>
<path d="M175.924 287V278.432H181.18V279.86H177.76V282.044H180.556V283.412H177.76V287H175.924ZM183.706 279.98C183.418 279.98 183.182 279.9 182.998 279.74C182.814 279.58 182.722 279.36 182.722 279.08C182.722 278.792 182.814 278.568 182.998 278.408C183.182 278.248 183.418 278.168 183.706 278.168C184.002 278.168 184.238 278.248 184.414 278.408C184.59 278.568 184.678 278.792 184.678 279.08C184.678 279.36 184.59 279.58 184.414 279.74C184.238 279.9 184.002 279.98 183.706 279.98ZM184.534 280.556V287H182.878V281.792H181.906L182.062 280.556H184.534ZM190.438 285.896C191.054 285.896 191.482 286.028 191.722 286.292C191.97 286.548 192.094 286.924 192.094 287.42C192.094 288.036 191.822 288.528 191.278 288.896C190.734 289.264 189.862 289.448 188.662 289.448C188.07 289.448 187.534 289.4 187.054 289.304C186.582 289.208 186.206 289.084 185.926 288.932L185.83 287.744H185.938C186.082 287.856 186.294 287.964 186.574 288.068C186.854 288.172 187.174 288.256 187.534 288.32C187.902 288.392 188.286 288.428 188.686 288.428C189.414 288.428 189.926 288.368 190.222 288.248C190.526 288.128 190.678 287.956 190.678 287.732C190.678 287.396 190.482 287.228 190.09 287.228H187.75C187.254 287.228 186.854 287.128 186.55 286.928C186.246 286.72 186.094 286.376 186.094 285.896C186.094 285.576 186.19 285.312 186.382 285.104C186.582 284.888 186.83 284.748 187.126 284.684V284.612C186.806 284.412 186.558 284.148 186.382 283.82C186.206 283.492 186.118 283.124 186.118 282.716C186.118 282.26 186.226 281.86 186.442 281.516C186.666 281.164 186.974 280.888 187.366 280.688C187.758 280.488 188.218 280.388 188.746 280.388C189.154 280.388 189.518 280.444 189.838 280.556C190.158 280.668 190.434 280.828 190.666 281.036H190.738C190.826 280.836 190.994 280.684 191.242 280.58C191.498 280.476 191.762 280.424 192.034 280.424H192.574L192.49 281.708L191.122 281.54L191.098 281.588C191.29 281.924 191.386 282.3 191.386 282.716C191.386 283.172 191.278 283.576 191.062 283.928C190.846 284.272 190.538 284.544 190.138 284.744C189.746 284.944 189.282 285.044 188.746 285.044C188.546 285.044 188.366 285.036 188.206 285.02C188.054 285.004 187.942 284.996 187.87 284.996C187.494 284.996 187.306 285.14 187.306 285.428C187.306 285.74 187.498 285.896 187.882 285.896H190.438ZM188.746 281.408C188.394 281.408 188.118 281.528 187.918 281.768C187.718 282 187.618 282.316 187.618 282.716C187.618 283.116 187.718 283.436 187.918 283.676C188.118 283.908 188.394 284.024 188.746 284.024C189.106 284.024 189.386 283.908 189.586 283.676C189.786 283.436 189.886 283.116 189.886 282.716C189.886 282.316 189.786 282 189.586 281.768C189.386 281.528 189.106 281.408 188.746 281.408ZM196.415 281.708C196.007 281.708 195.695 281.852 195.479 282.14C195.271 282.42 195.167 282.792 195.167 283.256V287H193.511V280.556H194.987L195.095 281.6H195.167C195.335 281.144 195.595 280.828 195.947 280.652C196.307 280.476 196.695 280.388 197.111 280.388C198.071 280.388 198.671 280.792 198.911 281.6H198.983C199.087 281.296 199.247 281.056 199.463 280.88C199.679 280.704 199.923 280.58 200.195 280.508C200.475 280.428 200.751 280.388 201.023 280.388C202.343 280.388 203.003 281.128 203.003 282.608V287H201.347V283.028C201.347 282.572 201.271 282.24 201.119 282.032C200.975 281.816 200.711 281.708 200.327 281.708C199.919 281.708 199.611 281.848 199.403 282.128C199.195 282.408 199.091 282.784 199.091 283.256V287H197.435V283.028C197.435 282.572 197.359 282.24 197.207 282.032C197.063 281.816 196.799 281.708 196.415 281.708ZM204.884 282.32L205.064 280.964C205.288 280.796 205.604 280.66 206.012 280.556C206.428 280.444 206.836 280.388 207.236 280.388C208.092 280.388 208.728 280.544 209.144 280.856C209.568 281.16 209.78 281.7 209.78 282.476V287H208.328L208.208 286.004H208.136C207.992 286.388 207.776 286.68 207.488 286.88C207.2 287.08 206.816 287.18 206.336 287.18C205.992 287.18 205.68 287.12 205.4 287C205.12 286.872 204.896 286.68 204.728 286.424C204.56 286.16 204.476 285.82 204.476 285.404C204.476 284.988 204.564 284.652 204.74 284.396C204.916 284.132 205.156 283.928 205.46 283.784C205.772 283.632 206.132 283.52 206.54 283.448C207.068 283.352 207.44 283.272 207.656 283.208C207.88 283.144 208.036 283.072 208.124 282.992V282.608C208.124 282.256 208.04 282 207.872 281.84C207.704 281.672 207.38 281.588 206.9 281.588C206.508 281.588 206.148 281.656 205.82 281.792C205.492 281.92 205.208 282.096 204.968 282.32H204.884ZM208.124 284.9V283.844C207.972 283.972 207.592 284.1 206.984 284.228C206.728 284.284 206.516 284.38 206.348 284.516C206.18 284.652 206.096 284.88 206.096 285.2C206.096 285.504 206.176 285.72 206.336 285.848C206.496 285.968 206.7 286.028 206.948 286.028C207.348 286.028 207.644 285.916 207.836 285.692C208.028 285.46 208.124 285.196 208.124 284.9Z" fill="#1F1F1F"/>
<path fill-rule="evenodd" clip-rule="evenodd" d="M264.833 271.5L265.171 271.622L273.921 274.772L274.665 275.04L274.576 275.825L273.25 287.525L273.192 288.035L272.744 288.286L265.321 292.436L264.833 292.708L264.345 292.436L256.921 288.286L256.473 288.035L256.415 287.525L255.089 275.825L255 275.04L255.744 274.772L264.494 271.622L264.833 271.5ZM257.409 287.413L256.083 275.713L264.635 272.634L264.833 272.563L265.035 272.636L273.583 275.713L272.256 287.413L271.667 287.742L271.094 288.063L264.833 291.563L258.572 288.063L257.972 287.728L257.409 287.413ZM264.293 280.003L263.651 281.563L263.239 282.563H264.321H265.354H266.436L266.022 281.563L265.375 280.002L264.833 278.693L264.293 280.003ZM268.248 287.063L267.149 284.283H262.497L261.398 287.063H260.452H259.359L259.8 286.063L264.285 275.903L264.833 274.663L265.378 275.904L269.838 286.063L270.277 287.063H269.185H268.248Z" fill="#1F1F1F"/>
<path d="M284.824 287H283.132L286.108 278.432H288.112L290.992 287H289.036L288.376 284.852H285.496L284.824 287ZM285.844 283.676H288.04L286.996 280.244H286.912L285.844 283.676ZM295.163 281.708C294.747 281.708 294.423 281.852 294.191 282.14C293.967 282.428 293.855 282.808 293.855 283.28V287H292.199V280.556H293.675L293.783 281.6H293.855C293.967 281.296 294.127 281.056 294.335 280.88C294.551 280.704 294.791 280.58 295.055 280.508C295.327 280.428 295.599 280.388 295.871 280.388C296.535 280.388 297.043 280.572 297.395 280.94C297.747 281.308 297.923 281.86 297.923 282.596V287H296.267V283.028C296.267 282.572 296.183 282.24 296.015 282.032C295.847 281.816 295.563 281.708 295.163 281.708ZM303.782 285.896C304.398 285.896 304.826 286.028 305.066 286.292C305.314 286.548 305.438 286.924 305.438 287.42C305.438 288.036 305.166 288.528 304.622 288.896C304.078 289.264 303.206 289.448 302.006 289.448C301.414 289.448 300.878 289.4 300.398 289.304C299.926 289.208 299.55 289.084 299.27 288.932L299.174 287.744H299.282C299.426 287.856 299.638 287.964 299.918 288.068C300.198 288.172 300.518 288.256 300.878 288.32C301.246 288.392 301.63 288.428 302.03 288.428C302.758 288.428 303.27 288.368 303.566 288.248C303.87 288.128 304.022 287.956 304.022 287.732C304.022 287.396 303.826 287.228 303.434 287.228H301.094C300.598 287.228 300.198 287.128 299.894 286.928C299.59 286.72 299.438 286.376 299.438 285.896C299.438 285.576 299.534 285.312 299.726 285.104C299.926 284.888 300.174 284.748 300.47 284.684V284.612C300.15 284.412 299.902 284.148 299.726 283.82C299.55 283.492 299.462 283.124 299.462 282.716C299.462 282.26 299.57 281.86 299.786 281.516C300.01 281.164 300.318 280.888 300.71 280.688C301.102 280.488 301.562 280.388 302.09 280.388C302.498 280.388 302.862 280.444 303.182 280.556C303.502 280.668 303.778 280.828 304.01 281.036H304.082C304.17 280.836 304.338 280.684 304.586 280.58C304.842 280.476 305.106 280.424 305.378 280.424H305.918L305.834 281.708L304.466 281.54L304.442 281.588C304.634 281.924 304.73 282.3 304.73 282.716C304.73 283.172 304.622 283.576 304.406 283.928C304.19 284.272 303.882 284.544 303.482 284.744C303.09 284.944 302.626 285.044 302.09 285.044C301.89 285.044 301.71 285.036 301.55 285.02C301.398 285.004 301.286 284.996 301.214 284.996C300.838 284.996 300.65 285.14 300.65 285.428C300.65 285.74 300.842 285.896 301.226 285.896H303.782ZM302.09 281.408C301.738 281.408 301.462 281.528 301.262 281.768C301.062 282 300.962 282.316 300.962 282.716C300.962 283.116 301.062 283.436 301.262 283.676C301.462 283.908 301.738 284.024 302.09 284.024C302.45 284.024 302.73 283.908 302.93 283.676C303.13 283.436 303.23 283.116 303.23 282.716C303.23 282.316 303.13 282 302.93 281.768C302.73 281.528 302.45 281.408 302.09 281.408ZM309.603 285.848C310.011 285.848 310.327 285.708 310.551 285.428C310.775 285.148 310.887 284.768 310.887 284.288V280.556H312.543V287H311.115L310.995 285.956H310.923C310.763 286.404 310.499 286.72 310.131 286.904C309.763 287.088 309.367 287.18 308.943 287.18C308.279 287.18 307.759 286.996 307.383 286.628C307.015 286.252 306.831 285.692 306.831 284.948V280.556H308.475V284.552C308.475 285.008 308.559 285.34 308.727 285.548C308.903 285.748 309.195 285.848 309.603 285.848ZM316.014 285.056C316.014 285.392 316.066 285.616 316.17 285.728C316.274 285.832 316.438 285.884 316.662 285.884C316.894 285.884 317.118 285.832 317.334 285.728H317.406L317.238 286.988C317.15 287.044 316.998 287.088 316.782 287.12C316.566 287.16 316.382 287.18 316.23 287.18C315.59 287.18 315.118 287.032 314.814 286.736C314.518 286.44 314.37 285.948 314.37 285.26V278.084H316.014V285.056ZM318.665 282.32L318.845 280.964C319.069 280.796 319.385 280.66 319.793 280.556C320.209 280.444 320.617 280.388 321.017 280.388C321.873 280.388 322.509 280.544 322.925 280.856C323.349 281.16 323.561 281.7 323.561 282.476V287H322.109L321.989 286.004H321.917C321.773 286.388 321.557 286.68 321.269 286.88C320.981 287.08 320.597 287.18 320.117 287.18C319.773 287.18 319.461 287.12 319.181 287C318.901 286.872 318.677 286.68 318.509 286.424C318.341 286.16 318.257 285.82 318.257 285.404C318.257 284.988 318.345 284.652 318.521 284.396C318.697 284.132 318.937 283.928 319.241 283.784C319.553 283.632 319.913 283.52 320.321 283.448C320.849 283.352 321.221 283.272 321.437 283.208C321.661 283.144 321.817 283.072 321.905 282.992V282.608C321.905 282.256 321.821 282 321.653 281.84C321.485 281.672 321.161 281.588 320.681 281.588C320.289 281.588 319.929 281.656 319.601 281.792C319.273 281.92 318.989 282.096 318.749 282.32H318.665ZM321.905 284.9V283.844C321.753 283.972 321.373 284.1 320.765 284.228C320.509 284.284 320.297 284.38 320.129 284.516C319.961 284.652 319.877 284.88 319.877 285.2C319.877 285.504 319.957 285.72 320.117 285.848C320.277 285.968 320.481 286.028 320.729 286.028C321.129 286.028 321.425 285.916 321.617 285.692C321.809 285.46 321.905 285.196 321.905 284.9ZM328.286 281.996C327.87 281.996 327.554 282.132 327.338 282.404C327.13 282.676 327.026 283.1 327.026 283.676V287H325.37V280.556H326.774L326.894 281.744H326.966C327.046 281.376 327.174 281.096 327.35 280.904C327.526 280.704 327.73 280.568 327.962 280.496C328.194 280.424 328.438 280.388 328.694 280.388C328.814 280.388 328.926 280.396 329.03 280.412C329.134 280.428 329.214 280.444 329.27 280.46L329.054 282.164H328.946C328.874 282.124 328.786 282.088 328.682 282.056C328.578 282.016 328.446 281.996 328.286 281.996Z" fill="#1F1F1F"/>
<path fill-rule="evenodd" clip-rule="evenodd" d="M375 273V291H397V273H375ZM376 290V278H396V290H376ZM396 277H376V274H396V277ZM378 275H377V276H378V275ZM379 275H380V276H379V275ZM382 275H381V276H382V275ZM377 282.5H386.5V283.5H377V282.5ZM381.5 284.5H377V285.5H381.5V284.5ZM377 286.5H381.5V287.5H377V286.5ZM395 289H388.5V279H395V289ZM389.5 288H394V280H389.5V288ZM377 280.5H386.5V281.5H377V280.5Z" fill="#1F1F1F"/>
<path d="M406.496 282.716C406.496 283.644 406.716 284.376 407.156 284.912C407.604 285.44 408.232 285.704 409.04 285.704C409.6 285.704 410.056 285.616 410.408 285.44C410.76 285.256 411.088 285.02 411.392 284.732H411.488L411.296 286.436C411.056 286.652 410.716 286.832 410.276 286.976C409.836 287.112 409.34 287.18 408.788 287.18C408.124 287.18 407.532 287.068 407.012 286.844C406.492 286.612 406.048 286.292 405.68 285.884C405.32 285.476 405.044 285.004 404.852 284.468C404.66 283.924 404.564 283.34 404.564 282.716C404.564 281.884 404.732 281.132 405.068 280.46C405.404 279.78 405.884 279.244 406.508 278.852C407.14 278.452 407.896 278.252 408.776 278.252C409.328 278.252 409.8 278.308 410.192 278.42C410.592 278.532 410.928 278.7 411.2 278.924L411.392 280.676H411.284C411.02 280.372 410.688 280.14 410.288 279.98C409.896 279.812 409.476 279.728 409.028 279.728C408.228 279.728 407.604 279.996 407.156 280.532C406.716 281.06 406.496 281.788 406.496 282.716ZM412.902 280.892C412.902 280.332 413.026 279.856 413.274 279.464C413.53 279.064 413.882 278.764 414.33 278.564C414.786 278.356 415.314 278.252 415.914 278.252C416.53 278.252 417.026 278.312 417.402 278.432C417.778 278.552 418.07 278.688 418.278 278.84L418.41 280.52H418.314C418.034 280.264 417.67 280.06 417.222 279.908C416.774 279.756 416.338 279.68 415.914 279.68C415.514 279.68 415.202 279.752 414.978 279.896C414.754 280.032 414.642 280.252 414.642 280.556C414.642 280.804 414.694 281 414.798 281.144C414.902 281.28 415.07 281.4 415.302 281.504C415.542 281.6 415.862 281.704 416.262 281.816C416.638 281.928 416.99 282.04 417.318 282.152C417.646 282.264 417.93 282.408 418.17 282.584C418.41 282.76 418.598 282.992 418.734 283.28C418.87 283.568 418.938 283.944 418.938 284.408C418.938 285.296 418.674 285.98 418.146 286.46C417.618 286.94 416.838 287.18 415.806 287.18C415.478 287.18 415.138 287.152 414.786 287.096C414.442 287.04 414.114 286.956 413.802 286.844C413.49 286.732 413.226 286.596 413.01 286.436L412.878 284.744H412.998C413.35 285.064 413.778 285.316 414.282 285.5C414.794 285.684 415.314 285.776 415.842 285.776C416.274 285.776 416.598 285.704 416.814 285.56C417.038 285.416 417.15 285.18 417.15 284.852C417.15 284.62 417.094 284.432 416.982 284.288C416.87 284.136 416.682 284.008 416.418 283.904C416.154 283.792 415.802 283.676 415.362 283.556C414.914 283.436 414.502 283.284 414.126 283.1C413.758 282.908 413.462 282.64 413.238 282.296C413.014 281.952 412.902 281.484 412.902 280.892ZM420.418 280.892C420.418 280.332 420.542 279.856 420.79 279.464C421.046 279.064 421.398 278.764 421.846 278.564C422.302 278.356 422.83 278.252 423.43 278.252C424.046 278.252 424.542 278.312 424.918 278.432C425.294 278.552 425.586 278.688 425.794 278.84L425.926 280.52H425.83C425.55 280.264 425.186 280.06 424.738 279.908C424.29 279.756 423.854 279.68 423.43 279.68C423.03 279.68 422.718 279.752 422.494 279.896C422.27 280.032 422.158 280.252 422.158 280.556C422.158 280.804 422.21 281 422.314 281.144C422.418 281.28 422.586 281.4 422.818 281.504C423.058 281.6 423.378 281.704 423.778 281.816C424.154 281.928 424.506 282.04 424.834 282.152C425.162 282.264 425.446 282.408 425.686 282.584C425.926 282.76 426.114 282.992 426.25 283.28C426.386 283.568 426.454 283.944 426.454 284.408C426.454 285.296 426.19 285.98 425.662 286.46C425.134 286.94 424.354 287.18 423.322 287.18C422.994 287.18 422.654 287.152 422.302 287.096C421.958 287.04 421.63 286.956 421.318 286.844C421.006 286.732 420.742 286.596 420.526 286.436L420.394 284.744H420.514C420.866 285.064 421.294 285.316 421.798 285.5C422.31 285.684 422.83 285.776 423.358 285.776C423.79 285.776 424.114 285.704 424.33 285.56C424.554 285.416 424.666 285.18 424.666 284.852C424.666 284.62 424.61 284.432 424.498 284.288C424.386 284.136 424.198 284.008 423.934 283.904C423.67 283.792 423.318 283.676 422.878 283.556C422.43 283.436 422.018 283.284 421.642 283.1C421.274 282.908 420.978 282.64 420.754 282.296C420.53 281.952 420.418 281.484 420.418 280.892Z" fill="#1F1F1F"/>
<g clip-path="url(#clip7_24453_173713)">
<path d="M484 279.859C482.82 279.859 481.859 280.82 481.859 282C481.859 283.18 482.82 284.14 484 284.14C485.18 284.14 486.141 283.18 486.141 282C486.141 280.82 485.18 279.859 484 279.859ZM478.008 286.254L477.535 286.137C474.019 285.246 472 283.738 472 281.996C472 280.254 474.02 278.746 477.535 277.855L478.008 277.738L478.14 278.207C478.497 279.435 478.953 280.632 479.504 281.785L479.605 281.996L479.504 282.211C478.952 283.364 478.496 284.561 478.14 285.789L478.008 286.254ZM477.317 278.949C474.645 279.699 473.004 280.851 473.004 281.996C473.004 283.141 474.645 284.289 477.317 285.043C477.644 284.003 478.039 282.985 478.5 281.996C478.039 281.008 477.644 279.99 477.317 278.949ZM489.992 286.254L489.86 285.785C489.504 284.558 489.048 283.363 488.496 282.211L488.395 281.996L488.496 281.782C489.048 280.628 489.504 279.432 489.86 278.203L489.992 277.738L490.465 277.855C493.981 278.746 496 280.254 496 281.996C496 283.738 493.98 285.246 490.465 286.137L489.992 286.254ZM489.5 281.996C489.962 282.984 490.357 284.002 490.683 285.043C493.359 284.29 494.996 283.141 494.996 281.996C494.996 280.851 493.355 279.703 490.683 278.949C490.354 279.989 489.959 281.007 489.5 281.996ZM477.309 278.945L477.176 278.476C476.187 274.992 476.488 272.492 478 271.621C479.484 270.765 481.863 271.777 484.359 274.339L484.699 274.687L484.359 275.035C483.473 275.958 482.663 276.951 481.938 278.004L481.801 278.195L481.566 278.215C480.29 278.315 479.024 278.519 477.781 278.824L477.309 278.945ZM479.207 272.317C478.938 272.317 478.699 272.371 478.5 272.488C477.507 273.063 477.332 275.055 478.015 277.742C479.081 277.503 480.162 277.335 481.25 277.238C481.876 276.346 482.561 275.497 483.3 274.695C481.742 273.175 480.265 272.317 479.207 272.317ZM488.797 292.675C488.793 292.675 488.793 292.675 488.797 292.675C487.371 292.675 485.539 291.605 483.641 289.652L483.301 289.304L483.641 288.956C484.527 288.034 485.337 287.041 486.062 285.988L486.195 285.796L486.43 285.773C487.708 285.676 488.975 285.472 490.219 285.163L490.692 285.046L490.824 285.515C491.813 289 491.512 291.496 490 292.366C489.634 292.576 489.219 292.684 488.797 292.675ZM484.699 289.297C486.257 290.816 487.734 291.676 488.792 291.676H488.796C489.062 291.676 489.3 291.617 489.5 291.504C490.492 290.929 490.672 288.937 489.984 286.25C488.918 286.488 487.838 286.655 486.75 286.75C486.123 287.644 485.438 288.494 484.699 289.297ZM490.692 278.945L490.219 278.824C488.974 278.52 487.707 278.316 486.43 278.215L486.195 278.195L486.062 278.004C485.337 276.951 484.527 275.958 483.641 275.035L483.301 274.687L483.641 274.339C486.137 271.777 488.516 270.765 490 271.621C491.512 272.491 491.813 274.992 490.824 278.476L490.692 278.945ZM486.75 277.238C487.838 277.335 488.919 277.503 489.985 277.742C490.673 275.055 490.493 273.062 489.5 272.488C488.512 271.918 486.653 272.793 484.7 274.696C485.437 275.499 486.122 276.348 486.75 277.239V277.238ZM479.207 292.675C478.785 292.683 478.367 292.578 478 292.367C476.488 291.496 476.187 289 477.176 285.516L477.309 285.047L477.781 285.164C478.938 285.457 480.211 285.66 481.566 285.774L481.801 285.797L481.934 285.988C482.659 287.042 483.469 288.035 484.356 288.957L484.695 289.305L484.356 289.653C482.461 291.606 480.629 292.676 479.207 292.676V292.675ZM478.016 286.25C477.328 288.937 477.508 290.93 478.5 291.504C479.489 292.066 481.344 291.199 483.301 289.297C482.562 288.494 481.877 287.643 481.25 286.75C480.162 286.656 479.082 286.489 478.016 286.25ZM484 286.879C483.176 286.879 482.332 286.843 481.484 286.773L481.25 286.753L481.113 286.558C480.635 285.871 480.185 285.163 479.766 284.437C479.345 283.712 478.956 282.969 478.598 282.211L478.496 281.996L478.598 281.782C479.315 280.266 480.156 278.811 481.113 277.434L481.25 277.239L481.484 277.219C483.159 277.079 484.841 277.079 486.516 277.219L486.75 277.239L486.887 277.434C487.845 278.81 488.687 280.265 489.402 281.782L489.503 281.996L489.402 282.211C488.688 283.728 487.847 285.183 486.887 286.558L486.75 286.753L486.516 286.773C485.679 286.843 484.84 286.878 484 286.879ZM481.805 285.793C483.281 285.906 484.718 285.906 486.199 285.793C487.025 284.584 487.759 283.314 488.394 281.995C487.761 280.674 487.026 279.405 486.195 278.198C484.734 278.085 483.266 278.085 481.805 278.198C480.973 279.404 480.237 280.674 479.606 281.995C480.242 283.315 480.977 284.584 481.805 285.793Z" fill="#1F1F1F"/>
</g>
<path d="M502.924 287V278.432H506.536C507.08 278.432 507.552 278.544 507.952 278.768C508.36 278.992 508.676 279.304 508.9 279.704C509.124 280.096 509.236 280.552 509.236 281.072C509.236 281.656 509.092 282.164 508.804 282.596C508.524 283.028 508.144 283.328 507.664 283.496L509.656 287H507.556L505.828 283.724H504.76V287H502.924ZM506.032 279.788H504.76V282.452H506.032C506.456 282.452 506.776 282.352 506.992 282.152C507.208 281.944 507.316 281.6 507.316 281.12C507.316 280.664 507.208 280.328 506.992 280.112C506.776 279.896 506.456 279.788 506.032 279.788ZM514.344 285.98C514.832 285.98 515.236 285.92 515.556 285.8C515.884 285.68 516.176 285.516 516.432 285.308H516.528L516.42 286.556C516.236 286.716 515.948 286.86 515.556 286.988C515.164 287.116 514.688 287.18 514.128 287.18C513.456 287.18 512.872 287.032 512.376 286.736C511.88 286.44 511.496 286.036 511.224 285.524C510.952 285.012 510.816 284.432 510.816 283.784C510.816 283.136 510.944 282.556 511.2 282.044C511.456 281.532 511.812 281.128 512.268 280.832C512.732 280.536 513.268 280.388 513.876 280.388C514.588 280.388 515.148 280.52 515.556 280.784C515.972 281.048 516.264 281.408 516.432 281.864C516.6 282.312 516.684 282.816 516.684 283.376C516.684 283.456 516.68 283.556 516.672 283.676C516.664 283.788 516.656 283.884 516.648 283.964H512.544V284C512.576 284.624 512.74 285.112 513.036 285.464C513.332 285.808 513.768 285.98 514.344 285.98ZM513.912 281.492C513.488 281.492 513.168 281.632 512.952 281.912C512.744 282.192 512.616 282.596 512.568 283.124H515.172V282.92C515.172 282.488 515.068 282.144 514.86 281.888C514.66 281.624 514.344 281.492 513.912 281.492ZM518.294 282.32L518.474 280.964C518.698 280.796 519.014 280.66 519.422 280.556C519.838 280.444 520.246 280.388 520.646 280.388C521.502 280.388 522.138 280.544 522.554 280.856C522.978 281.16 523.19 281.7 523.19 282.476V287H521.738L521.618 286.004H521.546C521.402 286.388 521.186 286.68 520.898 286.88C520.61 287.08 520.226 287.18 519.746 287.18C519.402 287.18 519.09 287.12 518.81 287C518.53 286.872 518.306 286.68 518.138 286.424C517.97 286.16 517.886 285.82 517.886 285.404C517.886 284.988 517.974 284.652 518.15 284.396C518.326 284.132 518.566 283.928 518.87 283.784C519.182 283.632 519.542 283.52 519.95 283.448C520.478 283.352 520.85 283.272 521.066 283.208C521.29 283.144 521.446 283.072 521.534 282.992V282.608C521.534 282.256 521.45 282 521.282 281.84C521.114 281.672 520.79 281.588 520.31 281.588C519.918 281.588 519.558 281.656 519.23 281.792C518.902 281.92 518.618 282.096 518.378 282.32H518.294ZM521.534 284.9V283.844C521.382 283.972 521.002 284.1 520.394 284.228C520.138 284.284 519.926 284.38 519.758 284.516C519.59 284.652 519.506 284.88 519.506 285.2C519.506 285.504 519.586 285.72 519.746 285.848C519.906 285.968 520.11 286.028 520.358 286.028C520.758 286.028 521.054 285.916 521.246 285.692C521.438 285.46 521.534 285.196 521.534 284.9ZM524.687 283.784C524.687 283.136 524.811 282.556 525.059 282.044C525.315 281.532 525.679 281.128 526.151 280.832C526.631 280.536 527.207 280.388 527.879 280.388C528.375 280.388 528.791 280.44 529.127 280.544C529.471 280.648 529.731 280.772 529.907 280.916L530.015 282.356H529.907C529.667 282.132 529.407 281.96 529.127 281.84C528.847 281.72 528.507 281.66 528.107 281.66C527.611 281.66 527.203 281.84 526.883 282.2C526.571 282.56 526.415 283.088 526.415 283.784C526.415 284.496 526.583 285.028 526.919 285.38C527.263 285.724 527.683 285.896 528.179 285.896C528.603 285.896 528.951 285.84 529.223 285.728C529.495 285.608 529.739 285.448 529.955 285.248H530.063L529.967 286.508C529.791 286.676 529.527 286.832 529.175 286.976C528.831 287.112 528.395 287.18 527.867 287.18C527.195 287.18 526.619 287.032 526.139 286.736C525.667 286.44 525.307 286.036 525.059 285.524C524.811 285.012 524.687 284.432 524.687 283.784ZM533.69 285.02C533.69 285.364 533.766 285.596 533.918 285.716C534.07 285.836 534.266 285.896 534.506 285.896C534.722 285.896 534.894 285.88 535.022 285.848C535.158 285.808 535.282 285.76 535.394 285.704H535.466L535.298 286.94C535.21 287.004 535.046 287.06 534.806 287.108C534.566 287.156 534.318 287.18 534.062 287.18C533.35 287.18 532.834 287.032 532.514 286.736C532.194 286.44 532.034 285.96 532.034 285.296V281.792H530.918L531.074 280.808L532.034 280.568V279.116L533.69 278.924V280.556H535.37L535.19 281.792H533.69V285.02Z" fill="#1F1F1F"/>
<path d="M594.943 281.788H599.403L595.23 285.441L594.871 285.756L595.23 286.07L599.403 289.723H594.943L590.411 285.756L594.943 281.788ZM588.36 283.944L586.121 281.999L594.943 274.277H599.403L588.36 283.944Z" stroke="#1F1F1F" stroke-width="0.834879"/>
<path d="M611.924 287V278.432H617.18V279.86H613.76V282.044H616.556V283.412H613.76V287H611.924ZM620.459 285.056C620.459 285.392 620.511 285.616 620.615 285.728C620.719 285.832 620.883 285.884 621.107 285.884C621.339 285.884 621.563 285.832 621.779 285.728H621.851L621.683 286.988C621.595 287.044 621.443 287.088 621.227 287.12C621.011 287.16 620.827 287.18 620.675 287.18C620.035 287.18 619.563 287.032 619.259 286.736C618.963 286.44 618.815 285.948 618.815 285.26V278.084H620.459V285.056ZM625.798 285.848C626.206 285.848 626.522 285.708 626.746 285.428C626.97 285.148 627.082 284.768 627.082 284.288V280.556H628.738V287H627.31L627.19 285.956H627.118C626.958 286.404 626.694 286.72 626.326 286.904C625.958 287.088 625.562 287.18 625.138 287.18C624.474 287.18 623.954 286.996 623.578 286.628C623.21 286.252 623.026 285.692 623.026 284.948V280.556H624.67V284.552C624.67 285.008 624.754 285.34 624.922 285.548C625.098 285.748 625.39 285.848 625.798 285.848ZM632.713 285.02C632.713 285.364 632.789 285.596 632.941 285.716C633.093 285.836 633.289 285.896 633.529 285.896C633.745 285.896 633.917 285.88 634.045 285.848C634.181 285.808 634.305 285.76 634.417 285.704H634.489L634.321 286.94C634.233 287.004 634.069 287.06 633.829 287.108C633.589 287.156 633.341 287.18 633.085 287.18C632.373 287.18 631.857 287.032 631.537 286.736C631.217 286.44 631.057 285.96 631.057 285.296V281.792H629.941L630.097 280.808L631.057 280.568V279.116L632.713 278.924V280.556H634.393L634.213 281.792H632.713V285.02ZM637.967 285.02C637.967 285.364 638.043 285.596 638.195 285.716C638.347 285.836 638.543 285.896 638.783 285.896C638.999 285.896 639.171 285.88 639.299 285.848C639.435 285.808 639.559 285.76 639.671 285.704H639.743L639.575 286.94C639.487 287.004 639.323 287.06 639.083 287.108C638.843 287.156 638.595 287.18 638.339 287.18C637.627 287.18 637.111 287.032 636.791 286.736C636.471 286.44 636.311 285.96 636.311 285.296V281.792H635.195L635.351 280.808L636.311 280.568V279.116L637.967 278.924V280.556H639.647L639.467 281.792H637.967V285.02ZM644.313 285.98C644.801 285.98 645.205 285.92 645.525 285.8C645.853 285.68 646.145 285.516 646.401 285.308H646.497L646.389 286.556C646.205 286.716 645.917 286.86 645.525 286.988C645.133 287.116 644.657 287.18 644.097 287.18C643.425 287.18 642.841 287.032 642.345 286.736C641.849 286.44 641.465 286.036 641.193 285.524C640.921 285.012 640.785 284.432 640.785 283.784C640.785 283.136 640.913 282.556 641.169 282.044C641.425 281.532 641.781 281.128 642.237 280.832C642.701 280.536 643.237 280.388 643.845 280.388C644.557 280.388 645.117 280.52 645.525 280.784C645.941 281.048 646.233 281.408 646.401 281.864C646.569 282.312 646.653 282.816 646.653 283.376C646.653 283.456 646.649 283.556 646.641 283.676C646.633 283.788 646.625 283.884 646.617 283.964H642.513V284C642.545 284.624 642.709 285.112 643.005 285.464C643.301 285.808 643.737 285.98 644.313 285.98ZM643.881 281.492C643.457 281.492 643.137 281.632 642.921 281.912C642.713 282.192 642.585 282.596 642.537 283.124H645.141V282.92C645.141 282.488 645.037 282.144 644.829 281.888C644.629 281.624 644.313 281.492 643.881 281.492ZM651.118 281.996C650.702 281.996 650.386 282.132 650.17 282.404C649.962 282.676 649.858 283.1 649.858 283.676V287H648.202V280.556H649.606L649.726 281.744H649.798C649.878 281.376 650.006 281.096 650.182 280.904C650.358 280.704 650.562 280.568 650.794 280.496C651.026 280.424 651.27 280.388 651.526 280.388C651.646 280.388 651.758 280.396 651.862 280.412C651.966 280.428 652.046 280.444 652.102 280.46L651.886 282.164H651.778C651.706 282.124 651.618 282.088 651.514 282.056C651.41 282.016 651.278 281.996 651.118 281.996Z" fill="#1F1F1F"/>
<defs>
<filter id="filter0_dd_24453_173713" x="369.811" y="129.32" width="60.3781" height="20.5709" filterUnits="userSpaceOnUse" color-interpolation-filters="sRGB">
<feFlood flood-opacity="0" result="BackgroundImageFix"/>
<feColorMatrix in="SourceAlpha" type="matrix" values="0 0 0 0 0 0 0 0 0 0 0 0 0 0 0 0 0 0 127 0" result="hardAlpha"/>
<feMorphology radius="0.536488" operator="erode" in="SourceAlpha" result="effect1_dropShadow_24453_173713"/>
<feOffset dy="0.536488"/>
<feGaussianBlur stdDeviation="0.536488"/>
<feComposite in2="hardAlpha" operator="out"/>
<feColorMatrix type="matrix" values="0 0 0 0 0 0 0 0 0 0 0 0 0 0 0 0 0 0 0.1 0"/>
<feBlend mode="normal" in2="BackgroundImageFix" result="effect1_dropShadow_24453_173713"/>
<feColorMatrix in="SourceAlpha" type="matrix" values="0 0 0 0 0 0 0 0 0 0 0 0 0 0 0 0 0 0 127 0" result="hardAlpha"/>
<feOffset dy="0.536488"/>
<feGaussianBlur stdDeviation="0.804733"/>
<feComposite in2="hardAlpha" operator="out"/>
<feColorMatrix type="matrix" values="0 0 0 0 0 0 0 0 0 0 0 0 0 0 0 0 0 0 0.1 0"/>
<feBlend mode="normal" in2="effect1_dropShadow_24453_173713" result="effect2_dropShadow_24453_173713"/>
<feBlend mode="normal" in="SourceGraphic" in2="effect2_dropShadow_24453_173713" result="shape"/>
</filter>
<filter id="filter1_dd_24453_173713" x="369.811" y="101.251" width="60.3781" height="20.5709" filterUnits="userSpaceOnUse" color-interpolation-filters="sRGB">
<feFlood flood-opacity="0" result="BackgroundImageFix"/>
<feColorMatrix in="SourceAlpha" type="matrix" values="0 0 0 0 0 0 0 0 0 0 0 0 0 0 0 0 0 0 127 0" result="hardAlpha"/>
<feMorphology radius="0.536488" operator="erode" in="SourceAlpha" result="effect1_dropShadow_24453_173713"/>
<feOffset dy="0.536488"/>
<feGaussianBlur stdDeviation="0.536488"/>
<feComposite in2="hardAlpha" operator="out"/>
<feColorMatrix type="matrix" values="0 0 0 0 0 0 0 0 0 0 0 0 0 0 0 0 0 0 0.1 0"/>
<feBlend mode="normal" in2="BackgroundImageFix" result="effect1_dropShadow_24453_173713"/>
<feColorMatrix in="SourceAlpha" type="matrix" values="0 0 0 0 0 0 0 0 0 0 0 0 0 0 0 0 0 0 127 0" result="hardAlpha"/>
<feOffset dy="0.536488"/>
<feGaussianBlur stdDeviation="0.804733"/>
<feComposite in2="hardAlpha" operator="out"/>
<feColorMatrix type="matrix" values="0 0 0 0 0 0 0 0 0 0 0 0 0 0 0 0 0 0 0.1 0"/>
<feBlend mode="normal" in2="effect1_dropShadow_24453_173713" result="effect2_dropShadow_24453_173713"/>
<feBlend mode="normal" in="SourceGraphic" in2="effect2_dropShadow_24453_173713" result="shape"/>
</filter>
<filter id="filter2_dd_24453_173713" x="369.811" y="73.1818" width="60.3781" height="20.5709" filterUnits="userSpaceOnUse" color-interpolation-filters="sRGB">
<feFlood flood-opacity="0" result="BackgroundImageFix"/>
<feColorMatrix in="SourceAlpha" type="matrix" values="0 0 0 0 0 0 0 0 0 0 0 0 0 0 0 0 0 0 127 0" result="hardAlpha"/>
<feMorphology radius="0.536488" operator="erode" in="SourceAlpha" result="effect1_dropShadow_24453_173713"/>
<feOffset dy="0.536488"/>
<feGaussianBlur stdDeviation="0.536488"/>
<feComposite in2="hardAlpha" operator="out"/>
<feColorMatrix type="matrix" values="0 0 0 0 0 0 0 0 0 0 0 0 0 0 0 0 0 0 0.1 0"/>
<feBlend mode="normal" in2="BackgroundImageFix" result="effect1_dropShadow_24453_173713"/>
<feColorMatrix in="SourceAlpha" type="matrix" values="0 0 0 0 0 0 0 0 0 0 0 0 0 0 0 0 0 0 127 0" result="hardAlpha"/>
<feOffset dy="0.536488"/>
<feGaussianBlur stdDeviation="0.804733"/>
<feComposite in2="hardAlpha" operator="out"/>
<feColorMatrix type="matrix" values="0 0 0 0 0 0 0 0 0 0 0 0 0 0 0 0 0 0 0.1 0"/>
<feBlend mode="normal" in2="effect1_dropShadow_24453_173713" result="effect2_dropShadow_24453_173713"/>
<feBlend mode="normal" in="SourceGraphic" in2="effect2_dropShadow_24453_173713" result="shape"/>
</filter>
<filter id="filter3_dd_24453_173713" x="506.811" y="129.32" width="60.3781" height="20.5709" filterUnits="userSpaceOnUse" color-interpolation-filters="sRGB">
<feFlood flood-opacity="0" result="BackgroundImageFix"/>
<feColorMatrix in="SourceAlpha" type="matrix" values="0 0 0 0 0 0 0 0 0 0 0 0 0 0 0 0 0 0 127 0" result="hardAlpha"/>
<feMorphology radius="0.536488" operator="erode" in="SourceAlpha" result="effect1_dropShadow_24453_173713"/>
<feOffset dy="0.536488"/>
<feGaussianBlur stdDeviation="0.536488"/>
<feComposite in2="hardAlpha" operator="out"/>
<feColorMatrix type="matrix" values="0 0 0 0 0 0 0 0 0 0 0 0 0 0 0 0 0 0 0.1 0"/>
<feBlend mode="normal" in2="BackgroundImageFix" result="effect1_dropShadow_24453_173713"/>
<feColorMatrix in="SourceAlpha" type="matrix" values="0 0 0 0 0 0 0 0 0 0 0 0 0 0 0 0 0 0 127 0" result="hardAlpha"/>
<feOffset dy="0.536488"/>
<feGaussianBlur stdDeviation="0.804733"/>
<feComposite in2="hardAlpha" operator="out"/>
<feColorMatrix type="matrix" values="0 0 0 0 0 0 0 0 0 0 0 0 0 0 0 0 0 0 0.1 0"/>
<feBlend mode="normal" in2="effect1_dropShadow_24453_173713" result="effect2_dropShadow_24453_173713"/>
<feBlend mode="normal" in="SourceGraphic" in2="effect2_dropShadow_24453_173713" result="shape"/>
</filter>
<filter id="filter4_dd_24453_173713" x="506.811" y="101.251" width="60.3781" height="20.5709" filterUnits="userSpaceOnUse" color-interpolation-filters="sRGB">
<feFlood flood-opacity="0" result="BackgroundImageFix"/>
<feColorMatrix in="SourceAlpha" type="matrix" values="0 0 0 0 0 0 0 0 0 0 0 0 0 0 0 0 0 0 127 0" result="hardAlpha"/>
<feMorphology radius="0.536488" operator="erode" in="SourceAlpha" result="effect1_dropShadow_24453_173713"/>
<feOffset dy="0.536488"/>
<feGaussianBlur stdDeviation="0.536488"/>
<feComposite in2="hardAlpha" operator="out"/>
<feColorMatrix type="matrix" values="0 0 0 0 0 0 0 0 0 0 0 0 0 0 0 0 0 0 0.1 0"/>
<feBlend mode="normal" in2="BackgroundImageFix" result="effect1_dropShadow_24453_173713"/>
<feColorMatrix in="SourceAlpha" type="matrix" values="0 0 0 0 0 0 0 0 0 0 0 0 0 0 0 0 0 0 127 0" result="hardAlpha"/>
<feOffset dy="0.536488"/>
<feGaussianBlur stdDeviation="0.804733"/>
<feComposite in2="hardAlpha" operator="out"/>
<feColorMatrix type="matrix" values="0 0 0 0 0 0 0 0 0 0 0 0 0 0 0 0 0 0 0.1 0"/>
<feBlend mode="normal" in2="effect1_dropShadow_24453_173713" result="effect2_dropShadow_24453_173713"/>
<feBlend mode="normal" in="SourceGraphic" in2="effect2_dropShadow_24453_173713" result="shape"/>
</filter>
<filter id="filter5_dd_24453_173713" x="506.811" y="73.1818" width="60.3781" height="20.5709" filterUnits="userSpaceOnUse" color-interpolation-filters="sRGB">
<feFlood flood-opacity="0" result="BackgroundImageFix"/>
<feColorMatrix in="SourceAlpha" type="matrix" values="0 0 0 0 0 0 0 0 0 0 0 0 0 0 0 0 0 0 127 0" result="hardAlpha"/>
<feMorphology radius="0.536488" operator="erode" in="SourceAlpha" result="effect1_dropShadow_24453_173713"/>
<feOffset dy="0.536488"/>
<feGaussianBlur stdDeviation="0.536488"/>
<feComposite in2="hardAlpha" operator="out"/>
<feColorMatrix type="matrix" values="0 0 0 0 0 0 0 0 0 0 0 0 0 0 0 0 0 0 0.1 0"/>
<feBlend mode="normal" in2="BackgroundImageFix" result="effect1_dropShadow_24453_173713"/>
<feColorMatrix in="SourceAlpha" type="matrix" values="0 0 0 0 0 0 0 0 0 0 0 0 0 0 0 0 0 0 127 0" result="hardAlpha"/>
<feOffset dy="0.536488"/>
<feGaussianBlur stdDeviation="0.804733"/>
<feComposite in2="hardAlpha" operator="out"/>
<feColorMatrix type="matrix" values="0 0 0 0 0 0 0 0 0 0 0 0 0 0 0 0 0 0 0.1 0"/>
<feBlend mode="normal" in2="effect1_dropShadow_24453_173713" result="effect2_dropShadow_24453_173713"/>
<feBlend mode="normal" in="SourceGraphic" in2="effect2_dropShadow_24453_173713" result="shape"/>
</filter>
<clipPath id="clip0_24453_173713">
<rect width="125" height="136" fill="white" transform="translate(63.5 56)"/>
</clipPath>
<clipPath id="clip1_24453_173713">
<path d="M200.5 68C200.5 61.3726 205.873 56 212.5 56H313.5C320.127 56 325.5 61.3726 325.5 68V180C325.5 186.627 320.127 192 313.5 192H212.5C205.873 192 200.5 186.627 200.5 180V68Z" fill="white"/>
</clipPath>
<clipPath id="clip2_24453_173713">
<path d="M337.5 68C337.5 61.3726 342.873 56 349.5 56H450.5C457.127 56 462.5 61.3726 462.5 68V180C462.5 186.627 457.127 192 450.5 192H349.5C342.873 192 337.5 186.627 337.5 180V68Z" fill="white"/>
</clipPath>
<clipPath id="clip3_24453_173713">
<rect width="89.3113" height="73.4904" fill="white" transform="translate(355.344 74.2548)"/>
</clipPath>
<clipPath id="clip4_24453_173713">
<path d="M474.5 68C474.5 61.3726 479.873 56 486.5 56H587.5C594.127 56 599.5 61.3726 599.5 68V180C599.5 186.627 594.127 192 587.5 192H486.5C479.873 192 474.5 186.627 474.5 180V68Z" fill="white"/>
</clipPath>
<clipPath id="clip5_24453_173713">
<rect width="89.3113" height="73.4904" fill="white" transform="translate(492.344 74.2548)"/>
</clipPath>
<clipPath id="clip6_24453_173713">
<path d="M611.5 68C611.5 61.3726 616.873 56 623.5 56H724.5C731.127 56 736.5 61.3726 736.5 68V180C736.5 186.627 731.127 192 724.5 192H623.5C616.873 192 611.5 186.627 611.5 180V68Z" fill="white"/>
</clipPath>
<clipPath id="clip7_24453_173713">
<rect width="24" height="24" fill="white" transform="translate(472 270)"/>
</clipPath>
</defs>
</svg>
